<?xml version="1.0" encoding="UTF-8" standalone="no"?>
<svg
   xmlns:dc="http://purl.org/dc/elements/1.1/"
   xmlns:cc="http://creativecommons.org/ns#"
   xmlns:rdf="http://www.w3.org/1999/02/22-rdf-syntax-ns#"
   xmlns:svg="http://www.w3.org/2000/svg"
   xmlns="http://www.w3.org/2000/svg"
   xmlns:sodipodi="http://sodipodi.sourceforge.net/DTD/sodipodi-0.dtd"
   xmlns:inkscape="http://www.inkscape.org/namespaces/inkscape"
   width="210mm"
   height="297mm"
   viewBox="0 0 210 297"
   version="1.1"
   id="svg8"
   inkscape:version="1.0.2 (e86c870879, 2021-01-15)"
   sodipodi:docname="file.svg">
  <defs
     id="defs2" />
  <sodipodi:namedview
     id="base"
     pagecolor="#ffffff"
     bordercolor="#666666"
     borderopacity="1.0"
     inkscape:pageopacity="0.0"
     inkscape:pageshadow="2"
     inkscape:zoom="0.7"
     inkscape:cx="964.58952"
     inkscape:cy="351.27415"
     inkscape:document-units="mm"
     inkscape:current-layer="layer1"
     inkscape:document-rotation="0"
     showgrid="false"
     inkscape:window-width="1680"
     inkscape:window-height="987"
     inkscape:window-x="0"
     inkscape:window-y="29"
     inkscape:window-maximized="1" />
  <metadata
     id="metadata5">
    <rdf:RDF>
      <cc:Work
         rdf:about="">
        <dc:format>image/svg+xml</dc:format>
        <dc:type
           rdf:resource="http://purl.org/dc/dcmitype/StillImage" />
        <dc:title />
      </cc:Work>
    </rdf:RDF>
  </metadata>
  <g
     inkscape:label="Capa 1"
     inkscape:groupmode="layer"
     id="layer1">
    <g
       id="g867"
       transform="translate(-196.4207,-70.501233)"
       inkscape:export-xdpi="96"
       inkscape:export-ydpi="96">
      <path
         id="path34"
         style="fill:#ffffff;fill-opacity:1;stroke:none;stroke-width:0.999999px;stroke-linecap:butt;stroke-linejoin:miter;stroke-opacity:1"
         d="m 1070.2324,419.09375 -18.8203,1.35937 -6.457,-0.0312 -0.2149,0.51367 -46.832,3.38281 -8.74023,4.62109 0.45703,5.39649 51.2129,1.77539 10.7871,119.36914 112.3359,5.71289 82.0293,-2.55469 1.8575,-55.80664 -8.5547,-50.51367 -6.4805,-15.69922 -19.1875,-15.375 z"
         transform="scale(0.26458333)" />
      <g
         id="g24"
         transform="translate(-14.34247,50.638659)">
        <path
           style="fill:#79cae4;stroke-width:0.264583"
           d="m 276.40057,148.75258 c -1.17483,-0.31403 -2.71737,-1.74644 -3.24779,-3.01591 -0.30562,-0.73144 -0.36638,-5.53853 -0.36154,-28.6028 0.006,-26.420542 0.0288,-27.773346 0.4958,-28.781935 0.57032,-1.231831 1.69784,-2.361205 2.75676,-2.761292 0.40965,-0.154779 1.63787,-0.281416 2.72937,-0.281416 2.84241,0 3.00777,-0.134985 3.00956,-2.456704 0.002,-2.438402 0.35296,-3.675867 1.37217,-4.836681 1.2111,-1.379379 1.67164,-1.545196 4.71177,-1.696487 l 2.77813,-0.138253 0.0846,-2.778125 c 0.097,-3.186871 -0.28879,-5.462632 -0.96061,-5.666321 -0.24579,-0.07452 -3.80392,-0.129694 -7.90697,-0.122603 -4.10304,0.0071 -7.68562,-0.05869 -7.96128,-0.146185 -2.13956,-0.679069 -0.73773,-5.45975 2.27002,-7.741495 2.28533,-1.733704 1.1294,-1.669706 30.06655,-1.664634 28.78744,0.005 28.32978,-0.01818 31.53074,1.600006 3.091,1.562602 5.65993,4.435969 7.02549,7.858079 0.57133,1.431745 0.61345,1.973705 0.74518,9.58732 l 0.13963,8.069791 0.66146,0.07136 c 1.8486,0.199421 2.47269,0.421968 3.35448,1.196197 2.06362,1.81188 1.92486,-0.398915 1.93137,30.771558 l 0.006,27.80578 -0.61563,1.16609 c -0.33859,0.64135 -1.12273,1.52328 -1.74252,1.95985 l -1.12688,0.79375 -35.3653,0.0412 c -23.45649,0.0273 -35.70711,-0.0502 -36.38036,-0.23013 z m 65.65381,-66.963454 -0.0804,-12.515937 -0.99957,-2.021856 c -1.57047,-3.176598 -4.0113,-4.926676 -7.59938,-5.44875 -1.7802,-0.259021 -8.57754,-0.282716 -8.82977,-0.03078 -0.0786,0.07853 0.14897,1.088944 0.50576,2.245361 0.3568,1.156417 0.77699,3.116228 0.93376,4.355134 0.4923,3.89038 -0.15643,3.443179 4.99483,3.443179 h 4.47368 l 0.553,0.703032 c 0.35372,0.449683 0.49505,0.902581 0.39218,1.256771 -0.0885,0.304556 -4.05307,4.453035 -8.81027,9.218842 -7.12268,7.135571 -8.77654,8.665104 -9.36949,8.665104 -0.59286,0 -2.26225,-1.543148 -9.45062,-8.735915 -9.23633,-9.24199 -9.36811,-9.411959 -8.2014,-10.578668 0.48507,-0.485068 0.88195,-0.529166 4.7625,-0.529166 3.19661,0 4.23962,-0.081 4.25897,-0.33073 0.17434,-2.24908 -1.49159,-8.505769 -2.54536,-9.559533 -0.29471,-0.294707 -1.93255,-0.363411 -8.51374,-0.357134 -4.48185,0.0043 -8.24788,0.06256 -8.36896,0.129525 -0.12107,0.06696 0.0793,0.436113 0.44526,0.820332 1.08221,1.136192 2.53349,3.748992 3.10684,5.593373 0.50145,1.613122 0.53564,2.450063 0.55114,13.493749 0.009,6.475677 0.0699,11.982318 0.13506,12.236979 0.11179,0.436663 1.47384,0.463021 23.92748,0.463021 H 342.1348 Z M 286.80834,63.921243 c 0,-0.439521 -2.87324,-1.66204 -4.56514,-1.942397 -2.12039,-0.35136 -3.37273,-0.141105 -4.4229,0.742554 -1.56938,1.320548 -1.2796,1.421161 4.09325,1.421161 2.69214,0 4.89479,-0.09959 4.89479,-0.221318 z"
           id="path30" />
        <path
           style="fill:#72bf3f;stroke-width:0.264583"
           d="m 275.9683,148.39026 c -1.20925,-0.5245 -1.80914,-1.09094 -2.41728,-2.28247 -0.48231,-0.94501 -0.50101,-2.02943 -0.50101,-29.05116 0,-30.956574 -0.12223,-28.771677 1.69904,-30.370776 1.16418,-1.022162 2.39995,-1.373264 4.84009,-1.375151 2.32172,-0.0019 2.4567,-0.167158 2.4567,-3.009566 0,-2.338869 0.26591,-3.163813 1.40529,-4.35973 1.17059,-1.228667 1.78395,-1.433608 4.81242,-1.607971 l 2.64583,-0.152334 0.085,-2.513541 c 0.0838,-2.477812 -0.28574,-5.10867 -0.80831,-5.754687 -0.20322,-0.251236 -2.16761,-0.33073 -8.17262,-0.33073 -7.55233,0 -7.92872,-0.02363 -8.43427,-0.529166 -1.63404,-1.634032 0.63447,-6.288032 3.87057,-7.940751 l 1.2888,-0.658207 27.22667,-0.07101 c 23.84176,-0.06218 27.42719,-0.02018 28.83958,0.337816 4.6541,1.179678 8.54931,4.840335 9.97186,9.371399 0.48889,1.557202 0.55364,2.526702 0.61973,9.2795 0.0406,4.147344 0.0908,7.616203 0.11163,7.708577 0.0208,0.09237 0.68447,0.248745 1.47482,0.347493 1.15505,0.144312 1.66715,0.382127 2.60997,1.21203 0.64514,0.56787 1.31001,1.363998 1.4775,1.769173 0.22468,0.543545 0.28611,8.164393 0.2343,29.067762 l -0.0702,28.33107 -0.74293,0.97397 c -0.40861,0.53569 -1.20754,1.211 -1.7754,1.5007 -1.01595,0.5183 -1.59876,0.52656 -36.43102,0.51637 -30.92103,-0.009 -35.5147,-0.0607 -36.31673,-0.40861 z m 71.90587,-3.07354 c 0.37841,-0.3784 0.46031,-46.672502 0.0836,-47.266875 -0.18761,-0.296029 -6.21214,-0.349898 -35.63601,-0.31864 -24.84873,0.0264 -35.51261,0.122589 -35.7535,0.322508 -0.48357,0.401326 -0.50886,46.779927 -0.0258,47.263007 0.4613,0.46131 70.87036,0.46131 71.33166,0 z m -5.63614,-63.314785 c -5.3e-4,-12.331762 -0.006,-12.447864 -0.60391,-13.928941 -1.24682,-3.086147 -3.36736,-5.099179 -6.36876,-6.045881 -1.41404,-0.446018 -2.41359,-0.530385 -6.28385,-0.530385 -3.89376,0 -4.60234,0.06049 -4.60234,0.392877 0,0.216082 0.28563,1.378522 0.63473,2.583199 0.3491,1.204677 0.78543,3.342158 0.96961,4.749955 l 0.33488,2.55963 4.60849,0.08269 c 4.20286,0.07541 4.64149,0.127894 4.98351,0.596281 0.20627,0.282474 0.37503,0.758058 0.37503,1.056851 0,0.36045 -2.91537,3.459639 -8.6636,9.209847 -7.49176,7.494341 -8.77003,8.666585 -9.45049,8.666585 -0.67996,0 -1.95206,-1.163576 -9.36114,-8.562535 -7.06645,-7.056794 -8.57425,-8.689414 -8.57425,-9.284041 0,-1.446612 0.45529,-1.592186 5.26893,-1.684703 l 4.39155,-0.0844 -0.16876,-1.647213 c -0.21033,-2.052916 -1.0451,-5.116658 -1.93825,-7.113667 l -0.68042,-1.521354 h -8.69511 c -4.78232,0 -8.69512,0.06794 -8.69512,0.15097 0,0.08303 0.46337,0.708111 1.02971,1.389061 1.12255,1.349716 1.90863,2.790309 2.76206,5.061826 0.52455,1.39614 0.55568,2.063189 0.63662,13.638767 0.0468,6.693958 0.13763,12.320296 0.20184,12.50297 0.0927,0.263824 5.02972,0.318243 24.00315,0.264583 l 23.88641,-0.06755 -5.3e-4,-12.435416 z m -51.59323,5.027083 v -7.143749 l -2.20846,-0.07726 c -1.40062,-0.049 -2.34424,0.03544 -2.57968,0.230836 -0.2654,0.220257 -0.37248,0.958889 -0.37559,2.590799 -0.005,2.706791 -0.51967,3.86402 -2.33283,5.246966 -1.08588,0.828225 -1.25676,0.872201 -3.38932,0.872201 -3.23981,0 -3.26933,0.02752 -3.26933,3.048767 v 2.500982 l 7.07761,-0.06289 7.0776,-0.0629 z m 57.28229,4.771808 c 0,-2.205072 -0.0611,-2.536952 -0.51177,-2.778125 -0.9095,-0.486748 -1.58092,-0.32925 -1.76763,0.41464 -0.17805,0.709421 0.0612,4.224842 0.31558,4.636391 0.0786,0.12723 0.55266,0.231328 1.05339,0.231328 h 0.91043 z M 287.33751,64.183569 c 0,-0.910132 -3.41719,-2.42135 -5.89975,-2.609105 -1.6138,-0.122052 -2.09968,-0.0569 -2.99965,0.402236 -1.11949,0.571117 -2.08555,1.730082 -1.81161,2.173336 0.19677,0.318381 10.71101,0.351298 10.71101,0.03353 z"
           id="path28" />
        <path
           style="fill:#2d3a3a;stroke-width:0.264583"
           d="m 275.65099,148.00839 c -0.94355,-0.49843 -1.80576,-1.4796 -2.1592,-2.45712 -0.0954,-0.26391 -0.1768,-13.09402 -0.18085,-28.51135 -0.008,-30.598036 -0.10516,-28.668927 1.5213,-30.214551 0.9997,-0.950016 2.11214,-1.251559 4.61716,-1.251559 2.63438,0 2.86102,-0.268041 2.86102,-3.383557 0,-2.342603 0.17986,-2.916545 1.28911,-4.113692 1.10838,-1.196218 1.584,-1.348538 4.66402,-1.493705 l 2.91042,-0.13717 -0.0265,-3.439583 c -0.0181,-2.352128 -0.15197,-3.774186 -0.42327,-4.497917 l -0.39673,-1.058333 -8.25175,-0.132292 c -9.17599,-0.147108 -8.74967,-0.04981 -8.75704,-1.998572 -0.006,-1.469782 1.10561,-3.589568 2.54637,-4.857777 2.27499,-2.002533 0.4793,-1.892553 30.65479,-1.877486 22.43975,0.01121 27.22686,0.0768 28.40793,0.389234 5.1621,1.365566 9.33111,5.973138 10.07752,11.137643 0.14604,1.010441 0.26788,4.886367 0.27076,8.613172 l 0.005,6.776002 1.49366,0.15416 c 1.65344,0.170651 3.02745,1.058039 3.87325,2.501492 0.44529,0.75992 0.47144,2.400644 0.46002,28.863861 -0.007,15.43198 -0.0897,28.27272 -0.18444,28.53498 -0.36096,0.99869 -1.22675,1.96321 -2.21465,2.46719 -1.00687,0.51367 -1.67125,0.52297 -36.55636,0.51149 -34.63222,-0.0114 -35.55541,-0.0247 -36.50174,-0.52456 z m 72.30985,-2.8117 c 0.30171,-0.36354 0.36312,-4.37232 0.36312,-23.70154 0,-22.723448 -0.0119,-23.272722 -0.51359,-23.639543 -0.43746,-0.319879 -5.67332,-0.375013 -35.32187,-0.371936 -19.14456,0.0021 -35.06794,0.07325 -35.38529,0.158367 -0.31736,0.08511 -0.67455,0.351377 -0.79375,0.591698 -0.11921,0.240321 -0.25031,10.721184 -0.29133,23.290814 -0.0663,20.31058 -0.0288,22.92375 0.33683,23.48177 l 0.41142,0.6279 h 35.41566 c 32.62072,0 35.44433,-0.0345 35.7788,-0.43753 z m -5.64651,-63.393192 -0.0758,-12.766145 -0.83377,-1.75981 c -1.3744,-2.900913 -3.70027,-4.820155 -6.82859,-5.634765 -1.11344,-0.289937 -2.84622,-0.410633 -5.89528,-0.410633 -5.04739,0 -4.94221,-0.06713 -4.09488,2.613366 0.57396,1.815698 0.97173,3.785917 1.3153,6.514758 l 0.19986,1.5875 4.52335,0.132292 c 4.78583,0.139967 5.3963,0.300948 5.3963,1.422985 0,0.388551 -2.65903,3.217362 -8.53281,9.077663 -4.69305,4.68227 -8.71141,8.535455 -8.92969,8.562633 -0.21828,0.02718 -0.57103,0.03531 -0.78388,0.01807 -0.49924,-0.04044 -16.59258,-16.06856 -17.10253,-17.033215 -0.46504,-0.879697 -0.13667,-1.704507 0.76228,-1.914732 0.32322,-0.07559 2.37361,-0.16629 4.55642,-0.201562 l 3.96875,-0.06414 -0.0543,-1.719791 c -0.0841,-2.666254 -1.84559,-8.148029 -2.82554,-8.793344 -0.50193,-0.330531 -17.6254,-0.245387 -17.6254,0.08764 0,0.159571 0.48879,0.844179 1.0862,1.521354 0.59741,0.677174 1.42234,1.895588 1.83318,2.707589 1.52412,3.012324 1.57854,3.583742 1.57854,16.575542 0,6.539558 0.0794,11.969482 0.17639,12.066494 0.097,0.09701 10.99557,0.17639 24.21901,0.17639 h 24.04263 z m -51.66953,5.22552 v -7.143749 l -2.20846,-0.07726 c -1.31555,-0.04602 -2.34838,0.03887 -2.55454,0.209965 -0.22633,0.187841 -0.37767,1.145305 -0.43737,2.767145 -0.0832,2.26106 -0.16232,2.580912 -0.89605,3.624249 -1.25659,1.786818 -2.45702,2.329886 -5.1616,2.335091 -1.40118,0.0027 -2.38303,0.125195 -2.57969,0.321852 -0.2015,0.201504 -0.3175,1.218044 -0.3175,2.782446 v 2.464948 l 7.07761,-0.07047 7.0776,-0.07047 z m 57.28229,4.794896 c 0,-2.743401 -0.21507,-3.176024 -1.50536,-3.028077 -0.73836,0.08466 -0.74415,0.100169 -0.82205,2.201042 -0.11258,3.036319 -0.008,3.308181 1.27412,3.308181 h 1.05329 z M 324.57554,81.541026 c 3.3845,-3.382198 6.15363,-6.239698 6.15363,-6.35 0,-0.110302 -1.40599,-0.200549 -3.12443,-0.200549 -2.2125,0 -3.26767,-0.104738 -3.61518,-0.358846 -0.39239,-0.286925 -0.56194,-1.016061 -0.84594,-3.637902 -0.38821,-3.583998 -0.82097,-5.538001 -1.73932,-7.853393 l -0.59943,-1.511316 -4.8742,-0.0723 c -2.68081,-0.03976 -4.97048,0.02399 -5.08816,0.141671 -0.11769,0.117682 0.0281,0.851028 0.32395,1.629657 0.85482,2.249707 1.55249,5.510048 1.73761,8.120208 0.15837,2.232911 0.12923,2.452671 -0.39466,2.976562 -0.51223,0.512236 -0.85301,0.565655 -3.60836,0.565655 -2.24735,0 -3.04271,0.0859 -3.04271,0.328618 0,0.388641 11.91253,12.371382 12.2989,12.371382 0.14557,0 3.03381,-2.767253 6.4183,-6.149451 z M 287.55351,64.27934 c 0.25944,-0.259447 -0.64045,-1.004562 -2.18455,-1.808805 -1.49101,-0.776597 -1.79223,-0.835322 -4.3,-0.838306 l -2.69668,-0.0032 -0.94134,0.911799 c -1.20655,1.16867 -1.23358,1.804622 -0.0815,1.915707 1.25788,0.121283 10.05836,-0.03153 10.20402,-0.177186 z"
           id="path26" />
      </g>
    </g>
  </g>
</svg>
