<?xml version="1.0" encoding="UTF-8" standalone="no"?>
<svg
   xmlns:dc="http://purl.org/dc/elements/1.1/"
   xmlns:cc="http://creativecommons.org/ns#"
   xmlns:rdf="http://www.w3.org/1999/02/22-rdf-syntax-ns#"
   xmlns:svg="http://www.w3.org/2000/svg"
   xmlns="http://www.w3.org/2000/svg"
   xmlns:sodipodi="http://sodipodi.sourceforge.net/DTD/sodipodi-0.dtd"
   xmlns:inkscape="http://www.inkscape.org/namespaces/inkscape"
   width="463.26001"
   height="426.66599"
   viewBox="0 0 122.57088 112.88871"
   version="1.1"
   id="svg8"
   sodipodi:docname="banner.svg"
   inkscape:version="1.0.2 (e86c870879, 2021-01-15)">
  <defs
     id="defs2" />
  <sodipodi:namedview
     id="base"
     pagecolor="#ffffff"
     bordercolor="#666666"
     borderopacity="1.0"
     inkscape:pageopacity="0.0"
     inkscape:pageshadow="2"
     inkscape:zoom="0.5"
     inkscape:cx="634.01146"
     inkscape:cy="365.78311"
     inkscape:document-units="mm"
     inkscape:current-layer="layer1"
     inkscape:document-rotation="0"
     showgrid="false"
     units="px"
     inkscape:showpageshadow="false"
     borderlayer="true"
     showguides="true"
     inkscape:guide-bbox="true"
     inkscape:snap-bbox="true"
     inkscape:bbox-paths="true"
     inkscape:snap-bbox-edge-midpoints="true"
     inkscape:bbox-nodes="true"
     inkscape:snap-bbox-midpoints="true"
     inkscape:object-paths="true"
     inkscape:snap-intersection-paths="true"
     inkscape:snap-smooth-nodes="true"
     inkscape:snap-object-midpoints="true"
     inkscape:snap-center="true"
     inkscape:snap-page="true"
     inkscape:window-width="1680"
     inkscape:window-height="987"
     inkscape:window-x="0"
     inkscape:window-y="29"
     inkscape:window-maximized="1" />
  <metadata
     id="metadata5">
    <rdf:RDF>
      <cc:Work
         rdf:about="">
        <dc:format>image/svg+xml</dc:format>
        <dc:type
           rdf:resource="http://purl.org/dc/dcmitype/StillImage" />
        <dc:title></dc:title>
      </cc:Work>
    </rdf:RDF>
  </metadata>
  <g
     inkscape:label="Capa 1"
     inkscape:groupmode="layer"
     id="layer1">
    <path
       style="opacity:1;fill:#ffffff;fill-opacity:1;stroke-width:0.34497"
       d="M 1.45298,107.03255 V 90.809939 h 6.24323 v 14.602871 c 0,2.24366 2.30184,2.95834 3.62448,2.96294 1.32264,0.004 3.65545,-0.71928 3.65545,-2.96294 V 90.809939 h 6.23763 v 16.222611 c -0.67832,3.86302 -5.10574,5.85558 -9.88039,5.85558 -4.77466,0 -9.06504,-1.99257 -9.8804,-5.85558 z m 21.76696,-16.289601 6.55445,0.067 2.92958,3e-5 c 5.70366,0 7.73833,3.18926 7.73833,7.2444 0,4.055141 -2.03467,6.899421 -7.73833,6.899421 h -2.92958 v 7.93434 h -6.55445 z m 11.03904,7.3114 c 0,-2.85317 -1.55501,-2.75977 -4.48459,-2.75977 v 5.519541 c 2.92958,0 4.48459,0.0934 4.48459,-2.759771 z m 14.14383,-2.75977 h -6.89943 v -4.49502 l 20.1476,0.0104 v 4.48463 l -6.69329,-1.5e-4 v 17.593501 h -6.55441 z m 18.04223,-4.50563 7.90744,0.021 7.31967,22.078181 H 75.0172 l -1.22623,-4.50595 -7.47226,-0.006 -1.38232,4.51264 -6.22001,-2.9e-4 c 2.68434,-7.6977 4.99826,-14.287061 7.72866,-22.099181 z m 5.91987,12.526201 -2.14147,-8.020571 -2.67732,8.969271 h 2.60399 2.47543 z M 83.24486,90.809949 h 16.55859 v 4.48463 h -10.3491 v 4.13966 h 8.62424 v 4.139661 h -8.62424 v 4.82956 l 10.3491,-0.0277 v 4.51235 H 83.24486 Z m 19.66333,0 h 8.2256 c 9.63896,0 9.63896,3.45788 9.63896,6.7684 0,1.80718 -1.00834,3.315391 -2.54117,3.810691 2.54117,0.67087 3.1971,3.14622 3.1971,4.59963 0,6.89946 -6.10928,6.89036 -10.29489,6.89946 l -8.22584,-3e-4 z m 11.95202,15.178721 c 0,-1.86289 -1.43806,-2.41477 -3.72642,-2.41477 h -2.01623 v 4.82956 h 2.01623 c 2.28836,0 3.72642,-0.55188 3.72642,-2.41479 z m -0.58903,-8.410331 c 0,-1.53626 -1.16275,-2.28377 -3.13739,-2.28376 h -2.01636 v 4.56755 l 2.01636,-10e-6 c 1.97464,10e-6 3.1374,-0.7475 3.13739,-2.28378 z M 36.32861,83.882179 C 23.88677,82.561009 13.93352,81.840729 8.11871,81.840729 H 3.26105 l -0.19939,-1.8111 C 2.95202,79.033529 2.55405,73.095719 2.17728,66.834488 1.80043,60.573258 1.25189,51.491878 0.95808,46.653678 0.66408,41.815458 0.32853,32.827648 0.21198,26.680738 L 0,15.504558 l 1.61879,0.18233 c 1.74784,0.19696 5.34172,1.83081 6.81988,3.10036 0.90943,0.78106 0.91666,0.82549 1.14025,7.00457 l 0.22497,6.21849 -1.43377,0.69441 -1.43377,0.69442 7.19291,2.40131 7.1929,2.40128 0.0954,4.85413 c 0.0885,4.50347 0.0446,4.89985 -0.60371,5.48677 -0.82488,0.74651 -0.90995,2.46013 -0.17054,3.43762 0.87312,1.15438 0.52162,3.60378 -1.03012,7.17845 -0.23798,0.54839 0.008,0.60373 2.69483,0.60373 h 2.95689 l -0.6393,-1.49148 c -0.35167,-0.82029 -0.83187,-2.35182 -1.06721,-3.40342 -0.40243,-1.79759 -0.38132,-1.97501 0.35086,-2.96541 0.87671,-1.18578 0.78351,-2.22281 -0.31349,-3.48752 -0.60025,-0.6921 -0.67525,-1.28812 -0.65896,-5.23817 0.008,-2.45147 0.12182,-4.45722 0.24851,-4.45722 0.12671,0 1.15639,0.32934 2.28823,0.73205 1.13181,0.40243 9.63114,3.26958 18.88735,6.37106 l 16.82949,5.63902 10.25071,-3.29446 c 5.63793,-1.81193 17.77974,-5.70428 26.98181,-8.64963 9.20211,-2.94535 16.84745,-5.46297 16.98961,-5.59471 0.14214,-0.13157 -0.28465,-0.4359 -0.94869,-0.67597 l -1.20714,-0.43655 v -6.63141 -6.63145 l 2.22296,-1.46155 c 2.45362,-1.61314 4.58481,-2.47945 6.09968,-2.47945 h 0.99155 l -0.003,4.74335 c -0.004,9.45932 -1.26619,37.97452 -2.35706,53.280771 l -0.57279,8.03779 -7.41686,0.2201 c -8.38149,0.24893 -12.94872,0.59683 -26.71371,2.03535 -5.3007,0.55398 -9.68893,0.95593 -9.75158,0.89327 -0.17219,-0.17218 8.82557,-2.82187 13.5247,-3.98299 6.69204,-1.65355 12.0801,-2.48172 17.48476,-2.68749 l 5.06578,-0.19289 0.18883,-1.2475 c 0.61795,-4.08557 1.53034,-37.657011 1.0224,-37.619491 -0.16689,0.0122 -1.70077,0.51687 -3.40836,1.12116 l -3.10475,1.09872 -0.38497,11.72899 c -0.21158,6.45099 -0.49957,14.01877 -0.63959,16.817361 l -0.25462,5.08832 h -1.29883 c -4.22083,0 -19.15772,3.7946 -31.65905,8.04278 -1.94401,0.66062 -3.44582,1.05748 -3.3373,0.88193 0.53331,-0.86294 11.12327,-7.47205 15.10783,-9.4287 3.94211,-1.93575 5.85632,-2.59982 9.90619,-3.43652 l 0.89357,-0.18477 0.2274,-7.307271 c 0.27898,-8.95339 0.29604,-18.58006 0.0325,-18.58006 -0.10721,0 -4.18202,1.31211 -9.05547,2.91579 -4.87346,1.60369 -12.48453,4.07757 -16.91345,5.49754 l -8.05255,2.58178 -8.50603,-2.93837 c -16.05176,-5.545 -24.48844,-8.40171 -24.81278,-8.40171 -0.33624,0 -0.23025,19.36754 0.13157,24.061721 l 0.19289,2.50105 h 1.2034 c 2.68294,0 8.77653,2.62224 15.46882,6.65668 2.99621,1.80623 8.37787,5.36952 9.26725,6.13597 0.16406,0.14132 -1.85415,-0.43511 -4.48459,-1.28083 -12.19241,-3.91993 -24.1409,-6.96571 -29.69936,-7.5707 -2.07855,-0.22619 -2.15396,-0.26882 -2.31177,-1.3113 -0.0897,-0.5926 -0.32852,-7.364551 -0.53043,-15.048761 -0.20182,-7.68424 -0.45225,-14.91816 -0.55614,-16.07543 l -0.18883,-2.1041 -3.1365,-1.09071 c -1.72506,-0.59992 -3.20622,-1.02099 -3.2915,-0.93575 -0.20751,0.20751 0.60715,33.569171 0.89697,36.739981 l 0.22781,2.49204 3.79469,0.14579 c 6.96549,0.2676 19.88989,2.89938 29.3225,5.97054 3.76509,1.22585 3.67018,1.22602 -7.76184,0.0122 z m 18.28345,-0.36021 c 0,-0.97862 1.22939,-2.6208 2.42475,-3.23899 3.25832,-1.68489 7.4397,-1.33257 9.68799,0.81636 0.72426,0.69226 1.42565,1.72096 1.55864,2.28607 l 0.24163,1.02745 -1.10841,-0.93271 c -1.2045,-1.01351 -4.00967,-1.98459 -5.73283,-1.98459 -1.57939,0 -4.36861,0.90445 -5.81396,1.88527 -1.22569,0.83179 -1.25798,0.8354 -1.25798,0.1413 z m 5.17457,-51.093671 c -0.47431,-0.24933 -0.91244,-0.80198 -0.97359,-1.22809 -0.21482,-1.49732 3.51387,-2.28953 4.99415,-1.06102 0.61039,0.50655 0.59089,1.49078 -0.0406,2.01427 -0.76131,0.63179 -3.00676,0.78683 -3.98072,0.27492 z m 41.22403,-4.40918 -5.17457,-1.97716 -0.0934,-7.3443 c -0.0918,-7.22093 -0.08,-7.358432 0.68993,-8.186804 2.75312,-2.961638 9.40204,-5.389312 10.06054,-3.673273 0.30051,0.783263 0.24895,22.319357 -0.0544,22.776817 -0.17258,0.2603 -1.90228,-0.24812 -5.42802,-1.59528 z m -84.81714,-0.96669 c -0.27451,-3.24959 -0.27857,-19.292819 -0.004,-20.313479 0.17097,-0.636874 0.38011,-0.729786 1.28893,-0.572101 3.50076,0.607426 6.65311,2.173386 8.76801,4.355656 l 1.12848,1.164414 -0.0934,6.99304 -0.0934,6.99299 -5.38757,1.98033 -5.38761,1.98033 -0.21806,-2.58118 z M 84.797,21.985718 c -8.91366,-3.57934 -22.8953,-8.86129 -23.45798,-8.86194 -0.37929,-4e-4 -6.3311,2.12235 -13.22583,4.71729 -6.89476,2.59494 -12.60049,4.65343 -12.67948,4.57449 -0.0788,-0.0788 -0.24568,-5.15475 -0.37076,-11.279572 L 34.83554,0 35.66831,0.243249 c 1.09899,0.320807 5.79763,3.015608 7.93402,4.55046 l 1.69553,1.218093 v 5.487186 c 0,3.01792 0.10844,5.48718 0.24081,5.48718 0.13239,0 3.66414,-1.26773 7.8481,-2.81716 4.18396,-1.54946 7.76241,-2.815853 7.95218,-2.814224 0.26192,0.0024 10.9534,4.026044 15.43741,5.809974 0.56004,0.22295 0.60406,-0.16812 0.60877,-5.40251 l 0.004,-5.642663 1.9785,-1.462614 c 1.97326,-1.458663 6.45708,-3.938481 7.92927,-4.3853 0.77465,-0.235125 0.7762,-0.227408 0.7762,3.871681 0,8.627216 -0.44821,18.707616 -0.83106,18.690476 -0.20711,-0.008 -1.30777,-0.39066 -2.4462,-0.84795 z"
       id="path28"
       sodipodi:nodetypes="cccczccccccccczccccczcczccccccccccccccccccccccsccccccccccccccccscccccczcccczzcccczcscccccccsccccccscccsccccccsccccsccccccscccccsssscccsccccsscccccssccssccsscccccccccccssccccsccsssccscsccscccccssccccscccccccccscsccccssccccccssccc"
       inkscape:export-xdpi="96"
       inkscape:export-ydpi="96" />
  </g>
</svg>
