<?xml version="1.0" encoding="UTF-8" standalone="no"?>
<svg
   xmlns:dc="http://purl.org/dc/elements/1.1/"
   xmlns:cc="http://creativecommons.org/ns#"
   xmlns:rdf="http://www.w3.org/1999/02/22-rdf-syntax-ns#"
   xmlns:svg="http://www.w3.org/2000/svg"
   xmlns="http://www.w3.org/2000/svg"
   xmlns:sodipodi="http://sodipodi.sourceforge.net/DTD/sodipodi-0.dtd"
   xmlns:inkscape="http://www.inkscape.org/namespaces/inkscape"
   width="1586.89"
   height="1174.443"
   viewBox="0 0 419.86465 310.73805"
   version="1.1"
   id="svg8"
   inkscape:version="1.0.2 (e86c870879, 2021-01-15)"
   sodipodi:docname="book.svg">
  <defs
     id="defs2" />
  <sodipodi:namedview
     id="base"
     pagecolor="#ffffff"
     bordercolor="#666666"
     borderopacity="1.0"
     inkscape:pageopacity="0.0"
     inkscape:pageshadow="2"
     inkscape:zoom="0.24748737"
     inkscape:cx="1086.1955"
     inkscape:cy="201.87649"
     inkscape:document-units="mm"
     inkscape:current-layer="layer1"
     inkscape:document-rotation="0"
     showgrid="false"
     inkscape:window-width="1680"
     inkscape:window-height="987"
     inkscape:window-x="0"
     inkscape:window-y="29"
     inkscape:window-maximized="1"
     units="px"
     inkscape:snap-page="true"
     inkscape:snap-bbox="true"
     inkscape:bbox-paths="true"
     inkscape:bbox-nodes="true"
     inkscape:snap-bbox-edge-midpoints="true"
     inkscape:snap-bbox-midpoints="true"
     inkscape:object-paths="true"
     inkscape:snap-intersection-paths="true"
     inkscape:snap-smooth-nodes="true"
     inkscape:snap-object-midpoints="true"
     inkscape:snap-center="true"
     borderlayer="true"
     inkscape:showpageshadow="false"
     inkscape:snap-global="true" />
  <metadata
     id="metadata5">
    <rdf:RDF>
      <cc:Work
         rdf:about="">
        <dc:format>image/svg+xml</dc:format>
        <dc:type
           rdf:resource="http://purl.org/dc/dcmitype/StillImage" />
        <dc:title></dc:title>
      </cc:Work>
    </rdf:RDF>
  </metadata>
  <g
     inkscape:label="Capa 1"
     inkscape:groupmode="layer"
     id="layer1">
    <g
       id="g960"
       transform="matrix(0.36501336,0,0,0.36501336,135.26377,40.485776)">
      <path
         style="fill:#53a4ac;fill-opacity:1;stroke:none;stroke-width:0.264583px;stroke-linecap:butt;stroke-linejoin:miter;stroke-opacity:1"
         d="M 7.2998152,3.6602826 7.8930642,275.60021 399.38354,277.93767 405.6938,6.6762857 392.81766,-3.9378699 14.927726,-1.990943 Z"
         id="path863" />
      <path
         style="fill:#526475;fill-opacity:1;stroke-width:0.264583"
         d="m 201.00874,295.96695 c -2.44502,-0.37084 -6.49592,-1.81285 -8.80645,-3.13481 -1.08678,-0.62182 -2.98807,-2.00948 -4.22507,-3.08369 l -2.24911,-1.95313 -85.02999,-0.069 -85.029993,-0.0689 -2.10877,-0.6142 c -4.8262104,-1.40571 -8.4760404,-3.62707 -11.9477504,-7.27168 -3.54601,-3.72258 -5.58776,-7.73107 -6.56685,-12.89238 -0.36807,-1.94029 -0.41101,-15.53853 -0.41101,-130.1611 0,-140.7296071 -0.12736,-129.9883961 1.59782,-134.7561451 1.52734,-4.221007 4.82331,-8.645804 8.53568,-11.459053 2.13002,-1.6141339 6.3405504,-3.6271839 9.1810804,-4.3894669 l 2.24896,-0.603529 86.121873,-0.07899 c 60.94071,-0.05589 86.77944,0.0052 88.37083,0.208886 4.36001,0.558104 8.22266,2.086487 11.84954,4.6886489 1.06752,0.765913 2.02535,1.392569 2.12851,1.392569 0.10316,0 0.8996,-0.541288 1.76986,-1.202863 2.14081,-1.6274449 6.38477,-3.6782699 9.12292,-4.4084999 l 2.24896,-0.599769 86.33739,-0.07259 c 94.85291,-0.07975 89.07796,-0.173263 93.75248,1.518175 3.05642,1.105943 6.23025,3.1091339 8.77173,5.5363539 3.43054,3.276289 5.54279,6.69596497 6.99445,11.323739 l 0.72938,2.325243 0.0796,129.2489511 c 0.0588,95.47853 0,129.7552 -0.2208,131.18657 -0.7793,5.02642 -3.28017,9.91328 -6.99741,13.67322 -3.10978,3.14555 -7.22865,5.54604 -11.70402,6.82114 l -2.05947,0.58677 -85.02501,0.0689 -85.02506,0.069 -1.62601,1.48034 c -3.33844,3.03933 -7.32865,5.22121 -11.31148,6.18517 -2.6233,0.63492 -7.08133,0.87251 -9.49682,0.50612 z m -5.09191,-25.06491 c 0.26576,-0.16872 0.31858,-26.37999 0.26458,-131.29542 l -0.0675,-131.0846011 -0.63019,-1.394383 c -0.84595,-1.871806 -2.97167,-3.800488 -4.832,-4.384109 -1.31679,-0.413101 -7.49691,-0.439667 -87.40656,-0.375728 l -85.989573,0.0688 -1.40728,0.779569 c -1.71347,0.949183 -2.81515,2.162589 -3.72535,4.103149 l -0.68821,1.467282 V 136.44805 c 0,122.78301 0.0184,127.71424 0.48167,129.04263 0.93451,2.6797 3.57717,4.87109 6.45875,5.3558 1.64579,0.27686 177.106593,0.33176 177.541623,0.0556 z M 41.305263,228.67937 c -1.55879,-0.49131 -3.40645,-1.8448 -4.30889,-3.15646 -3.065276,-4.45523 -1.494156,-10.28934 3.38741,-12.57858 l 1.47809,-0.69316 h 36.11562 36.115617 l 1.5875,0.74143 c 2.06553,0.96469 3.35922,2.25301 4.24548,4.22787 1.85475,4.13294 0.0791,8.92615 -4.05958,10.95852 l -1.50881,0.74093 -35.983327,0.0508 c -28.80709,0.0407 -36.19987,-0.0174 -37.06911,-0.29138 z m 127.242877,-0.10174 c -1.93453,-0.69217 -3.35734,-1.70322 -4.27613,-3.03863 -3.07363,-4.46738 -1.56436,-10.14194 3.33502,-12.53898 1.16182,-0.56842 1.81611,-0.70475 3.38238,-0.70475 3.55726,0 6.57661,2.06959 7.8181,5.35886 0.72785,1.9284 0.61256,4.89261 -0.25598,6.58136 -1.93521,3.76275 -6.31242,5.66275 -10.00339,4.34214 z M 40.213763,186.18377 c -1.84136,-0.92014 -3.31622,-2.41733 -4.132436,-4.195 -0.42477,-0.92513 -0.56087,-1.73857 -0.55879,-3.33968 0.004,-2.76269 0.71333,-4.41522 2.660646,-6.19496 2.53225,-2.31433 -0.72434,-2.13942 39.83152,-2.13942 35.326147,0 35.949987,0.009 37.346247,0.53129 2.00427,0.74989 3.45195,2.09099 4.45369,4.12582 2.06506,4.19473 0.45597,8.90185 -3.81214,11.15177 l -1.38022,0.72758 -36.396777,0.0698 -36.39679,0.0698 z m 102.680977,0.26497 c -3.09808,-1.22833 -5.1101,-3.98618 -5.32763,-7.30249 -0.18262,-2.78431 0.40461,-4.31508 2.43169,-6.33879 1.8894,-1.88626 3.3435,-2.49405 5.95759,-2.49016 7.05985,0.0105 10.79166,8.50027 6.0862,13.84595 -2.18494,2.48223 -6.15191,3.47333 -9.14785,2.28549 z m 25.39363,0.045 c -7.14277,-2.46836 -7.52041,-12.39822 -0.5898,-15.5085 1.40315,-0.62969 1.87736,-0.71144 3.63736,-0.627 2.39714,0.11499 3.9879,0.79219 5.5646,2.36889 1.5767,1.5767 2.2539,3.16746 2.36889,5.5646 0.0844,1.75908 0.003,2.23449 -0.62544,3.63387 -1.80163,4.01456 -6.26281,5.98251 -10.35561,4.56814 z m -126.299417,-41.636 c -2.26053,-0.3863 -4.78079,-2.46523 -5.864756,-4.83778 -0.91771,-2.00864 -0.86474,-5.04224 0.12316,-7.05393 0.807716,-1.64477 2.197426,-3.04575 3.948946,-3.98096 l 1.1364,-0.60677 h 36.5125 36.512497 l 1.47282,0.69075 c 4.32644,2.02908 6.07538,6.94064 3.98412,11.1886 -0.99882,2.02888 -2.44882,3.3757 -4.43395,4.11844 -1.36621,0.51116 -2.26188,0.52569 -36.842117,0.59743 -19.49302,0.0404 -35.94035,-0.0117 -36.54962,-0.11578 z m 125.549997,-0.68219 c -1.80108,-0.86867 -3.36828,-2.45921 -4.19305,-4.25549 -0.42362,-0.92263 -0.56154,-1.74288 -0.56154,-3.33968 0,-1.59679 0.13792,-2.41705 0.56154,-3.33968 1.84033,-4.00812 6.49414,-5.97622 10.52966,-4.45301 2.08357,0.78644 3.842,2.45186 4.76842,4.51622 0.62801,1.39938 0.70983,1.87478 0.62544,3.63387 -0.22365,4.66214 -3.34202,7.73973 -8.02631,7.92136 -1.8866,0.0731 -2.28921,-0.001 -3.70416,-0.68359 z M 41.279743,102.62077 c -2.48972,-0.86553 -3.79626,-2.02218 -5.134406,-4.545415 -0.91046,-1.7168 -0.89678,-5.11681 0.0282,-7.00334 0.825676,-1.68401 2.426426,-3.28755 4.107746,-4.11491 l 1.31601,-0.64759 h 36.38021 36.380207 l 1.2371,0.57173 c 6.71072,3.1014 6.7819,12.26905 0.11918,15.347985 l -1.62087,0.74903 -35.718747,0.0604 c -33.85827,0.0573 -35.79041,0.0355 -37.09462,-0.4179 z M 143.84005,102.76 c -1.74618,-0.48704 -3.50901,-1.59946 -4.48258,-2.828675 -2.64097,-3.3345 -2.42058,-8.18618 0.50428,-11.10108 1.79366,-1.78755 3.41725,-2.47897 5.87508,-2.50194 1.79507,-0.0168 2.20489,0.0804 3.8265,0.90725 7.4751,3.81157 5.32121,14.878535 -3.05876,15.716265 -0.84067,0.084 -1.9659,0.003 -2.66452,-0.19182 z m 25.45752,0.0786 c -0.63348,-0.13141 -1.66528,-0.53985 -2.29288,-0.90765 -5.8961,-3.455335 -5.75498,-11.631575 0.25362,-14.695375 1.61882,-0.82544 2.03453,-0.92432 3.8265,-0.91023 1.62338,0.0127 2.29874,0.1544 3.50829,0.73572 2.82442,1.35746 4.47286,3.85414 4.65724,7.05368 0.20674,3.58773 -1.40109,6.408985 -4.5126,7.918235 -1.82897,0.88715 -3.70669,1.16522 -5.44017,0.80562 z M 40.687803,60.463825 c -1.74762,-0.67338 -3.78306,-2.61847 -4.590806,-4.38704 -0.86462,-1.89309 -0.81654,-4.99255 0.10804,-6.964107 0.881066,-1.878806 2.299936,-3.297674 4.178746,-4.178749 l 1.47809,-0.693161 h 36.11562 36.115617 l 1.46729,0.68821 c 2.07701,0.974202 3.28943,2.141387 4.24893,4.090408 2.03919,4.142169 0.29761,9.066869 -3.94282,11.149199 l -1.50881,0.74093 -36.115627,0.0543 c -36.09218,0.0543 -36.11655,0.054 -37.55427,-0.50001 z m 102.431417,0.094 c -1.75132,-0.62644 -3.11316,-1.70159 -4.21782,-3.32992 -1.10417,-1.6276 -1.46971,-3.03382 -1.34554,-5.17615 0.34541,-5.958992 6.5582,-9.515143 12.01147,-6.87526 3.7278,1.804596 5.55543,6.48721 4.06918,10.4257 -1.54057,4.08241 -6.46784,6.40409 -10.51729,4.95563 z m 26.00723,0.25343 c -4.89006,-1.27918 -7.65575,-6.40191 -5.94645,-11.014257 0.79491,-2.14494 3.01145,-4.359463 5.03857,-5.03397 5.64572,-1.878568 11.09483,2.05736 11.09413,8.013367 -2.7e-4,3.20331 -1.98902,6.21363 -4.9783,7.53593 -1.30912,0.57909 -3.93855,0.83099 -5.20795,0.49893 z M 390.68081,270.84345 c 2.97916,-0.48342 5.07013,-2.04632 6.35434,-4.74959 l 0.69131,-1.45521 V 136.58034 8.5220189 l -0.5655,-1.223011 c -0.77541,-1.677 -2.31455,-3.310362 -3.91562,-4.155354 l -1.33972,-0.707051 h -86.51875 -86.51876 l -1.1364,0.606772 c -2.60799,1.392518 -4.09119,3.448682 -4.56221,6.324608 -0.40177,2.4531151 -0.33947,261.0330171 0.063,261.4354771 0.42199,0.42199 174.85183,0.4613 177.44832,0.04 z M 243.47408,144.85092 c -1.34242,-0.27917 -2.39889,-0.87823 -3.75781,-2.13084 -4.37888,-4.0363 -3.25808,-11.15445 2.15992,-13.71762 l 1.59818,-0.75608 35.90727,-2.1e-4 35.90726,-2e-4 1.53128,0.56208 c 1.10932,0.4072 1.94024,0.97724 3.01543,2.06868 1.91034,1.93925 2.46536,3.47011 2.29912,6.3417 -0.14634,2.52779 -1.08675,4.41853 -2.91795,5.86677 -2.45348,1.94034 0.20971,1.81216 -39.28774,1.89096 -19.53162,0.039 -35.93635,-0.0174 -36.45496,-0.12524 z m 125.80967,-0.60243 c -5.25222,-2.48255 -6.66049,-8.90129 -2.89219,-13.18231 2.18779,-2.48546 5.97808,-3.45587 9.01652,-2.30846 1.89273,0.71474 3.7523,2.34349 4.66487,4.08582 0.61558,1.17523 0.7107,1.67232 0.71509,3.7368 0.006,2.78187 -0.53004,4.17703 -2.27499,5.922 -1.61803,1.61801 -3.16175,2.26043 -5.65743,2.35434 -1.82933,0.0688 -2.3142,-0.0137 -3.57187,-0.60819 z M 243.43009,102.85958 c -1.53706,-0.37127 -3.6399,-1.75948 -4.62811,-3.055295 -3.27102,-4.28918 -1.87513,-10.40934 2.91013,-12.75929 l 1.49768,-0.73548 H 279.59 315.97021 l 1.23552,0.5768 c 1.82711,0.85298 3.3773,2.38711 4.22955,4.1857 0.62098,1.3105 0.75226,1.93791 0.75242,3.59576 0,3.46293 -1.71913,6.076475 -5.0148,7.622275 l -1.46728,0.68821 -35.71875,0.0419 c -19.64531,0.023 -36.09586,-0.0492 -36.55678,-0.16055 z m 102.02245,-0.0996 c -3.86617,-1.07834 -6.05845,-3.788225 -6.27644,-7.758375 -0.10372,-1.88876 -0.0363,-2.33514 0.54446,-3.60363 1.50537,-3.28817 4.14792,-5.0453 7.62878,-5.07267 1.79197,-0.0141 2.20768,0.0848 3.82651,0.91023 6.22308,3.17317 6.07346,11.90458 -0.25591,14.934155 -1.6729,0.80074 -3.8645,1.03735 -5.4674,0.59029 z m 25.50964,0.0826 c -7.76475,-1.59008 -9.13185,-12.153915 -2.02541,-15.651045 1.56872,-0.77199 2.04073,-0.87974 3.78169,-0.86329 1.52736,0.0144 2.2964,0.16605 3.31216,0.65301 5.04987,2.42095 6.46663,8.76392 2.92333,13.088035 -1.71699,2.09536 -5.2742,3.32979 -7.99177,2.77329 z M 242.37809,60.492835 c -1.86117,-0.71843 -3.61751,-2.33677 -4.51126,-4.15679 -0.63821,-1.29966 -0.74193,-1.82771 -0.73874,-3.7609 0.003,-1.93363 0.1052,-2.442485 0.72758,-3.629178 0.96098,-1.832343 2.33819,-3.166782 4.14061,-4.012038 l 1.47809,-0.693161 H 279.59 315.70562 l 1.46728,0.68821 c 2.0489,0.961007 3.26982,2.121575 4.20888,4.000789 0.67326,1.347321 0.80613,1.925578 0.80613,3.508208 0,1.04224 -0.18954,2.45129 -0.42121,3.13121 -0.57491,1.68725 -2.44711,3.69556 -4.28768,4.5994 l -1.50881,0.74093 -36.11563,0.0543 c -35.4616,0.0533 -36.14027,0.0448 -37.47649,-0.47099 z m 102.69628,0.19757 c -3.62198,-1.19769 -5.95249,-4.29316 -5.95291,-7.9069 0,-3.469989 1.62211,-6.155653 4.60645,-7.624839 3.27827,-1.613892 6.79577,-1.029576 9.43131,1.566698 5.24105,5.162951 2.05875,13.727541 -5.27693,14.201871 -1.04915,0.0678 -2.17329,-0.027 -2.80792,-0.23683 z m 25.66459,0.12087 c -2.67248,-0.69909 -5.01415,-2.75215 -5.94133,-5.20906 -2.24258,-5.942733 2.89282,-12.242054 9.1499,-11.223689 6.47862,1.05442 9.21504,8.876159 4.84299,13.843069 -1.87659,2.13192 -5.43108,3.27517 -8.05156,2.58968 z"
         id="path861" />
      <path
         style="fill:#ffffff;fill-opacity:1;stroke-width:0.264583"
         d="m 41.30526,228.67937 c -1.55879,-0.49131 -3.40645,-1.8448 -4.30889,-3.15646 -3.06527,-4.45523 -1.49415,-10.28934 3.38741,-12.57858 l 1.47809,-0.69316 h 36.11562 36.11562 l 1.5875,0.74143 c 2.06553,0.96469 3.35922,2.25301 4.24548,4.22787 1.85475,4.13294 0.0791,8.92615 -4.05958,10.95852 l -1.50881,0.74093 -35.98333,0.0508 c -28.80709,0.0407 -36.19987,-0.0174 -37.06911,-0.29138 z m -1.0915,-42.4956 c -1.84136,-0.92014 -3.31622,-2.41733 -4.13243,-4.195 -0.42477,-0.92513 -0.56087,-1.73857 -0.55879,-3.33968 0.004,-2.76269 0.71333,-4.41522 2.66064,-6.19496 2.53225,-2.31433 -0.72434,-2.13942 39.83152,-2.13942 35.32615,0 35.94999,0.009 37.34625,0.53129 2.00427,0.74989 3.45195,2.09099 4.45369,4.12582 2.06506,4.19473 0.45597,8.90185 -3.81214,11.15177 l -1.38022,0.72758 -36.39678,0.0698 -36.39679,0.0698 z m 1.77519,-41.32603 c -2.26053,-0.3863 -4.78079,-2.46523 -5.86475,-4.83778 -0.91771,-2.00864 -0.86474,-5.04224 0.12316,-7.05393 0.80771,-1.64477 2.19742,-3.04575 3.94894,-3.98096 l 1.1364,-0.60677 h 36.5125 36.5125 l 1.47282,0.69075 c 4.32644,2.02908 6.07538,6.94064 3.98412,11.1886 -0.99882,2.02888 -2.44882,3.3757 -4.43395,4.11844 -1.36621,0.51116 -2.26188,0.52569 -36.84212,0.59743 -19.49302,0.0404 -35.94035,-0.0117 -36.54962,-0.11578 z m -0.70921,-42.23697 c -2.48972,-0.86553 -3.79626,-2.02218 -5.1344,-4.545415 -0.91046,-1.7168 -0.89678,-5.11681 0.0282,-7.00334 0.82567,-1.68401 2.42642,-3.28755 4.10774,-4.11491 l 1.31601,-0.64759 h 36.38021 36.38021 l 1.2371,0.57173 c 6.71072,3.1014 6.7819,12.26905 0.11918,15.347985 l -1.62087,0.74903 -35.71875,0.0604 c -33.85827,0.0573 -35.79041,0.0355 -37.09462,-0.4179 z M 40.6878,60.46382 C 38.94018,59.79044 36.90474,57.84535 36.097,56.07679 35.23238,54.1837 35.28046,51.08424 36.20504,49.11268 37.0861,47.23387 38.50497,45.815 40.38378,44.93393 l 1.47809,-0.69316 h 36.11562 36.11562 l 1.46729,0.68821 c 2.07701,0.9742 3.28943,2.14139 4.24893,4.09041 2.03919,4.14216 0.29761,9.06686 -3.94282,11.14919 l -1.50881,0.74093 -36.11563,0.0543 c -36.09218,0.0543 -36.11655,0.054 -37.55427,-0.50001 z"
         id="path861-9"
         sodipodi:nodetypes="ssscccssscssssscsscsscccscssscccsssscsssscccsscssssssscccssscsss" />
      <path
         style="fill:#e55e1a;fill-opacity:1;stroke-width:0.264583"
         d="m 168.54814,228.57763 c -1.93453,-0.69217 -3.35734,-1.70322 -4.27613,-3.03863 -3.07363,-4.46738 -1.56436,-10.14194 3.33502,-12.53898 1.16182,-0.56842 1.81611,-0.70475 3.38238,-0.70475 3.55726,0 6.57661,2.06959 7.8181,5.35886 0.72785,1.9284 0.61256,4.89261 -0.25598,6.58136 -1.93521,3.76275 -6.31242,5.66275 -10.00339,4.34214 z m -25.6534,-42.12889 c -3.09808,-1.22833 -5.1101,-3.98618 -5.32763,-7.30249 -0.18262,-2.78431 0.40461,-4.31508 2.43169,-6.33879 1.8894,-1.88626 3.3435,-2.49405 5.95759,-2.49016 7.05985,0.0105 10.79166,8.50027 6.0862,13.84595 -2.18494,2.48223 -6.15191,3.47333 -9.14785,2.28549 z m 25.39363,0.045 c -7.14277,-2.46836 -7.52041,-12.39822 -0.5898,-15.5085 1.40315,-0.62969 1.87736,-0.71144 3.63736,-0.627 2.39714,0.11499 3.9879,0.79219 5.5646,2.36889 1.5767,1.5767 2.2539,3.16746 2.36889,5.5646 0.0844,1.75908 0.003,2.23449 -0.62544,3.63387 -1.80163,4.01456 -6.26281,5.98251 -10.35561,4.56814 z m -0.74942,-42.31819 c -1.80108,-0.86867 -3.36828,-2.45921 -4.19305,-4.25549 -0.42362,-0.92263 -0.56154,-1.74288 -0.56154,-3.33968 0,-1.59679 0.13792,-2.41705 0.56154,-3.33968 1.84033,-4.00812 6.49414,-5.97622 10.52966,-4.45301 2.08357,0.78644 3.842,2.45186 4.76842,4.51622 0.62801,1.39938 0.70983,1.87478 0.62544,3.63387 -0.22365,4.66214 -3.34202,7.73973 -8.02631,7.92136 -1.8866,0.0731 -2.28921,-0.001 -3.70416,-0.68359 z M 143.84005,102.76 c -1.74618,-0.48704 -3.50901,-1.59946 -4.48258,-2.828675 -2.64097,-3.3345 -2.42058,-8.18618 0.50428,-11.10108 1.79366,-1.78755 3.41725,-2.47897 5.87508,-2.50194 1.79507,-0.0168 2.20489,0.0804 3.8265,0.90725 7.4751,3.81157 5.32121,14.878535 -3.05876,15.716265 -0.84067,0.084 -1.9659,0.003 -2.66452,-0.19182 z m 25.45752,0.0786 c -0.63348,-0.13141 -1.66528,-0.53985 -2.29288,-0.90765 -5.8961,-3.455335 -5.75498,-11.631575 0.25362,-14.695375 1.61882,-0.82544 2.03453,-0.92432 3.8265,-0.91023 1.62338,0.0127 2.29874,0.1544 3.50829,0.73572 2.82442,1.35746 4.47286,3.85414 4.65724,7.05368 0.20674,3.58773 -1.40109,6.408985 -4.5126,7.918235 -1.82897,0.88715 -3.70669,1.16522 -5.44017,0.80562 z M 143.11922,60.557825 c -1.75132,-0.62644 -3.11316,-1.70159 -4.21782,-3.32992 -1.10417,-1.6276 -1.46971,-3.03382 -1.34554,-5.17615 0.34541,-5.958992 6.5582,-9.515143 12.01147,-6.87526 3.7278,1.804596 5.55543,6.48721 4.06918,10.4257 -1.54057,4.08241 -6.46784,6.40409 -10.51729,4.95563 z m 26.00723,0.25343 c -4.89006,-1.27918 -7.65575,-6.40191 -5.94645,-11.014257 0.79491,-2.14494 3.01145,-4.359463 5.03857,-5.03397 5.64572,-1.878568 11.09483,2.05736 11.09413,8.013367 -2.7e-4,3.20331 -1.98902,6.21363 -4.9783,7.53593 -1.30912,0.57909 -3.93855,0.83099 -5.20795,0.49893 z"
         id="path861-3"
         sodipodi:nodetypes="sssssssssssssssssscscssssssscsssssssssssssssssssssssssss" />
      <path
         style="fill:#ffffff;fill-opacity:1;stroke-width:0.264583"
         d="m 243.47409,144.85093 c -1.34242,-0.27917 -2.39889,-0.87823 -3.75781,-2.13085 -4.37888,-4.0363 -3.25808,-11.15444 2.15992,-13.71762 l 1.59818,-0.75608 35.90727,-2.1e-4 35.90726,-2e-4 1.53128,0.56208 c 1.10932,0.4072 1.94024,0.97724 3.01543,2.06868 1.91034,1.93925 2.46536,3.47011 2.29912,6.3417 -0.14634,2.52779 -1.08675,4.41853 -2.91795,5.86677 -2.45348,1.94034 0.20971,1.81216 -39.28774,1.89096 -19.53162,0.039 -35.93635,-0.0174 -36.45496,-0.12523 z m -0.044,-41.99134 c -1.53706,-0.37127 -3.6399,-1.75948 -4.62811,-3.055305 -3.27102,-4.28918 -1.87513,-10.40934 2.91013,-12.75929 l 1.49768,-0.73548 H 279.59 315.97021 l 1.23552,0.5768 c 1.82711,0.85298 3.3773,2.38711 4.22955,4.1857 0.62098,1.3105 0.75226,1.93791 0.75242,3.59576 0,3.46293 -1.71913,6.076485 -5.0148,7.622275 l -1.46728,0.68821 -35.71875,0.0419 c -19.64531,0.023 -36.09586,-0.0492 -36.55678,-0.16055 z m -1.052,-42.366755 c -1.86117,-0.71843 -3.61751,-2.33677 -4.51126,-4.156795 -0.63821,-1.29966 -0.74193,-1.82771 -0.73874,-3.7609 0.003,-1.93363 0.1052,-2.44248 0.72758,-3.62917 0.96098,-1.83235 2.33819,-3.16679 4.14061,-4.01204 l 1.47809,-0.69316 H 279.59 315.70562 l 1.46728,0.68821 c 2.0489,0.961 3.26982,2.12157 4.20888,4.00079 0.67326,1.34732 0.80613,1.92557 0.80613,3.5082 0,1.04224 -0.18954,2.45129 -0.42121,3.13121 -0.57491,1.68725 -2.44711,3.695565 -4.28768,4.599405 l -1.50881,0.74093 -36.11563,0.0543 c -35.4616,0.0533 -36.14027,0.0448 -37.47649,-0.47099 z"
         id="path861-6"
         sodipodi:nodetypes="ssscccssssssssscccsscscssssscsscccssssscsss" />
      <path
         style="fill:#e55e1a;fill-opacity:1;stroke-width:0.264583"
         d="m 369.28375,144.24849 c -5.25222,-2.48255 -6.66049,-8.90129 -2.89219,-13.18231 2.18779,-2.48546 5.97808,-3.45587 9.01652,-2.30846 1.89273,0.71474 3.7523,2.34349 4.66487,4.08582 0.61558,1.17523 0.7107,1.67232 0.71509,3.7368 0.006,2.78187 -0.53004,4.17703 -2.27499,5.922 -1.61803,1.61801 -3.16175,2.26043 -5.65743,2.35434 -1.82933,0.0688 -2.3142,-0.0137 -3.57187,-0.60819 z m -23.83121,-41.48851 c -3.86617,-1.07834 -6.05845,-3.78822 -6.27644,-7.75837 -0.10372,-1.88876 -0.0363,-2.33514 0.54446,-3.60363 1.50537,-3.28817 4.14792,-5.0453 7.62878,-5.07267 1.79197,-0.0141 2.20768,0.0848 3.82651,0.91023 6.22308,3.17317 6.07346,11.90458 -0.25591,14.93415 -1.6729,0.80074 -3.8645,1.03735 -5.4674,0.59029 z m 25.50964,0.0826 c -7.76475,-1.59008 -9.13185,-12.15391 -2.02541,-15.65104 1.56872,-0.77199 2.04073,-0.87974 3.78169,-0.86329 1.52736,0.0144 2.2964,0.16605 3.31216,0.653 5.04987,2.42096 6.46663,8.76393 2.92333,13.08804 -1.71699,2.09536 -5.2742,3.32979 -7.99177,2.77329 z M 345.07437,60.69041 c -3.62198,-1.197687 -5.95249,-4.293157 -5.95291,-7.906897 0,-3.46999 1.62211,-6.15566 4.60645,-7.62484 3.27827,-1.6139 6.79577,-1.02958 9.43131,1.56669 5.24105,5.16296 2.05875,13.727547 -5.27693,14.201877 -1.04915,0.0678 -2.17329,-0.027 -2.80792,-0.23683 z m 25.66459,0.12087 c -2.67248,-0.699087 -5.01415,-2.752147 -5.94133,-5.209057 -2.24258,-5.94274 2.89282,-12.24206 9.1499,-11.22369 6.47862,1.05442 9.21504,8.87616 4.84299,13.84307 -1.87659,2.131917 -5.43108,3.275167 -8.05156,2.589677 z"
         id="path861-8"
         sodipodi:nodetypes="sssssssssssssssssssssscsssssssss" />
    </g>
    <g
       id="g864"
       transform="matrix(0.60959397,0,0,0.60959397,-100.39353,312.79704)">
      <path
         style="fill:#ffffff;fill-opacity:1;stroke:none;stroke-width:0.264583px;stroke-linecap:butt;stroke-linejoin:miter;stroke-opacity:1"
         d="m 416.5868,-192.14537 -2.31744,28.40166 5.72556,20.49463 0.70575,14.67666 -5.39295,11.3869 -6.55955,8.85211 -1.66658,9.683092 3.97661,12.829556 76.73003,24.754503 9.31209,0.465365 53.10553,-11.257742 37.54512,-10.133381 3.8895,-6.042014 0.36283,-20.573839 5.49092,-12.29938 4.61899,-12.76453 0.50617,-14.2155 -4.59316,-10.31479 -0.62878,-12.76188 0.18452,-12.38327 1.4265,-7.83115 -114.89531,-10.86286 z"
         id="path857" />
      <path
         style="fill:#526475;fill-opacity:1;stroke-width:0.264583"
         d="m 486.97707,-54.88027 c -2.03729,-0.69981 -4.12089,-1.39011 -4.63021,-1.53401 -0.50932,-0.14389 -1.75948,-0.55459 -2.77813,-0.91266 -1.01864,-0.35807 -3.45942,-1.15094 -5.42395,-1.76192 -1.96453,-0.61098 -3.9886,-1.26555 -4.49792,-1.4546 -0.50932,-0.18905 -1.75948,-0.60635 -2.77813,-0.92733 -1.01864,-0.32098 -2.2688,-0.73811 -2.77812,-0.92694 -0.50932,-0.18884 -1.81901,-0.60545 -2.91042,-0.9258 -1.0914,-0.32034 -2.40109,-0.73633 -2.91041,-0.92441 -0.50933,-0.18809 -3.06917,-1.02571 -5.68855,-1.86139 -2.61937,-0.83567 -5.17921,-1.67417 -5.68854,-1.86333 -0.50932,-0.18916 -1.81901,-0.60602 -2.91041,-0.92637 -1.09141,-0.32035 -2.4011,-0.7381 -2.91042,-0.92834 -0.50932,-0.19024 -1.75948,-0.61087 -2.77812,-0.93473 -1.01865,-0.32386 -2.26881,-0.73954 -2.77813,-0.92374 -0.50932,-0.1842 -1.81901,-0.59701 -2.91042,-0.91736 -1.0914,-0.32035 -2.40109,-0.73633 -2.91041,-0.9244 -0.50933,-0.18807 -3.78355,-1.25797 -7.27604,-2.37755 -3.49251,-1.11959 -6.741,-2.20171 -7.21888,-2.40472 -0.47788,-0.20302 -0.99678,-0.36912 -1.15311,-0.36912 -0.63199,0 -3.65372,-2.72795 -4.89231,-4.41667 -1.33783,-1.82403 -3.05805,-5.42167 -3.5179,-7.35729 -0.13828,-0.58208 -0.37215,-1.53458 -0.5197,-2.11666 -0.14755,-0.58209 -0.34191,-1.74294 -0.43191,-2.57969 -0.09,-0.83674 -0.27414,-1.52135 -0.40919,-1.52135 -0.14321,0 -0.24555,-2.31568 -0.24555,-5.55625 0,-3.35197 0.10021,-5.55625 0.2526,-5.55625 0.13892,0 0.32178,-0.44649 0.40635,-0.99219 0.48043,-3.10011 2.29918,-7.18429 4.03544,-9.06198 0.90194,-0.97541 0.6898,-1.65514 -0.59335,-1.90114 -0.58208,-0.11159 -1.74294,-0.41408 -2.57968,-0.67218 -1.32332,-0.4082 -1.52091,-0.55539 -1.51796,-1.13079 0.003,-0.51797 0.37081,-0.90553 1.69649,-1.786 0.9312,-0.61846 1.78505,-1.12447 1.89744,-1.12447 0.11239,0 0.68843,-0.21872 1.28008,-0.48603 1.63483,-0.73864 3.77185,-1.50969 5.97051,-2.15419 2.71321,-0.79533 3.90913,-1.32071 4.09219,-1.79774 0.085,-0.22159 0.22881,-2.03416 0.3195,-4.02792 0.27284,-5.99779 -0.47724,-10.09328 -2.47898,-13.53532 -1.0377,-1.78437 -2.06825,-2.7013 -4.04009,-3.59467 -4.33397,-1.96357 -5.02093,-2.48859 -5.2225,-3.99143 -0.0988,-0.73629 -0.0179,-1.28939 0.24759,-1.6941 0.40036,-0.61026 0.81846,-0.7727 6.02396,-2.34035 3.63938,-1.09601 3.79099,-1.24703 2.58837,-2.57818 -0.88994,-0.98506 -3.10738,-4.5234 -3.12652,-4.98895 -0.005,-0.12013 -0.23902,-0.69467 -0.52019,-1.27675 -0.28116,-0.58208 -0.51525,-1.22095 -0.52019,-1.4197 -0.005,-0.19875 -0.18159,-0.91312 -0.39257,-1.5875 -1.46394,-4.67929 -1.81366,-13.39365 -0.7276,-18.13005 1.09941,-4.79461 3.03927,-8.10761 6.11319,-10.44043 2.93945,-2.23077 5.01742,-2.8101 13.78342,-3.84277 0.50933,-0.06 2.59292,-0.35123 4.63021,-0.64718 2.03729,-0.29594 4.65667,-0.66927 5.82083,-0.82963 14.02137,-1.93134 15.61973,-2.15575 17.99167,-2.52604 1.30969,-0.20446 2.97656,-0.4386 3.70417,-0.52032 1.57016,-0.17635 6.14647,-0.80382 9.65729,-1.32415 1.38245,-0.20489 3.10885,-0.44041 3.83646,-0.52337 1.93071,-0.22014 6.7829,-0.91125 9.525,-1.35666 1.30969,-0.21273 3.48218,-0.49619 4.82777,-0.62991 1.3456,-0.13371 2.54379,-0.30322 2.66266,-0.37669 0.11887,-0.0735 1.45872,-0.2593 2.97743,-0.41297 1.51872,-0.15367 3.35662,-0.39452 4.08422,-0.53522 1.45146,-0.28069 6.60946,-1.0039 9.525,-1.33552 1.01865,-0.11586 2.98318,-0.39058 4.36563,-0.61049 2.46365,-0.39189 4.20692,-0.63638 9.78958,-1.37295 4.09522,-0.54031 6.71873,-0.91269 9.42548,-1.33783 3.08238,-0.48414 5.2121,-0.48276 6.7141,0.004 2.0695,0.67114 13.8822,4.23864 19.05,5.7532 0.94589,0.27722 2.07698,0.62511 2.51354,0.7731 0.43657,0.14799 1.32954,0.42677 1.98438,0.61951 0.65484,0.19274 2.02406,0.60487 3.04271,0.91584 1.01864,0.31097 2.50693,0.75639 3.30729,0.98981 2.29413,0.66908 5.67366,1.68044 8.73125,2.61293 1.64926,0.50298 4.44739,1.35088 6.41615,1.94425 0.9095,0.27411 2.78474,0.81916 4.16718,1.21122 1.38245,0.39206 2.8112,0.83719 3.175,0.98918 0.36381,0.15198 1.25677,0.43228 1.98438,0.62287 0.7276,0.1906 2.75166,0.78579 4.49791,1.32265 3.69739,1.13669 6.03973,1.83512 8.06242,2.40401 2.85969,0.80429 3.43609,1.43818 3.07209,3.37848 -0.1926,1.02662 -1.2272,1.93066 -3.22694,2.81974 -2.86196,1.27241 -3.68007,1.74278 -4.59749,2.64332 -2.90055,2.84716 -4.23149,8.18148 -3.87838,15.54427 0.0929,1.93646 0.2839,3.73582 0.42452,3.99856 0.14899,0.27839 1.0603,0.72918 2.1841,1.08038 3.68601,1.15194 4.8516,1.55929 7.08781,2.47706 4.11869,1.69036 5.55625,2.6381 5.55625,3.66308 0,0.54746 -0.24042,0.72503 -1.65365,1.22137 -0.9095,0.31942 -1.89177,0.57919 -2.18281,0.57725 -0.29104,-0.002 -1.3626,0.22727 -2.38125,0.50933 -1.01864,0.28207 -2.42847,0.65814 -3.13294,0.83572 -1.55365,0.39164 -1.77935,0.83899 -0.89692,1.77777 1.06365,1.13157 2.5815,4.6587 3.19568,7.42608 0.73144,3.2957 0.77662,10.6726 0.0844,13.79094 -0.24225,1.0914 -0.44056,2.27363 -0.44068,2.62718 -2.2e-4,0.66896 -0.85229,3.50843 -1.48641,4.95343 -0.20124,0.45855 -0.36589,0.91399 -0.36589,1.01207 0,0.63357 -2.50756,4.25195 -3.91356,5.64723 -0.92678,0.91972 -1.62877,1.81269 -1.55999,1.98438 0.0688,0.17169 1.04013,0.59249 2.15855,0.93512 1.66981,0.51154 2.12425,0.7718 2.54096,1.45521 0.27912,0.45774 0.50793,0.96347 0.50847,1.12385 0.003,0.91848 -2.67623,3.51135 -3.65399,3.53607 -0.88615,0.0224 -3.38105,1.46337 -4.53961,2.62194 -2.23824,2.23823 -3.31913,5.09753 -3.85584,10.19992 -0.25771,2.4499 -0.28893,3.99547 -0.10965,5.42656 0.13788,1.10054 0.28116,2.47399 0.3184,3.05209 0.0634,0.98439 0.14328,1.07894 1.25835,1.48998 2.29221,0.84496 3.05182,1.08337 4.20513,1.31983 0.63934,0.13108 1.29418,0.33344 1.45521,0.44967 0.16103,0.11624 1.00716,0.48 1.88028,0.80835 3.94815,1.48477 6.41643,3.18349 6.0423,4.15844 -0.19087,0.49741 -1.25366,1.05298 -2.47042,1.2914 -0.83916,0.16443 -4.96225,1.15568 -15.47813,3.72117 -2.03729,0.49703 -5.72823,1.38527 -8.20208,1.97386 -2.47386,0.5886 -5.15276,1.23983 -5.95313,1.44718 -0.80036,0.20735 -2.22911,0.55926 -3.175,0.78201 -3.71417,0.8747 -10.79098,2.5784 -12.17083,2.93006 -0.80036,0.20398 -2.52677,0.62439 -3.83646,0.93425 -1.30969,0.30986 -3.03609,0.73181 -3.83646,0.93766 -0.80036,0.20586 -3.24114,0.79302 -5.42396,1.3048 -2.18281,0.51178 -4.86171,1.1558 -5.95312,1.43116 -3.73807,0.94311 -5.37459,1.33752 -9.26042,2.23179 -2.0907,0.48114 -6.22307,1.5026 -9.26041,2.28902 -0.65485,0.16955 -1.905,0.46178 -2.77813,0.6494 -0.87312,0.18762 -2.06375,0.47247 -2.64583,0.633 -0.58209,0.16053 -2.1299,0.54291 -3.43958,0.84972 -3.01092,0.70536 -4.96889,1.1802 -6.4823,1.57205 -0.65484,0.16955 -1.905,0.46485 -2.77812,0.65622 -2.04377,0.44796 -3.9278,0.91592 -5.42396,1.34723 -0.65484,0.18878 -1.84547,0.4628 -2.64583,0.60895 -0.80037,0.14615 -1.79038,0.39377 -2.20004,0.55028 -1.43024,0.54641 -3.36124,0.26394 -7.19267,-1.05215 z m 5.2766,-10.66124 c 0.26374,-1.67194 0.62452,-23.32359 0.39576,-23.75104 -0.12779,-0.23878 -1.09916,-0.7042 -2.15861,-1.03428 -2.35797,-0.73463 -5.59252,-1.79556 -6.37448,-2.09082 -0.31837,-0.12022 -2.00761,-0.66716 -3.75386,-1.21542 -1.74625,-0.54827 -4.30609,-1.37795 -5.68854,-1.84373 -1.38244,-0.46578 -4.12088,-1.36041 -6.08541,-1.98806 -5.76534,-1.84197 -6.53351,-2.09281 -7.18581,-2.34649 -0.34067,-0.13249 -2.22675,-0.74627 -4.19128,-1.36396 -1.96453,-0.61769 -3.94705,-1.28559 -4.40561,-1.48421 -0.45855,-0.19862 -1.02006,-0.36113 -1.24779,-0.36113 -0.22773,0 -0.80505,-0.16593 -1.28293,-0.36874 -0.47788,-0.2028 -3.012,-1.05112 -5.63138,-1.88516 -2.61937,-0.83403 -5.17921,-1.66961 -5.68854,-1.85684 -1.23535,-0.45411 -6.80543,-2.24727 -7.80521,-2.51271 -0.43656,-0.1159 -1.8048,-0.57805 -3.04053,-1.02698 -1.23573,-0.44893 -2.44647,-0.81624 -2.69054,-0.81624 -0.24406,0 -0.78082,-0.16983 -1.1928,-0.37741 -0.41197,-0.20757 -2.12129,-0.80523 -3.79847,-1.32814 -2.95282,-0.92062 -3.08945,-0.9387 -4.31228,-0.57068 -0.69457,0.20903 -1.53749,0.56001 -1.87315,0.77994 -1.01611,0.66579 -2.42317,3.10572 -2.9227,5.06816 -1.14123,4.48344 -0.65476,12.50369 1.03354,17.03971 0.59112,1.58817 2.15093,3.88418 3.16335,4.6564 0.77178,0.58866 2.53427,1.23211 5.844,2.13352 1.50867,0.41089 4.66395,1.29603 6.61458,1.85556 0.72761,0.2087 1.79917,0.48731 2.38126,0.61911 0.58208,0.1318 1.41552,0.36054 1.85208,0.50832 0.71519,0.24208 1.97587,0.60564 6.08542,1.75492 1.88549,0.5273 5.0678,1.42195 6.61458,1.85957 0.7276,0.20586 2.21588,0.61993 3.30729,0.92016 1.09141,0.30024 2.57969,0.7203 3.30729,0.93347 0.72761,0.21317 2.21589,0.63068 3.30729,0.9278 1.09141,0.29712 2.57969,0.7105 3.3073,0.91862 0.7276,0.20812 2.21588,0.62405 3.30729,0.92428 1.0914,0.30023 2.57968,0.71695 3.30729,0.92604 0.7276,0.20909 2.21588,0.62581 3.30729,0.92604 1.09141,0.30024 2.57969,0.71501 3.30729,0.92172 0.72761,0.20671 2.21589,0.62954 3.30729,0.93962 1.95797,0.55627 2.7103,0.76618 6.61459,1.84555 1.0914,0.30173 2.75828,0.77083 3.70416,1.04244 0.94589,0.27162 2.4937,0.69873 3.43959,0.94913 0.94588,0.2504 2.01744,0.54275 2.38125,0.64966 0.94864,0.27877 1.29058,0.0704 1.44014,-0.8777 z m 6.76194,0.62929 c 0.65484,-0.1341 2.38125,-0.56229 3.83646,-0.95153 1.45521,-0.38924 3.12208,-0.80427 3.70416,-0.92227 0.58209,-0.11801 2.24896,-0.53456 3.70417,-0.92566 1.45521,-0.39111 3.12209,-0.79982 3.70417,-0.90825 1.07831,-0.20087 3.44129,-0.79649 5.82083,-1.46722 0.72761,-0.20509 1.91823,-0.5022 2.64583,-0.66025 2.51176,-0.5456 4.23649,-0.96555 5.15938,-1.25623 0.50932,-0.16043 1.52135,-0.42671 2.24896,-0.59174 2.48114,-0.56277 4.23219,-0.98707 5.29166,-1.28226 1.74644,-0.4866 7.58883,-1.92954 8.84046,-2.1834 0.64215,-0.13025 1.77324,-0.40756 2.51354,-0.61625 1.68095,-0.47387 3.63863,-0.97973 7.696,-1.98867 1.74625,-0.43423 3.41313,-0.84921 3.70417,-0.92218 5.92973,-1.4866 7.39246,-1.84661 8.73125,-2.14895 2.28298,-0.51557 4.20737,-0.99505 8.99583,-2.24143 2.32834,-0.60604 4.94771,-1.25193 5.82084,-1.43533 1.54065,-0.3236 2.26259,-0.50745 5.51769,-1.40514 0.85191,-0.23493 1.60458,-0.57216 1.67258,-0.74938 0.068,-0.17722 0.0151,-1.85126 -0.11768,-3.72007 -0.45835,-6.45315 0.13711,-11.62733 1.82932,-15.89572 0.49746,-1.2548 0.0718,-1.57129 -1.40497,-1.04472 -0.63082,0.22493 -1.68272,0.47652 -2.33757,0.5591 -1.12423,0.14177 -2.04766,0.32907 -6.48229,1.31478 -1.01864,0.22642 -2.56646,0.5325 -3.43958,0.68017 -0.87313,0.14768 -2.65906,0.51372 -3.96875,0.81344 -1.30969,0.29972 -2.97656,0.65528 -3.70417,0.79013 -1.82058,0.33741 -4.9374,0.98886 -7.08737,1.48132 -0.98764,0.22623 -2.41639,0.50864 -3.175,0.62759 -0.75861,0.11895 -2.45086,0.45395 -3.76055,0.74444 -1.30968,0.29049 -3.09562,0.66238 -3.96875,0.82643 -0.87312,0.16405 -2.3614,0.46479 -3.30729,0.66832 -3.45533,0.74349 -6.7843,1.43605 -8.33437,1.73388 -0.87313,0.16777 -2.36141,0.4746 -3.30729,0.68186 -0.94589,0.20726 -2.55337,0.53563 -3.57218,0.72972 -1.01881,0.19408 -2.92381,0.71039 -4.23333,1.14735 -1.30952,0.43696 -3.09533,1.01126 -3.96845,1.27623 -0.87313,0.26498 -2.16022,0.71787 -2.8602,1.00642 -1.15495,0.47611 -1.43647,0.49455 -3.04271,0.19923 -1.76167,-0.32388 -4.21781,-0.0728 -7.42895,0.75948 -1.46179,0.37887 -6.29043,1.37507 -11.00774,2.27101 -1.20008,0.22793 -2.30823,0.59959 -2.56234,0.85937 -0.39703,0.4059 -0.48238,1.78493 -0.75356,12.17707 -0.1682,6.44564 -0.23409,11.90626 -0.14642,12.13471 0.10962,0.28568 0.34426,0.36277 0.75149,0.24689 0.32565,-0.0927 1.12788,-0.27819 1.78272,-0.41229 z m 16.27068,-42.08131 c -5.3e-4,-1.67122 -0.107,-7.11345 -0.23633,-12.09385 -0.20219,-7.78632 -0.29472,-9.10833 -0.66027,-9.43394 -0.23381,-0.20827 -1.1395,-0.5042 -2.01262,-0.65761 -0.87313,-0.15341 -2.24235,-0.41335 -3.04271,-0.57764 -4.11377,-0.84443 -6.63094,-1.38796 -7.99965,-1.72739 -0.83455,-0.20695 -1.76514,-0.37628 -2.06798,-0.37628 -0.30284,0 -1.64409,-0.24279 -2.98056,-0.53953 -1.33646,-0.29674 -3.3229,-0.72049 -4.41431,-0.94166 -1.09141,-0.22116 -3.05594,-0.62815 -4.36563,-0.90441 -1.30968,-0.27626 -3.27421,-0.68251 -4.36562,-0.90278 -2.11842,-0.42754 -6.07989,-1.24864 -8.46667,-1.7549 -0.80036,-0.16976 -2.28864,-0.45687 -3.30729,-0.63801 -1.01864,-0.18114 -2.38786,-0.45787 -3.04271,-0.61495 -0.65484,-0.15708 -2.08359,-0.46616 -3.175,-0.68685 -1.0914,-0.22069 -3.11547,-0.64535 -4.49791,-0.94367 -4.02398,-0.86837 -10.33757,-2.15656 -11.77396,-2.4023 -0.72761,-0.12448 -2.75167,-0.53245 -4.49792,-0.90661 -5.01715,-1.07498 -12.32313,-2.57439 -13.62604,-2.79647 -0.65484,-0.11162 -2.61938,-0.52764 -4.36562,-0.92448 -5.21269,-1.18461 -5.93539,-1.15113 -5.02851,0.23294 1.56531,2.38897 2.52494,10.55136 1.88249,16.01201 -0.21177,1.79999 -0.324,3.43176 -0.2494,3.62615 0.13017,0.33923 1.84046,0.92601 3.79229,1.30111 0.50932,0.0979 1.52135,0.34186 2.24896,0.54218 2.00896,0.55308 7.80046,2.0075 8.99583,2.25912 0.58209,0.12252 2.24896,0.53241 3.70417,0.91085 3.01013,0.78281 4.79105,1.21806 7.32356,1.78983 0.97202,0.21946 1.88452,0.47145 2.02777,0.55999 0.14325,0.0885 1.07437,0.3309 2.06915,0.53859 0.99478,0.2077 2.76118,0.63014 3.92535,0.93877 1.16417,0.30862 2.65003,0.67529 3.30191,0.8148 1.09639,0.23465 1.7978,0.40898 5.82622,1.44806 0.80036,0.20645 2.16958,0.54978 3.0427,0.76296 2.04,0.49809 6.72559,1.65926 8.59896,2.13098 0.80037,0.20153 2.34818,0.61312 3.43959,0.91465 1.0914,0.30152 2.20652,0.54785 2.47803,0.54739 0.27151,-5.3e-4 1.04541,0.17429 1.71979,0.38835 0.67437,0.21406 2.17863,0.62612 3.3428,0.9157 1.16417,0.28957 3.60495,0.9019 5.42396,1.36073 1.81901,0.45882 3.78354,0.92849 4.36562,1.04371 1.54073,0.30498 9.31812,2.25629 12.7,3.18638 4.12982,1.13579 3.96899,1.23315 3.96756,-2.40192 z m 8.46786,2.23187 c 1.16417,-0.33925 2.59292,-0.74985 3.175,-0.91245 0.58208,-0.1626 1.89177,-0.52943 2.91042,-0.81519 1.01864,-0.28575 2.44739,-0.68175 3.175,-0.88001 0.7276,-0.19825 2.21588,-0.61427 3.30729,-0.9245 2.76679,-0.78645 4.29776,-1.21445 6.74687,-1.88618 1.16417,-0.3193 2.56557,-0.74408 3.11421,-0.94394 0.54865,-0.19987 1.26303,-0.36862 1.5875,-0.375 0.32448,-0.006 1.06621,-0.1943 1.6483,-0.41757 0.58208,-0.22328 1.47505,-0.50885 1.98437,-0.6346 1.09272,-0.26979 5.39186,-1.45886 7.27604,-2.01242 0.72761,-0.21377 1.8587,-0.51093 2.51354,-0.66035 0.65485,-0.14943 1.56581,-0.4414 2.02436,-0.64882 0.45856,-0.20742 1.08123,-0.37713 1.38371,-0.37713 0.30249,0 0.99887,-0.16316 1.54752,-0.36257 0.54864,-0.19941 2.00957,-0.62751 3.2465,-0.95133 1.23692,-0.32382 2.78474,-0.74991 3.43958,-0.94688 2.95894,-0.89001 13.69213,-3.89823 19.68547,-5.5173 1.80098,-0.48653 2.94342,-0.96401 3.65505,-1.52763 0.99621,-0.78902 2.84366,-3.23379 2.86221,-3.78763 0.005,-0.14747 0.23902,-0.74437 0.52019,-1.32645 0.28116,-0.58209 0.51525,-1.31126 0.52019,-1.62038 0.005,-0.30913 0.18757,-1.06824 0.40585,-1.68691 0.30387,-0.86127 0.39687,-2.41103 0.39687,-6.61338 0,-5.69328 -0.21701,-7.1318 -1.42965,-9.4768 -0.52278,-1.01093 -1.8459,-2.33225 -2.86119,-2.85728 -0.91892,-0.47518 -3.23276,-0.3955 -4.70499,0.16204 -0.86211,0.32649 -2.26232,0.81634 -4.49792,1.57355 -0.50932,0.17251 -1.49159,0.48435 -2.18281,0.69297 -3.6533,1.10262 -8.13892,2.55986 -9.72344,3.15885 -1.45225,0.54899 -3.48463,1.20343 -4.49791,1.44835 -0.50933,0.12311 -1.75948,0.51669 -2.77813,0.87462 -1.01864,0.35794 -3.45943,1.15723 -5.42396,1.77622 -1.96453,0.61898 -3.98859,1.28061 -4.49791,1.47029 -0.50933,0.18967 -3.78355,1.25787 -7.27605,2.37378 -3.4925,1.11591 -6.74099,2.19588 -7.21887,2.39994 -0.47788,0.20405 -1.05112,0.37101 -1.27387,0.37101 -0.22274,0 -0.96284,0.22401 -1.64466,0.4978 -1.60454,0.64431 -6.00188,2.11364 -7.1928,2.4034 -0.50933,0.12392 -1.93808,0.57865 -3.175,1.01053 -1.23693,0.43187 -4.21349,1.4162 -6.61459,2.18741 -2.40109,0.77121 -4.52453,1.52328 -4.71875,1.67127 -0.28579,0.21776 -0.3224,1.55864 -0.19198,7.0311 0.23477,9.85047 0.68516,17.57464 1.03776,17.79738 0.33689,0.21281 0.77517,0.12637 3.74068,-0.73781 z m -25.40779,-38.80639 c 0.19848,-0.60838 0.65323,-10.30793 0.81858,-17.45986 l 0.16358,-7.07497 -0.75177,-0.27268 c -0.41347,-0.14998 -0.98989,-0.37635 -1.28093,-0.50305 -0.88939,-0.38717 -9.6297,-3.1983 -9.94413,-3.1983 -0.16206,0 -0.66983,-0.17097 -1.12839,-0.37995 -0.45855,-0.20897 -1.25045,-0.49702 -1.75977,-0.64011 -0.50933,-0.14308 -1.28323,-0.38671 -1.7198,-0.54138 -2.54507,-0.90173 -5.94707,-1.99512 -6.74687,-2.16842 -0.50932,-0.11036 -1.75948,-0.51633 -2.77813,-0.90214 -1.01864,-0.38581 -2.20927,-0.79396 -2.64583,-0.907 -0.43656,-0.11303 -1.86081,-0.57987 -3.165,-1.03742 -1.30419,-0.45755 -2.55435,-0.83595 -2.77812,-0.84089 -0.22379,-0.005 -0.88313,-0.23902 -1.46521,-0.52019 -0.58209,-0.28116 -1.26265,-0.51525 -1.51238,-0.52019 -0.24972,-0.005 -0.84504,-0.17547 -1.32292,-0.37896 -0.47788,-0.2035 -2.47621,-0.87044 -4.44074,-1.4821 -1.96453,-0.61165 -3.96287,-1.27859 -4.44075,-1.48209 -0.47788,-0.20349 -1.03939,-0.36999 -1.24779,-0.36999 -0.20841,0 -0.76992,-0.16692 -1.2478,-0.37093 -0.47788,-0.20402 -3.72637,-1.28249 -7.21887,-2.39662 -7.27714,-2.32144 -6.47852,-2.06073 -12.7,-4.14594 -4.08248,-1.3683 -4.94894,-1.57521 -6.0682,-1.44908 -2.24454,0.25295 -4.04892,2.16227 -5.13852,5.43738 -0.50668,1.52299 -0.56724,2.28918 -0.56724,7.17663 0,4.18733 0.0932,5.73564 0.39687,6.59648 0.21829,0.61867 0.40092,1.37778 0.40586,1.68691 0.005,0.30913 0.23902,1.0383 0.52019,1.62038 0.28116,0.58208 0.51525,1.21224 0.52019,1.40036 0.0141,0.53791 2.02447,3.12575 3.01534,3.88152 0.85299,0.65061 1.89791,1.02448 5.19572,1.85901 0.80036,0.20254 2.28864,0.62127 3.30729,0.93052 1.01864,0.30924 2.44739,0.71983 3.175,0.91242 0.7276,0.19259 2.21588,0.61519 3.30729,0.93912 1.09141,0.32393 2.63922,0.74861 3.43958,0.94374 0.80037,0.19513 2.28865,0.60596 3.30729,0.91296 1.01865,0.307 2.4474,0.71576 3.175,0.90835 0.72761,0.19259 2.21589,0.61139 3.3073,0.93066 2.95676,0.86497 5.57258,1.58975 6.61458,1.83275 0.50932,0.11878 1.58089,0.41603 2.38125,0.66056 0.80036,0.24453 2.11005,0.62588 2.91042,0.84745 0.80036,0.22157 2.22911,0.62389 3.175,0.89403 3.14176,0.8973 6.6774,1.88113 11.90625,3.31303 1.96453,0.53798 4.10765,1.14102 4.7625,1.34009 3.41021,1.0367 4.89748,1.43822 5.32724,1.43822 0.2616,0 0.86663,0.16592 1.34451,0.3687 0.47788,0.20279 1.8809,0.63197 3.11783,0.95374 1.23693,0.32177 2.9038,0.80574 3.70417,1.07549 1.71753,0.57887 2.62144,0.63818 2.77033,0.18176 z m 7.68071,-0.18156 c 2.77946,-0.77132 8.32414,-2.16648 9.525,-2.39669 1.1298,-0.2166 11.02016,-2.68792 13.22916,-3.3056 0.72761,-0.20346 1.91823,-0.50058 2.64584,-0.66028 1.76629,-0.38768 3.14082,-0.71595 4.89479,-1.169 0.80036,-0.20673 2.46724,-0.63139 3.70417,-0.94369 1.23692,-0.3123 2.7252,-0.69561 3.30729,-0.85179 0.58208,-0.15618 1.71318,-0.43677 2.51354,-0.62353 2.45806,-0.57358 3.77558,-0.89355 5.29167,-1.28515 1.93571,-0.49999 5.60449,-1.42599 7.40833,-1.86987 1.6459,-0.40502 4.24513,-1.06018 12.17083,-3.06782 1.81901,-0.46077 4.02167,-0.99221 4.89479,-1.18099 0.87313,-0.18877 2.54,-0.60376 3.70417,-0.9222 1.16417,-0.31843 2.83104,-0.7404 3.70417,-0.93771 0.87312,-0.19731 2.30187,-0.53246 3.175,-0.74479 0.87312,-0.21232 2.42094,-0.58108 3.43958,-0.81946 1.01865,-0.23838 2.38787,-0.6062 3.04271,-0.81738 0.65484,-0.21118 1.38441,-0.38338 1.62125,-0.38266 0.94978,0.003 1.03535,-0.5741 0.61159,-4.12369 -0.67791,-5.6784 0.24673,-13.49801 1.9059,-16.11818 0.19246,-0.30393 0.24441,-0.68107 0.12127,-0.88032 -0.23228,-0.37583 -0.59965,-0.3254 -5.45063,0.74832 -1.30969,0.28989 -3.35657,0.69978 -4.54862,0.91088 -1.19205,0.21109 -2.6208,0.50263 -3.175,0.64787 -0.5542,0.14523 -2.31732,0.51769 -3.91805,0.82769 -3.10973,0.60222 -5.52294,1.09299 -9.12813,1.85635 -1.23692,0.26191 -3.14192,0.65911 -4.23333,0.88268 -1.09141,0.22356 -2.81781,0.6053 -3.83646,0.84831 -1.01864,0.243 -2.50693,0.53952 -3.30729,0.65893 -0.80036,0.1194 -2.52677,0.45102 -3.83646,0.73691 -1.30969,0.2859 -3.09562,0.65533 -3.96875,0.82096 -2.39265,0.45389 -5.31908,1.08379 -7.59976,1.63581 -1.12393,0.27205 -2.36627,0.49463 -2.76077,0.49463 -0.39449,0 -1.37991,0.1719 -2.18982,0.38201 -1.32235,0.34304 -3.0771,0.72015 -8.08715,1.73803 -0.87312,0.1774 -2.3614,0.48463 -3.30729,0.68276 -0.94589,0.19812 -2.37464,0.49367 -3.175,0.65676 -0.80036,0.1631 -2.5863,0.53162 -3.96875,0.81894 -2.6489,0.55053 -4.37427,0.89629 -9.12813,1.82926 -1.60072,0.31416 -3.43764,0.7353 -4.08202,0.93588 -0.64439,0.20058 -1.56713,0.36469 -2.05052,0.36469 -0.52614,0 -1.09131,0.2124 -1.40808,0.52917 -0.47386,0.47385 -0.52915,0.88178 -0.52895,3.9026 1.1e-4,1.85539 -0.13143,7.09482 -0.29231,11.64318 -0.16089,4.54836 -0.22426,8.44765 -0.14081,8.6651 0.20262,0.52803 0.99029,0.49935 3.21103,-0.11692 z"
         id="path32" />
      <path
         style="fill:#526475;fill-opacity:1;stroke-width:0.264583"
         d="m 490.15207,-54.34026 c -0.58208,-0.28179 -1.26265,-0.51547 -1.51238,-0.51929 -0.24972,-0.004 -0.84504,-0.16998 -1.32292,-0.36926 -1.39448,-0.5815 -2.62683,-0.99112 -4.05486,-1.3478 -0.73365,-0.18324 -1.56709,-0.45342 -1.85208,-0.6004 -0.285,-0.14698 -1.41115,-0.53562 -2.50255,-0.86366 -1.09141,-0.32803 -2.37537,-0.76006 -2.85325,-0.96008 -0.47788,-0.20001 -1.07319,-0.36769 -1.32292,-0.37263 -0.24972,-0.005 -0.93029,-0.23902 -1.51238,-0.52019 -0.58208,-0.28117 -1.41552,-0.51904 -1.85208,-0.5286 -0.43656,-0.01 -1.02486,-0.1922 -1.30734,-0.40586 -0.28247,-0.21365 -0.75872,-0.3925 -1.05833,-0.39743 -0.29961,-0.005 -1.021,-0.23903 -1.60308,-0.52019 -0.58208,-0.28117 -1.29646,-0.51947 -1.5875,-0.52957 -0.29104,-0.0101 -0.82682,-0.18851 -1.19062,-0.39647 -0.36381,-0.20797 -0.89959,-0.38308 -1.19063,-0.38914 -0.29104,-0.006 -0.88635,-0.19767 -1.32291,-0.42582 -0.43657,-0.22815 -1.27001,-0.5174 -1.85209,-0.64277 -1.23577,-0.26617 -3.34957,-0.95612 -4.5379,-1.48118 -0.45856,-0.20261 -1.07398,-0.36839 -1.36762,-0.36839 -0.29364,0 -0.87096,-0.16404 -1.28293,-0.36454 -0.90786,-0.44183 -3.14815,-1.21545 -4.05634,-1.40074 -0.3638,-0.0742 -1.25677,-0.34805 -1.98438,-0.60853 -2.55857,-0.91593 -3.18336,-1.11965 -4.10104,-1.33719 -0.50932,-0.12073 -1.75948,-0.53641 -2.77812,-0.92371 -1.01865,-0.3873 -2.2688,-0.80337 -2.77813,-0.92459 -1.04515,-0.24875 -3.14066,-0.95164 -4.44074,-1.48954 -0.47788,-0.19772 -1.1077,-0.35949 -1.39961,-0.35949 -0.2919,0 -0.99749,-0.23813 -1.56798,-0.52917 -0.57049,-0.29104 -1.30989,-0.53338 -1.64311,-0.53854 -0.33321,-0.005 -0.9035,-0.17953 -1.26731,-0.3875 -0.3638,-0.20797 -0.89958,-0.38638 -1.19062,-0.39648 -0.29104,-0.0101 -1.00542,-0.24839 -1.5875,-0.52956 -0.58209,-0.28117 -1.35599,-0.51904 -1.71979,-0.5286 -0.36381,-0.01 -0.89258,-0.1922 -1.17505,-0.40586 -0.28248,-0.21365 -0.79441,-0.38846 -1.13762,-0.38846 -0.34322,0 -1.00507,-0.19868 -1.47079,-0.44152 -0.46571,-0.24284 -1.26347,-0.53112 -1.77279,-0.64062 -4.43864,-0.9543 -7.67538,-4.18169 -10.19211,-10.16265 -0.40151,-0.95418 -0.67457,-1.95313 -1.44642,-5.29167 -0.13457,-0.58208 -0.24986,-1.63068 -0.2562,-2.33023 -0.0136,-1.49875 -0.50414,-3.62289 -0.83668,-3.62289 -0.12825,0 -0.23318,-1.25016 -0.23318,-2.77813 0,-1.52796 0.10493,-2.77812 0.23318,-2.77812 0.31052,0 0.82516,-2.09587 0.82516,-3.36048 0,-2.07877 2.35429,-7.50119 3.94942,-9.09631 0.83732,-0.83733 1.06561,-1.90799 0.48352,-2.26774 -0.18125,-0.11202 -0.86586,-0.28627 -1.52135,-0.38722 -1.51301,-0.233 -3.26086,-0.88502 -3.38702,-1.26349 -0.12833,-0.38499 1.31365,-1.58046 2.68615,-2.22695 0.60311,-0.28408 1.54672,-0.73918 2.0969,-1.01133 0.55019,-0.27215 1.2083,-0.49481 1.46249,-0.49481 0.25418,0 0.70308,-0.16876 0.99755,-0.37502 0.29447,-0.20625 1.00557,-0.45974 1.58022,-0.56332 0.57466,-0.10356 1.34248,-0.34438 1.70628,-0.53515 0.36381,-0.19076 1.07818,-0.41386 1.5875,-0.49578 0.50933,-0.0819 1.30068,-0.37748 1.75857,-0.6568 0.73836,-0.45042 0.86797,-0.71796 1.14581,-2.36521 0.36947,-2.19049 0.23204,-7.80864 -0.25653,-10.48685 -0.84029,-4.60624 -3.08479,-8.20297 -5.93099,-9.50422 -0.74089,-0.33872 -1.95881,-0.88302 -2.70649,-1.20956 -0.74768,-0.32654 -1.67651,-0.88773 -2.06407,-1.24709 -0.59923,-0.55564 -0.69272,-0.83622 -0.62495,-1.87569 0.0784,-1.2029 0.10072,-1.23023 1.40261,-1.72029 0.72761,-0.27389 1.73964,-0.58777 2.24896,-0.69751 2.49938,-0.53854 6.08542,-1.96512 6.08542,-2.42087 0,-0.16146 -0.4641,-0.82081 -1.03132,-1.46521 -1.84611,-2.09729 -3.34368,-4.92851 -4.04159,-7.64081 -0.14978,-0.58208 -0.43887,-1.43352 -0.64242,-1.89207 -0.20355,-0.45856 -0.37243,-1.35152 -0.3753,-1.98438 -0.003,-0.63285 -0.1773,-2.10313 -0.38764,-3.2673 -0.49216,-2.72396 -0.49428,-8.22221 -0.004,-10.45104 0.20806,-0.94589 0.38247,-2.10271 0.38759,-2.57071 0.005,-0.46801 0.20404,-1.30145 0.44206,-1.85209 0.85995,-1.9894 1.8058,-3.91803 2.07279,-4.2265 0.14991,-0.17321 0.55959,-0.70899 0.91041,-1.19063 1.75844,-2.41417 6.20634,-4.96007 8.72235,-4.99251 0.67273,-0.009 1.81845,-0.12877 2.54606,-0.26688 0.7276,-0.13811 2.75166,-0.42605 4.49791,-0.63986 1.74625,-0.21381 3.59093,-0.51043 4.0993,-0.65916 0.50836,-0.14873 1.52039,-0.2756 2.24896,-0.28194 0.72856,-0.006 1.86044,-0.12606 2.51528,-0.26606 0.65485,-0.14 2.55985,-0.43348 4.23334,-0.6522 1.67349,-0.21871 3.75708,-0.5105 4.6302,-0.64842 1.93599,-0.30581 4.82817,-0.70031 8.86355,-1.20899 1.67349,-0.21096 3.2213,-0.45532 3.43958,-0.54304 0.21828,-0.0877 1.64703,-0.26514 3.175,-0.3943 1.52797,-0.12915 3.61156,-0.41347 4.63021,-0.6318 1.01864,-0.21834 2.38865,-0.39904 3.04445,-0.40157 0.65581,-0.002 1.60831,-0.13062 2.11667,-0.28464 0.50836,-0.15403 2.13676,-0.39161 3.61866,-0.52795 1.48191,-0.13634 3.38216,-0.42703 4.22278,-0.64599 0.84062,-0.21895 2.13322,-0.3981 2.87244,-0.3981 0.73922,0 2.0297,-0.17859 2.86774,-0.39687 0.83803,-0.21828 2.2025,-0.39874 3.03215,-0.40102 0.82964,-0.002 2.62784,-0.24041 3.996,-0.52917 1.36815,-0.28876 3.07738,-0.52502 3.79826,-0.52502 0.7209,0 1.98275,-0.16791 2.80412,-0.37313 0.82136,-0.20523 2.5347,-0.454 3.80741,-0.55283 1.27271,-0.0988 2.93958,-0.34623 3.70417,-0.54977 0.76458,-0.20354 1.99021,-0.37149 2.72362,-0.37321 0.73341,-0.002 1.98357,-0.16729 2.77813,-0.36791 0.79456,-0.20062 2.51621,-0.44121 3.8259,-0.53464 1.30969,-0.0934 3.03609,-0.34459 3.83646,-0.55814 0.80036,-0.21354 2.15239,-0.38967 3.00452,-0.3914 0.85211,-0.002 2.22133,-0.17184 3.0427,-0.37803 0.82137,-0.20619 2.50543,-0.45607 3.74236,-0.55528 1.23693,-0.0992 2.96333,-0.34547 3.83646,-0.54724 2.05379,-0.4746 3.41375,-0.47003 4.35099,0.0146 0.41406,0.21412 1.27135,0.4688 1.90509,0.56596 0.63374,0.0972 1.47376,0.3387 1.86672,0.53674 0.39295,0.19804 0.99154,0.36008 1.33019,0.36008 0.33865,0 0.85666,0.16875 1.15113,0.37501 0.29447,0.20625 1.00557,0.45235 1.58022,0.54688 0.57466,0.0945 1.46154,0.32621 1.97087,0.51486 0.50932,0.18865 1.81901,0.6081 2.91041,0.9321 1.09141,0.32401 2.34157,0.70914 2.77813,0.85586 0.43656,0.14672 1.21047,0.35977 1.71979,0.47345 0.50932,0.11368 1.3687,0.39966 1.90973,0.63551 0.54103,0.23586 1.33505,0.42883 1.7645,0.42883 0.42944,0 1.11787,0.16598 1.52985,0.36884 0.41197,0.20287 1.64201,0.63453 2.73342,0.95926 1.09141,0.32473 2.37537,0.75406 2.85325,0.95407 0.47788,0.20001 1.09855,0.36366 1.37927,0.36366 0.28071,0 1.11452,0.23812 1.8529,0.52917 0.73837,0.29104 1.6261,0.52916 1.97272,0.52916 0.34663,0 0.9673,0.16598 1.37927,0.36885 0.41198,0.20286 1.64202,0.63028 2.73342,0.94981 1.09141,0.31953 2.34157,0.70061 2.77813,0.84684 0.43656,0.14623 1.32953,0.38741 1.98437,0.53595 0.65485,0.14854 1.32238,0.37579 1.48341,0.50501 0.16103,0.12921 0.81587,0.34591 1.45521,0.48155 0.63933,0.13565 1.75774,0.4403 2.48534,0.677 0.72761,0.23671 1.97776,0.61182 2.77813,0.83359 0.80036,0.22176 1.81239,0.52509 2.24895,0.67406 0.43657,0.14896 1.27,0.39084 1.85209,0.53751 0.58208,0.14666 1.2726,0.37641 1.53449,0.51056 0.26188,0.13415 0.97626,0.34929 1.5875,0.47808 0.61124,0.1288 1.70665,0.43424 2.43426,0.67877 2.63706,0.88625 2.92883,0.97273 4.07284,1.20729 0.63934,0.13108 1.29418,0.34405 1.45521,0.47326 0.16103,0.12922 0.82856,0.35884 1.48341,0.51028 0.65484,0.15144 1.66687,0.45114 2.24896,0.666 1.00028,0.36923 1.06272,0.4566 1.13838,1.59286 0.0702,1.05498 -0.0181,1.28967 -0.72158,1.91646 -0.4409,0.39285 -1.48896,1.00627 -2.32901,1.36317 -0.84006,0.3569 -1.70597,0.75664 -1.92425,0.8883 -0.21828,0.13167 -0.69453,0.36611 -1.05834,0.52098 -0.96905,0.41251 -1.80333,1.25213 -2.87377,2.89216 -1.18291,1.81235 -2.14749,4.11474 -2.16151,5.15937 -0.006,0.43656 -0.18314,1.50813 -0.39397,2.38125 -0.45957,1.90332 -0.48023,7.54177 -0.0353,9.64499 0.34895,1.64964 1.05165,2.22318 3.4436,2.81066 1.63771,0.40224 2.83273,0.80621 4.34318,1.46821 0.62235,0.27276 1.27275,0.49593 1.44533,0.49593 0.17257,0 1.2837,0.48048 2.46917,1.06774 2.2725,1.12574 3.56487,2.20492 3.13929,2.62141 -0.44163,0.43219 -2.58676,1.11579 -4.32931,1.37965 -0.93512,0.14159 -2.03053,0.42826 -2.43426,0.63703 -0.40372,0.20878 -1.12691,0.38134 -1.60708,0.38349 -1.11739,0.005 -2.16505,0.53476 -2.28454,1.1552 -0.052,0.26998 0.25184,0.85254 0.68652,1.31627 1.1094,1.18355 2.97394,5.30144 2.97394,6.56801 0,0.42572 0.19146,1.6158 0.42546,2.64463 0.3265,1.43552 0.39451,2.74 0.29241,5.60848 -0.1454,4.08479 -0.59784,8.31244 -1.02296,9.55872 -0.14892,0.43656 -0.38212,1.27 -0.51822,1.85208 -0.24926,1.06609 -0.44011,1.54869 -1.56948,3.96875 -0.9307,1.99436 -2.7571,4.47861 -4.1041,5.58237 -1.6647,1.3641 -1.53501,1.87302 0.67606,2.65295 0.94589,0.33366 1.92396,0.6115 2.1735,0.61743 1.10408,0.0263 1.41117,2.31874 0.44795,3.34404 -0.6259,0.66623 -2.42312,1.69384 -2.96243,1.69384 -0.75816,0 -3.06704,1.48539 -4.34036,2.79232 -1.284,1.31789 -2.72699,3.78097 -2.72699,4.65477 0,0.21151 -0.13811,0.52268 -0.30691,0.69148 -0.16879,0.16879 -0.39046,1.17487 -0.49258,2.23573 -0.10213,1.06085 -0.33437,2.84271 -0.51609,3.95967 -0.28112,1.72794 -0.26684,2.40373 0.0957,4.53069 0.23437,1.37491 0.42612,2.80977 0.42612,3.18857 0,1.05656 0.7581,1.43696 5.15937,2.58882 0.58208,0.15234 1.41552,0.43756 1.85208,0.63382 0.43657,0.19626 1.50813,0.61878 2.38125,0.93894 3.05409,1.11988 5.42396,2.55366 5.42396,3.28151 0,0.43585 -1.56502,1.12026 -3.07235,1.34358 -0.7113,0.10539 -1.75473,0.35327 -2.31873,0.55086 -0.56399,0.19758 -1.27837,0.35751 -1.5875,0.3554 -0.30912,-0.002 -1.33595,0.22536 -2.28183,0.50547 -2.5222,0.74693 -3.9371,1.09528 -5.4357,1.33824 -0.73406,0.11901 -1.92468,0.40036 -2.64583,0.62522 -1.90644,0.59445 -3.49583,0.97842 -5.15263,1.24479 -0.80311,0.12912 -1.90061,0.41878 -2.4389,0.64369 -0.53828,0.22491 -1.36948,0.41315 -1.84709,0.4183 -0.47762,0.005 -1.16605,0.17953 -1.52985,0.3875 -0.36381,0.20797 -1.04401,0.38235 -1.51156,0.3875 -0.46756,0.005 -1.45423,0.2475 -2.19261,0.53854 -0.73838,0.29104 -1.65506,0.52917 -2.03706,0.52917 -0.38201,0 -1.30033,0.16921 -2.04073,0.37603 -0.74039,0.20682 -2.29867,0.6103 -3.46284,0.89663 -1.16416,0.28634 -2.65244,0.6603 -3.30729,0.83104 -0.65484,0.17073 -1.82815,0.42569 -2.60735,0.56658 -0.7792,0.14088 -1.83554,0.43114 -2.34742,0.64502 -0.51188,0.21388 -1.27716,0.38887 -1.70062,0.38887 -0.42346,0 -1.15504,0.16091 -1.62573,0.35757 -0.47068,0.19667 -1.44756,0.44631 -2.17083,0.55477 -0.72327,0.10847 -1.63811,0.36428 -2.03299,0.56847 -0.39487,0.2042 -1.10035,0.37127 -1.56773,0.37127 -0.46737,0 -1.45555,0.1775 -2.19595,0.39445 -2.42129,0.70947 -4.49693,1.22013 -5.8764,1.44574 -0.74539,0.12191 -1.57882,0.33922 -1.85209,0.48292 -0.27326,0.1437 -1.03263,0.34214 -1.68747,0.44098 -0.65484,0.0988 -1.72641,0.3388 -2.38125,0.53325 -1.6246,0.48239 -4.66828,1.22367 -5.95313,1.44985 -0.58208,0.10248 -1.47505,0.31886 -1.98437,0.48085 -0.95047,0.3023 -2.56511,0.68781 -4.89479,1.16864 -0.72761,0.15018 -1.71391,0.43923 -2.19179,0.64235 -0.47788,0.20312 -1.19226,0.36893 -1.5875,0.36846 -0.39525,-5.2e-4 -1.55207,0.22549 -2.57071,0.50211 -3.19877,0.86864 -4.1939,1.11193 -5.58124,1.36447 -0.74135,0.13495 -1.85765,0.42521 -2.48067,0.64502 -0.62301,0.21982 -1.4452,0.40388 -1.82709,0.40904 -0.38188,0.005 -0.99199,0.17953 -1.35579,0.3875 -0.36381,0.20796 -1.05139,0.38234 -1.52797,0.38749 -0.47657,0.005 -1.54401,0.24751 -2.37208,0.53855 -0.82806,0.29104 -1.80735,0.52857 -2.1762,0.52785 -0.36884,-7.9e-4 -1.20641,0.17148 -1.86125,0.38265 -1.72591,0.55659 -4.7484,1.26535 -5.82084,1.36497 -0.53839,0.05 -1.36906,-0.12845 -1.98437,-0.42633 z m 2.43687,-10.31581 c 0.24639,-0.48875 0.33508,-2.80308 0.33968,-8.86354 0.003,-4.51115 0.12476,-9.84605 0.26963,-11.85534 0.29053,-4.02935 0.17667,-4.57723 -1.0033,-4.82769 -0.39598,-0.084 -1.03599,-0.32359 -1.42225,-0.53229 -0.38625,-0.20871 -1.01176,-0.37947 -1.39002,-0.37947 -0.37826,0 -1.13203,-0.23813 -1.67505,-0.52917 -0.54302,-0.29104 -1.2272,-0.53339 -1.52039,-0.53854 -0.2932,-0.005 -0.83074,-0.17953 -1.19455,-0.3875 -0.3638,-0.20797 -0.93409,-0.38235 -1.26731,-0.3875 -0.33322,-0.005 -1.07261,-0.2475 -1.6431,-0.53854 -0.57049,-0.29105 -1.31584,-0.52917 -1.65634,-0.52917 -0.34049,0 -0.74492,-0.12584 -0.89873,-0.27965 -0.15381,-0.15381 -0.92176,-0.43931 -1.70656,-0.63444 -1.56426,-0.38894 -2.85127,-0.81569 -4.07275,-1.35044 -0.43656,-0.19112 -1.20999,-0.43053 -1.71873,-0.53201 -0.50874,-0.10148 -1.28265,-0.33166 -1.71979,-0.51151 -1.2976,-0.53386 -2.56451,-0.95761 -3.96981,-1.32781 -0.72761,-0.19168 -1.73964,-0.49655 -2.24896,-0.6775 -0.50932,-0.18096 -1.52135,-0.53358 -2.24896,-0.7836 -0.7276,-0.25003 -1.73963,-0.5983 -2.24896,-0.77393 -0.50932,-0.17563 -1.28323,-0.41985 -1.71979,-0.54271 -0.43656,-0.12286 -1.27,-0.40484 -1.85208,-0.62661 -0.58209,-0.22178 -1.29646,-0.41224 -1.5875,-0.42326 -0.29104,-0.011 -0.76028,-0.19484 -1.04276,-0.40849 -0.28247,-0.21365 -0.81825,-0.3925 -1.19062,-0.39743 -0.37237,-0.005 -1.15329,-0.23903 -1.73537,-0.52019 -0.58208,-0.28117 -1.31658,-0.51526 -1.63221,-0.52019 -0.31563,-0.005 -0.91094,-0.17436 -1.32291,-0.37649 -0.94254,-0.46245 -2.29482,-0.93596 -3.65947,-1.28138 -0.58208,-0.14735 -1.37435,-0.43193 -1.76061,-0.63242 -0.38625,-0.20049 -0.9388,-0.36452 -1.22788,-0.36452 -0.28908,0 -1.04461,-0.23552 -1.67897,-0.52336 -0.63435,-0.28785 -1.45102,-0.52976 -1.81483,-0.53758 -0.3638,-0.008 -0.89257,-0.18904 -1.17505,-0.40269 -0.28247,-0.21365 -0.75872,-0.3925 -1.05833,-0.39743 -0.29961,-0.005 -1.02099,-0.23903 -1.60308,-0.52019 -0.58208,-0.28117 -1.36299,-0.51526 -1.73536,-0.52019 -0.37237,-0.005 -0.90815,-0.18379 -1.19063,-0.39744 -0.28247,-0.21365 -0.76848,-0.39225 -1.08001,-0.39688 -0.31153,-0.005 -1.08543,-0.24392 -1.71979,-0.53177 -0.63435,-0.28784 -1.45804,-0.52597 -1.83041,-0.52916 -0.37237,-0.003 -0.90815,-0.18062 -1.19062,-0.39428 -0.28248,-0.21365 -0.75172,-0.39628 -1.04276,-0.40585 -0.29104,-0.01 -1.00541,-0.24743 -1.5875,-0.5286 -0.58208,-0.28117 -1.29646,-0.51599 -1.5875,-0.52182 -0.29104,-0.006 -0.8702,-0.18847 -1.28701,-0.40585 -2.09528,-1.09277 -5.08846,-0.068 -6.75655,2.31331 -1.67437,2.39025 -1.99142,3.9606 -2.08369,10.32049 -0.0526,3.62949 0.0188,5.67238 0.21103,6.03153 0.15986,0.2987 0.4006,1.22219 0.53497,2.05219 0.21602,1.33434 0.62275,2.46872 1.34743,3.75807 0.12269,0.21828 0.45241,0.81894 0.73271,1.33481 0.59261,1.09063 2.75228,3.1631 3.29621,3.1631 0.20489,0 0.71357,0.17786 1.13039,0.39525 0.41681,0.21738 1.0001,0.39598 1.29618,0.39687 0.29609,8e-4 1.21585,0.23976 2.04391,0.5308 0.82807,0.29104 1.77644,0.53339 2.1075,0.53854 0.33106,0.005 0.89958,0.17953 1.26338,0.3875 0.3638,0.20797 0.97588,0.38235 1.36017,0.3875 0.38429,0.005 1.21773,0.24489 1.85208,0.53273 0.63436,0.28785 1.5771,0.52597 2.09499,0.52917 0.51789,0.003 1.17274,0.18062 1.45521,0.39427 0.28248,0.21365 0.87078,0.39629 1.30734,0.40585 0.43656,0.01 1.27,0.24744 1.85209,0.52861 0.58208,0.28116 1.34,0.51525 1.68428,0.52019 0.61488,0.009 1.95427,0.39452 4.7554,1.36942 0.77694,0.2704 1.79224,0.49164 2.25624,0.49164 0.46399,0 1.07848,0.16101 1.36552,0.3578 0.28704,0.1968 1.01215,0.43381 1.61136,0.5267 0.59921,0.0929 1.43265,0.34786 1.85208,0.5666 0.41944,0.21875 1.10181,0.39845 1.51638,0.39935 0.41457,7.9e-4 1.12894,0.16817 1.5875,0.37172 0.79863,0.35451 1.51197,0.56566 4.14103,1.22573 0.65484,0.16441 1.54781,0.41978 1.98437,0.56748 0.43656,0.14771 1.4486,0.41517 2.24896,0.59437 0.80036,0.1792 1.71527,0.46547 2.03313,0.63616 0.31785,0.17068 0.91316,0.31107 1.32291,0.31197 0.40975,7.9e-4 1.08818,0.1806 1.50761,0.39934 0.41944,0.21875 1.25288,0.4727 1.85209,0.56434 0.59921,0.0916 1.41098,0.32865 1.80393,0.52669 0.39296,0.19804 1.02395,0.36008 1.4022,0.36008 0.37826,0 1.01382,0.16862 1.41236,0.37471 0.39854,0.2061 1.31536,0.49195 2.03738,0.63524 0.72202,0.14328 1.66995,0.38178 2.10651,0.52999 0.43657,0.14821 1.29977,0.39814 1.91823,0.55539 2.40698,0.61202 3.40827,0.89426 4.29948,1.21196 1.06321,0.37901 2.66659,0.8178 4.7813,1.30848 0.8107,0.18811 1.7256,0.47667 2.03312,0.64124 0.30752,0.16459 0.96092,0.29924 1.45199,0.29924 0.49108,0 1.12399,0.1774 1.40646,0.39423 0.71651,0.54998 1.49825,0.3871 1.89213,-0.39423 z m 5.53653,0.3985 c 0.41682,-0.21738 1.11504,-0.39539 1.5516,-0.39556 0.43656,-1.8e-4 1.32953,-0.1715 1.98437,-0.38071 2.10018,-0.67097 4.32873,-1.24206 5.72086,-1.46604 0.74539,-0.11992 1.57882,-0.33293 1.85209,-0.47337 0.27326,-0.14043 1.06445,-0.32937 1.75817,-0.41985 0.69374,-0.0905 1.61056,-0.3451 2.03739,-0.56582 0.42682,-0.22073 1.13674,-0.40132 1.57758,-0.40132 0.44085,0 1.25043,-0.16846 1.79908,-0.37437 0.54865,-0.20591 1.51606,-0.44744 2.14979,-0.53674 0.63374,-0.0893 1.49103,-0.33755 1.90509,-0.55166 0.41406,-0.21412 1.1793,-0.38931 1.70052,-0.38931 0.52122,0 1.34294,-0.16515 1.82603,-0.367 0.48308,-0.20184 1.402,-0.45405 2.04202,-0.56045 0.64002,-0.1064 1.48518,-0.35797 1.87814,-0.55905 0.39296,-0.20107 1.16686,-0.36632 1.71979,-0.36721 0.55293,-8e-4 1.31524,-0.16335 1.69403,-0.361 0.37878,-0.19766 1.27018,-0.44657 1.98088,-0.55315 0.71071,-0.10657 1.61527,-0.36084 2.01015,-0.56504 0.39487,-0.2042 1.11081,-0.37068 1.59098,-0.36996 0.48017,8e-4 1.40882,-0.17682 2.06366,-0.39454 1.76264,-0.58603 4.1802,-1.19516 5.76848,-1.45342 0.77157,-0.12546 1.54846,-0.34895 1.72641,-0.49664 0.17795,-0.14768 0.97542,-0.34939 1.77214,-0.44823 0.79673,-0.0988 1.7123,-0.34461 2.0346,-0.54617 0.3223,-0.20156 0.94989,-0.36647 1.39464,-0.36647 0.75678,0 3.90337,-0.75887 5.69227,-1.37282 0.43657,-0.14983 1.48471,-0.3777 2.32922,-0.50637 0.8445,-0.12868 1.77515,-0.36224 2.06811,-0.51903 0.29296,-0.15679 1.09029,-0.38343 1.77183,-0.50365 0.68155,-0.12022 1.59637,-0.34152 2.03293,-0.49179 0.43656,-0.15026 1.38906,-0.39431 2.11666,-0.54234 2.00386,-0.40767 4.42348,-0.98749 5.44017,-1.30365 0.50041,-0.15561 1.44562,-0.40206 2.10046,-0.54766 1.81798,-0.40423 3.48706,-0.84087 4.36562,-1.14206 0.43657,-0.14966 1.45085,-0.37277 2.25395,-0.49578 0.80311,-0.12302 1.90061,-0.40768 2.4389,-0.63259 0.53829,-0.22491 1.31449,-0.40893 1.72489,-0.40893 0.4104,0 1.27743,-0.26789 1.92672,-0.59531 l 1.18055,-0.59532 -0.0738,-6.48229 c -0.0406,-3.56526 0.0417,-7.13713 0.18292,-7.9375 0.37232,-2.11032 1.07743,-4.51028 1.52648,-5.19561 0.21429,-0.32704 0.35067,-0.8694 0.30306,-1.20524 -0.11028,-0.77802 -1.46833,-0.96222 -2.84309,-0.38562 -0.5212,0.21859 -1.66315,0.46094 -2.53767,0.53855 -0.87452,0.0776 -2.10988,0.32451 -2.74524,0.54868 -0.63537,0.22416 -1.51672,0.40758 -1.95858,0.40758 -0.44186,0 -1.40916,0.16944 -2.14955,0.37655 -0.74039,0.2071 -2.12008,0.50092 -3.06596,0.65293 -1.63001,0.26196 -2.47755,0.44609 -5.09323,1.10652 -0.61847,0.15615 -1.94021,0.39771 -2.93721,0.5368 -0.997,0.1391 -2.23193,0.42805 -2.74429,0.64213 -0.51236,0.21408 -1.37831,0.38923 -1.92432,0.38923 -0.54602,0 -1.45421,0.16125 -2.01821,0.35834 -0.564,0.19708 -1.79424,0.44391 -2.73387,0.5485 -0.93963,0.10459 -2.11503,0.36006 -2.612,0.56771 -0.49697,0.20764 -1.29079,0.37754 -1.76405,0.37754 -0.47325,0 -1.32191,0.16125 -1.88591,0.35833 -0.564,0.19709 -1.79353,0.44383 -2.73229,0.54832 -0.93875,0.1045 -1.93801,0.31371 -2.22056,0.46493 -0.28255,0.15122 -1.34625,0.37948 -2.36376,0.50724 -1.01752,0.12776 -1.98279,0.33709 -2.14506,0.46518 -0.16227,0.12808 -1.06894,0.31433 -2.01483,0.41389 -0.94588,0.0996 -2.3151,0.34341 -3.04271,0.54189 -0.7276,0.19848 -2.03729,0.4998 -2.91041,0.66959 -4.1261,0.80237 -5.34553,1.13004 -7.44783,2.00132 -0.45829,0.18993 -1.29173,0.42587 -1.85209,0.52431 -0.56036,0.0984 -1.28253,0.3442 -1.60484,0.54615 -0.3223,0.20195 -0.83306,0.36718 -1.13501,0.36718 -0.30196,0 -1.03595,0.24841 -1.63108,0.55203 -1.04407,0.53264 -1.12309,0.53635 -2.2508,0.10568 -1.35791,-0.5186 -2.95649,-0.36934 -7.36169,0.68733 -0.58208,0.13963 -1.77872,0.36651 -2.6592,0.5042 -0.88048,0.13768 -2.03751,0.43277 -2.57119,0.65575 -0.53367,0.22299 -1.56541,0.40543 -2.29275,0.40543 -0.72735,0 -1.71344,0.17261 -2.19132,0.38357 -0.47788,0.21097 -1.56945,0.45966 -2.42572,0.55264 -2.36406,0.25672 -2.80706,0.82574 -2.81508,3.61582 -0.003,1.20716 -0.1198,6.65077 -0.25852,12.09691 -0.18209,7.14877 -0.17133,9.99954 0.0387,10.2526 0.38068,0.45869 1.04536,0.44369 1.98182,-0.0447 z m 17.65464,-42.33496 c -0.0201,-1.74625 -0.13916,-7.38264 -0.26458,-12.5253 l -0.22805,-9.3503 -0.62462,-0.50543 c -0.40586,-0.32841 -1.03745,-0.50543 -1.80333,-0.50543 -0.64829,0 -1.43877,-0.14005 -1.75663,-0.31122 -0.31785,-0.17117 -1.47088,-0.45915 -2.56229,-0.63994 -1.91484,-0.31721 -3.30011,-0.60517 -5.82083,-1.21001 -0.65485,-0.15713 -2.0836,-0.44232 -3.175,-0.63376 -2.53251,-0.44421 -4.6115,-0.86692 -5.95313,-1.21042 -0.58208,-0.14903 -2.01083,-0.42334 -3.175,-0.60958 -1.16416,-0.18624 -2.45184,-0.47423 -2.86149,-0.63997 -0.40966,-0.16574 -1.14605,-0.30135 -1.63642,-0.30135 -0.49038,0 -1.22677,-0.13217 -1.63643,-0.2937 -0.40965,-0.16154 -1.69733,-0.45286 -2.86149,-0.64738 -1.16417,-0.19451 -2.59292,-0.47227 -3.175,-0.61722 -1.25898,-0.31353 -3.23931,-0.72003 -5.95313,-1.22199 -1.89792,-0.35105 -2.72661,-0.52461 -5.68854,-1.19143 -0.7276,-0.1638 -1.97776,-0.4158 -2.77812,-0.55999 -0.80037,-0.14419 -2.06099,-0.43369 -2.80138,-0.64335 -0.7404,-0.20965 -1.70769,-0.38119 -2.14955,-0.38119 -0.44186,0 -1.30866,-0.17827 -1.92623,-0.39616 -0.61757,-0.21789 -1.91246,-0.50685 -2.87753,-0.64213 -0.96508,-0.13528 -2.23094,-0.36692 -2.81302,-0.51476 -1.46876,-0.37306 -3.58418,-0.79436 -6.13389,-1.2216 -1.19083,-0.19955 -2.40339,-0.49032 -2.69459,-0.64616 -0.29119,-0.15585 -0.87274,-0.28335 -1.29233,-0.28335 -0.41959,0 -1.64781,-0.23533 -2.72938,-0.52294 -1.08156,-0.28762 -2.36126,-0.52575 -2.84377,-0.52917 -0.48251,-0.003 -1.12156,-0.13696 -1.42011,-0.29674 -0.29854,-0.15977 -1.51111,-0.45263 -2.69458,-0.65078 -2.5977,-0.43494 -4.6968,-0.84904 -6.12052,-1.20741 -2.17279,-0.54694 -3.85572,-0.81094 -4.23695,-0.66465 -0.51313,0.19691 -0.51063,1.59281 0.004,2.0196 0.21828,0.18116 0.39687,0.52729 0.39687,0.76917 0,0.24189 0.22352,1.09051 0.49671,1.88584 0.66697,1.94171 1.20385,9.54243 0.83102,11.76478 -0.14648,0.87313 -0.26702,2.39541 -0.26786,3.38284 l -0.002,1.79534 1.21171,0.5194 c 0.66644,0.28567 1.8273,0.63363 2.57969,0.77322 1.41362,0.26229 3.82716,0.83816 6.13047,1.46273 1.96271,0.53221 3.18175,0.83594 7.9375,1.9777 0.72761,0.17468 1.91823,0.49008 2.64583,0.70089 0.72761,0.21081 1.8587,0.49251 2.51355,0.626 1.5727,0.3206 3.29874,0.75435 4.7625,1.19679 0.65484,0.19793 1.66687,0.43708 2.24895,0.53143 0.58209,0.0943 1.59412,0.33045 2.24896,0.52467 1.67151,0.49575 3.35074,0.92377 4.89479,1.24765 0.72761,0.15262 1.77182,0.44097 2.32046,0.64077 0.54865,0.19981 1.34792,0.36328 1.77615,0.36328 0.42823,0 1.38273,0.23813 2.1211,0.52917 0.73838,0.29104 1.72505,0.53339 2.19261,0.53854 0.46756,0.005 1.14776,0.17953 1.51156,0.3875 0.3638,0.20797 0.9927,0.38234 1.39756,0.3875 0.40486,0.005 1.16595,0.18897 1.69131,0.40849 0.52536,0.21951 1.56334,0.5019 2.30661,0.62752 1.6849,0.28479 3.52401,0.73939 5.60338,1.38505 0.88338,0.2743 1.99254,0.49873 2.46479,0.49873 0.47225,0 1.11025,0.13466 1.41776,0.29924 0.30752,0.16458 1.25219,0.46223 2.09928,0.66146 1.70825,0.40176 3.89556,0.9305 5.90577,1.42762 0.7276,0.17994 2.08711,0.54961 3.02112,0.8215 0.93401,0.27189 2.04317,0.49435 2.46479,0.49435 0.42162,0 1.02658,0.13914 1.34434,0.30921 0.31777,0.17006 1.29221,0.45961 2.16542,0.64343 0.87322,0.18383 2.12344,0.47464 2.77829,0.64625 0.65484,0.1716 2.14312,0.54635 3.30729,0.83276 1.16416,0.28641 2.65245,0.69049 3.30729,0.89794 0.65484,0.20746 1.54781,0.37843 1.98437,0.37994 0.43657,0.002 0.97235,0.12106 1.19063,0.26566 0.21828,0.14462 0.69453,0.23209 1.05833,0.19439 l 0.66146,-0.0685 z m 5.85738,2.8649 c 0.8094,-0.14353 3.59433,-0.94683 5.02708,-1.45005 0.43656,-0.15333 1.32953,-0.38119 1.98437,-0.50635 0.65485,-0.12516 1.66688,-0.40531 2.24896,-0.62256 0.58208,-0.21725 1.30347,-0.40023 1.60308,-0.40662 0.29961,-0.006 0.77586,-0.18642 1.05833,-0.40007 0.28248,-0.21365 0.86239,-0.39225 1.28869,-0.39688 0.4263,-0.005 1.5574,-0.255 2.51354,-0.55638 0.95615,-0.30139 2.39329,-0.72663 3.19365,-0.945 0.80037,-0.21836 2.16959,-0.62664 3.04271,-0.90729 0.87313,-0.28064 1.83264,-0.51024 2.13224,-0.51021 0.29961,3e-5 0.77586,-0.17476 1.05834,-0.38841 0.28247,-0.21365 0.93031,-0.39628 1.43963,-0.40585 0.50932,-0.01 1.40229,-0.24744 1.98437,-0.5286 0.58209,-0.28117 1.35599,-0.51467 1.7198,-0.51888 0.3638,-0.004 1.19724,-0.17529 1.85208,-0.38014 0.65484,-0.20486 2.08359,-0.63287 3.175,-0.95112 1.09141,-0.31826 2.34156,-0.69929 2.77812,-0.84674 0.43657,-0.14746 1.32954,-0.36457 1.98438,-0.48247 0.65484,-0.11791 1.54781,-0.40256 1.98437,-0.63256 0.43657,-0.22999 1.09141,-0.41831 1.45521,-0.41849 0.36381,-1.8e-4 1.19724,-0.17416 1.85209,-0.38663 0.65484,-0.21247 2.08359,-0.63844 3.175,-0.9466 1.0914,-0.30816 2.34156,-0.68249 2.77812,-0.83185 0.43656,-0.14936 1.38449,-0.38879 2.10652,-0.53208 0.72202,-0.14328 1.63884,-0.42914 2.03738,-0.63523 0.39854,-0.20609 1.05795,-0.37893 1.46536,-0.38409 0.40741,-0.005 1.0384,-0.17953 1.4022,-0.3875 0.3638,-0.20797 0.89958,-0.38062 1.19063,-0.38367 0.29104,-0.003 1.3626,-0.25394 2.38124,-0.55754 1.01865,-0.3036 2.4474,-0.71464 3.175,-0.91343 0.72761,-0.19879 1.91823,-0.55598 2.64584,-0.79375 0.7276,-0.23777 1.8587,-0.5363 2.51354,-0.66339 2.02311,-0.39263 4.02414,-1.2686 4.96424,-2.17312 0.87736,-0.84416 2.43515,-2.95614 2.45307,-3.32576 0.005,-0.10184 0.23902,-0.66142 0.52019,-1.24351 0.28117,-0.58208 0.51525,-1.31168 0.52019,-1.62133 0.005,-0.30965 0.21448,-1.02403 0.46566,-1.5875 0.39079,-0.87667 0.45759,-1.94239 0.46302,-7.38599 0.006,-5.61969 -0.0477,-6.44392 -0.45668,-7.0683 -0.25466,-0.38874 -0.46302,-0.92071 -0.46302,-1.18216 0,-0.77894 -1.64096,-3.03895 -2.79256,-3.84605 -1.47636,-1.03471 -3.50376,-1.23839 -5.28777,-0.53121 -1.96221,0.77782 -3.05263,1.14924 -4.18444,1.42534 -0.56099,0.13685 -1.35875,0.424 -1.7728,0.63811 -0.41405,0.21412 -1.03363,0.3893 -1.37685,0.3893 -0.34321,0 -0.85514,0.17481 -1.13762,0.38846 -0.28247,0.21365 -0.78917,0.39225 -1.126,0.39688 -0.33682,0.005 -1.17026,0.23116 -1.85208,0.50342 -0.68182,0.27225 -2.13264,0.76093 -3.22405,1.08594 -1.09141,0.32502 -2.35956,0.75711 -2.81811,0.96021 -0.45856,0.20309 -1.05714,0.36926 -1.33019,0.36926 -0.27305,0 -0.73131,0.1617 -1.01835,0.35933 -0.28704,0.19764 -0.98037,0.44341 -1.54073,0.54616 -0.56036,0.10275 -1.39379,0.34282 -1.85208,0.53349 -0.45829,0.19067 -1.72622,0.61601 -2.81762,0.94522 -1.9006,0.57327 -2.71605,0.84328 -4.7625,1.5769 -0.50933,0.18258 -1.46183,0.48922 -2.11667,0.68141 -1.46947,0.43129 -2.64794,0.82883 -4.37074,1.47442 -0.73042,0.27371 -1.54548,0.49765 -1.81126,0.49765 -0.26577,0 -0.79926,0.16076 -1.18551,0.35725 -0.87022,0.44268 -3.04019,1.19887 -4.27416,1.48945 -0.98164,0.23117 -1.95044,0.552 -4.10615,1.35981 -0.73042,0.27371 -1.56713,0.49766 -1.85936,0.49766 -0.29223,0 -0.76618,0.1617 -1.05322,0.35933 -0.28704,0.19764 -0.96335,0.44021 -1.5029,0.53906 -0.53956,0.0988 -1.31347,0.35314 -1.71979,0.56508 -0.40633,0.21194 -0.98018,0.38609 -1.27523,0.38698 -0.29504,8e-4 -0.77129,0.16333 -1.05833,0.36097 -0.28704,0.19763 -0.98037,0.4434 -1.54073,0.54615 -0.56036,0.10275 -1.39379,0.34222 -1.85208,0.53215 -1.31655,0.54563 -2.57925,0.9697 -4.00825,1.34614 -1.30132,0.34281 -2.26934,0.65898 -4.10104,1.33945 -0.50932,0.18922 -1.2237,0.41993 -1.5875,0.5127 -1.53353,0.39103 -3.40571,1.29566 -3.4938,1.68819 -0.1511,0.67326 0.23387,19.48206 0.4544,22.20126 0.20775,2.56164 0.59664,3.4077 1.41987,3.08902 0.2359,-0.0913 0.78609,-0.22938 1.22266,-0.30679 z m -22.92885,-39.32632 c 0.39348,-0.47412 0.81108,-9.13974 0.85037,-17.64587 0.0178,-3.8563 0.0219,-7.15751 0.009,-7.33601 -0.0269,-0.37473 -1.84385,-1.31063 -3.1983,-1.64744 -0.50933,-0.12665 -1.28323,-0.35734 -1.7198,-0.51264 -3.38797,-1.20521 -5.71537,-1.96158 -6.61458,-2.14966 -0.58208,-0.12174 -1.41552,-0.40802 -1.85208,-0.63617 -0.43656,-0.22815 -1.03889,-0.41556 -1.33849,-0.41645 -0.29961,-8e-4 -0.77586,-0.17644 -1.05834,-0.39009 -0.28247,-0.21365 -0.7656,-0.39225 -1.07362,-0.39688 -0.30801,-0.005 -1.14145,-0.22935 -1.85208,-0.49939 -2.32274,-0.88264 -3.12689,-1.14293 -4.33476,-1.40309 -0.65485,-0.14105 -1.54782,-0.41281 -1.98438,-0.60392 -0.95677,-0.41884 -2.23414,-0.8645 -3.83646,-1.33847 -1.48271,-0.4386 -2.7943,-0.89221 -3.87595,-1.34049 -0.45829,-0.18993 -1.28065,-0.42926 -1.82747,-0.53184 -0.54682,-0.10259 -1.30296,-0.34762 -1.6803,-0.54453 -0.37733,-0.1969 -0.99891,-0.35874 -1.38128,-0.35964 -0.38236,-7.9e-4 -0.83109,-0.16536 -0.99718,-0.36548 -0.16608,-0.20013 -0.78847,-0.44166 -1.38309,-0.53674 -0.59461,-0.0951 -1.41988,-0.34806 -1.83394,-0.56218 -0.41406,-0.21412 -1.02992,-0.38931 -1.36857,-0.38931 -0.33865,0 -0.85666,-0.16876 -1.15113,-0.37501 -0.29447,-0.20626 -1.00557,-0.46128 -1.58022,-0.56671 -0.57466,-0.10543 -1.27968,-0.35339 -1.56672,-0.55103 -0.28704,-0.19763 -0.76099,-0.35933 -1.05322,-0.35933 -0.29223,0 -1.12894,-0.22395 -1.85935,-0.49766 -1.78156,-0.6676 -3.01718,-1.09043 -3.97387,-1.35984 -0.43656,-0.12294 -1.38906,-0.42828 -2.11667,-0.67853 -5.36065,-1.84372 -6.59173,-2.22658 -7.15932,-2.22653 -0.29961,3e-5 -0.77586,-0.17475 -1.05833,-0.3884 -0.28248,-0.21365 -0.75172,-0.39298 -1.04276,-0.39851 -0.29104,-0.006 -0.87856,-0.19224 -1.30559,-0.41492 -0.42703,-0.22269 -1.20094,-0.5091 -1.71979,-0.63649 -1.02467,-0.25156 -2.06444,-0.59654 -4.12349,-1.36813 -1.90945,-0.71554 -4.7291,-0.68055 -5.79934,0.072 -1.31033,0.9213 -2.27347,2.22584 -3.14892,4.26509 l -0.8209,1.91218 0.003,6.2177 c 0.003,5.28483 0.071,6.37143 0.45537,7.24221 0.24875,0.56348 0.45228,1.34066 0.45228,1.72707 0,0.38641 0.16255,0.93742 0.36123,1.22446 0.19868,0.28704 0.44873,0.80206 0.55566,1.14449 0.57917,1.85468 3.60102,5.06594 4.76713,5.06594 0.23522,0 0.76588,0.17489 1.17924,0.38865 0.41336,0.21376 1.38971,0.49903 2.16967,0.63394 0.77996,0.1349 1.80506,0.37673 2.278,0.53739 0.47295,0.16066 1.24685,0.42557 1.7198,0.5887 0.47294,0.16312 1.4552,0.4175 2.18281,0.56529 0.7276,0.14779 1.6981,0.43104 2.15665,0.62945 0.45856,0.19841 1.02793,0.36075 1.26527,0.36075 0.23734,0 0.86138,0.1796 1.38674,0.39911 0.52536,0.21951 1.56334,0.50478 2.30661,0.63393 0.74327,0.12916 1.70858,0.36146 2.14515,0.51623 1.74471,0.61855 3.49306,1.14812 4.49791,1.36241 0.58208,0.12414 1.89177,0.48095 2.91042,0.79292 1.01864,0.31196 2.32833,0.68828 2.91041,0.83625 1.88053,0.47805 4.74137,1.29221 5.55626,1.58124 0.43656,0.15484 1.0914,0.33506 1.4552,0.40049 0.6835,0.12292 3.76287,0.99887 5.15938,1.46763 0.43656,0.14653 1.37032,0.36778 2.07501,0.49166 0.70469,0.12388 1.42497,0.34451 1.60062,0.49028 0.17566,0.14578 0.84925,0.34637 1.49687,0.44575 0.64763,0.0994 1.49901,0.34273 1.89196,0.54077 0.39296,0.19804 0.98827,0.36005 1.32292,0.36002 0.53072,-4e-5 1.78716,0.35779 4.84179,1.37894 0.43656,0.14594 1.26999,0.35202 1.85208,0.45796 0.94885,0.1727 2.43009,0.60669 4.7625,1.39539 0.43656,0.14762 1.32953,0.35079 1.98437,0.45149 0.65485,0.1007 1.45682,0.32836 1.78216,0.50592 0.32534,0.17757 1.09925,0.42722 1.71979,0.55479 0.62054,0.12757 1.48545,0.35282 1.92201,0.50055 0.43656,0.14773 1.32953,0.406 1.98438,0.57394 0.65484,0.16793 1.7264,0.46715 2.38125,0.66493 1.53564,0.4638 1.9871,0.47336 2.33886,0.0495 z m 8.10121,-0.46645 c 0.79913,-0.28087 1.75741,-0.51067 2.12952,-0.51067 0.37211,0 1.104,-0.1786 1.62642,-0.39688 0.52243,-0.21828 1.2368,-0.39687 1.5875,-0.39687 0.35071,0 1.08031,-0.18921 1.62134,-0.42047 0.54103,-0.23126 1.579,-0.51541 2.3066,-0.63143 1.7498,-0.27903 4.78071,-1.0281 6.02463,-1.48895 0.54865,-0.20326 1.36015,-0.36957 1.80333,-0.36957 0.44319,0 1.03567,-0.12303 1.31663,-0.27339 0.28097,-0.15037 1.19587,-0.39949 2.03313,-0.55361 0.83726,-0.15412 1.65851,-0.3924 1.825,-0.52951 0.16649,-0.13711 0.9404,-0.32112 1.71979,-0.40892 0.7794,-0.0878 1.65513,-0.28236 1.94608,-0.43235 0.29096,-0.14999 1.24346,-0.42312 2.11667,-0.60695 0.87322,-0.18382 2.12344,-0.46934 2.77829,-0.63449 0.65484,-0.16514 1.66687,-0.41775 2.24895,-0.56136 0.58209,-0.14361 1.71318,-0.42694 2.51355,-0.62963 0.80036,-0.20268 1.96122,-0.49396 2.57968,-0.64728 0.61847,-0.15331 1.6305,-0.40593 2.24896,-0.56136 0.61847,-0.15543 1.83893,-0.43301 2.71214,-0.61684 0.87322,-0.18382 1.84765,-0.47337 2.16542,-0.64343 0.31777,-0.17007 0.91301,-0.30862 1.32276,-0.3079 0.40975,7.9e-4 1.28078,-0.17683 1.93562,-0.39455 1.74006,-0.57852 4.17216,-1.19366 5.72086,-1.44695 0.74538,-0.12191 1.59315,-0.34898 1.88393,-0.5046 0.29078,-0.15562 1.1692,-0.39369 1.95205,-0.52905 0.78285,-0.13537 1.78056,-0.36917 2.21712,-0.51957 0.43656,-0.1504 1.38906,-0.3916 2.11667,-0.536 1.26999,-0.25205 2.13405,-0.46549 5.02708,-1.24177 0.7276,-0.19524 1.8587,-0.47331 2.51354,-0.61793 1.79499,-0.39641 3.47985,-0.83657 4.36563,-1.14049 0.43656,-0.14979 1.39434,-0.36472 2.1284,-0.47762 0.73406,-0.11291 1.92468,-0.38927 2.64583,-0.61413 1.77472,-0.55338 3.42892,-0.96385 5.01535,-1.24452 0.7276,-0.12872 2.03729,-0.46377 2.91042,-0.74456 l 1.5875,-0.51052 0.0925,-1.28796 c 0.0509,-0.70838 -0.0432,-2.59765 -0.20907,-4.19838 -0.49944,-4.82039 0.57282,-13.21428 1.85724,-14.53886 0.3626,-0.37394 0.29475,-1.65682 -0.0955,-1.80659 -0.42301,-0.16233 -2.76356,0.18648 -4.68781,0.69862 -2.0598,0.54822 -4.05621,0.94581 -6.34072,1.26279 -1.08631,0.15073 -2.30078,0.44247 -2.69884,0.64831 -0.39806,0.20585 -1.2035,0.37427 -1.78987,0.37427 -0.58636,0 -1.51501,0.16906 -2.06366,0.37569 -0.54864,0.20662 -1.74114,0.4506 -2.64999,0.54217 -0.90886,0.0916 -2.06589,0.33922 -2.57119,0.55035 -0.50531,0.21113 -1.32431,0.38387 -1.82001,0.38387 -0.4957,0 -1.36273,0.16194 -1.92673,0.35987 -0.564,0.19793 -1.72448,0.44642 -2.57885,0.55221 -0.85437,0.10579 -2.0302,0.36056 -2.61295,0.56617 -0.58276,0.20561 -1.46513,0.37383 -1.96083,0.37383 -0.4957,0 -1.2844,0.15996 -1.75267,0.35546 -0.46827,0.1955 -1.62531,0.44004 -2.57119,0.54342 -0.94589,0.10337 -2.31511,0.35095 -3.04271,0.55017 -1.43459,0.39278 -3.123,0.75577 -6.21771,1.33672 -3.78504,0.71055 -4.90081,0.95149 -6.08542,1.31407 -0.65484,0.20043 -1.96453,0.44661 -2.91041,0.54707 -0.94589,0.10045 -2.12129,0.34615 -2.612,0.54599 -0.49072,0.19985 -1.265,0.36335 -1.72064,0.36335 -0.45563,0 -1.6611,0.23813 -2.67882,0.52917 -1.01772,0.29104 -2.22276,0.52917 -2.67787,0.52917 -0.45511,0 -1.33366,0.17859 -1.95234,0.39687 -0.61868,0.21828 -1.47006,0.39688 -1.89196,0.39688 -0.4219,0 -1.4446,0.23812 -2.27267,0.52917 -0.82806,0.29104 -2.0133,0.52916 -2.63387,0.52916 -0.62056,0 -1.57718,0.16846 -2.12583,0.37434 -0.54865,0.20589 -1.66539,0.44309 -2.48164,0.5271 -0.81625,0.084 -1.91375,0.33228 -2.4389,0.5517 -0.52514,0.21942 -1.47944,0.39895 -2.12066,0.39895 -0.64122,0 -1.67204,0.17859 -2.29072,0.39687 -0.61868,0.21828 -1.39204,0.39687 -1.71859,0.39687 -0.32655,0 -1.33912,0.23813 -2.25016,0.52917 -0.91104,0.29104 -2.04306,0.52917 -2.51561,0.52917 -1.55767,0 -1.56891,0.0599 -1.75776,9.36669 -0.0948,4.67098 -0.26094,10.11782 -0.36924,12.10411 -0.10831,1.98628 -0.1186,3.81552 -0.0229,4.06497 0.14753,0.38448 0.39452,0.42601 1.62165,0.27269 0.79619,-0.0995 2.10145,-0.41067 2.90057,-0.69154 z"
         id="path30" />
    </g>
  </g>
</svg>
