<?xml version="1.0" encoding="UTF-8" standalone="no"?>
<svg
   xmlns:dc="http://purl.org/dc/elements/1.1/"
   xmlns:cc="http://creativecommons.org/ns#"
   xmlns:rdf="http://www.w3.org/1999/02/22-rdf-syntax-ns#"
   xmlns:svg="http://www.w3.org/2000/svg"
   xmlns="http://www.w3.org/2000/svg"
   xmlns:sodipodi="http://sodipodi.sourceforge.net/DTD/sodipodi-0.dtd"
   xmlns:inkscape="http://www.inkscape.org/namespaces/inkscape"
   width="387.10599"
   height="421.95099"
   viewBox="0 0 102.42179 111.6412"
   version="1.1"
   id="svg8"
   inkscape:version="1.0.2 (e86c870879, 2021-01-15)"
   sodipodi:docname="braveicon.svg">
  <defs
     id="defs2" />
  <sodipodi:namedview
     id="base"
     pagecolor="#ffffff"
     bordercolor="#666666"
     borderopacity="1.0"
     inkscape:pageopacity="0.0"
     inkscape:pageshadow="2"
     inkscape:zoom="0.7"
     inkscape:cx="191.84529"
     inkscape:cy="98.993073"
     inkscape:document-units="mm"
     inkscape:current-layer="layer1"
     inkscape:document-rotation="0"
     showgrid="false"
     units="px"
     borderlayer="true"
     inkscape:showpageshadow="false"
     inkscape:snap-global="true"
     inkscape:snap-page="true"
     inkscape:window-width="1680"
     inkscape:window-height="987"
     inkscape:window-x="0"
     inkscape:window-y="29"
     inkscape:window-maximized="1" />
  <metadata
     id="metadata5">
    <rdf:RDF>
      <cc:Work
         rdf:about="">
        <dc:format>image/svg+xml</dc:format>
        <dc:type
           rdf:resource="http://purl.org/dc/dcmitype/StillImage" />
        <dc:title></dc:title>
      </cc:Work>
    </rdf:RDF>
  </metadata>
  <g
     inkscape:label="Capa 1"
     inkscape:groupmode="layer"
     id="layer1">
    <g
       id="g898"
       transform="translate(-139.80052,-17.505413)">
      <path
         style="fill:#ffffff;fill-opacity:1;stroke:none;stroke-width:0.264583px;stroke-linecap:butt;stroke-linejoin:miter;stroke-opacity:1"
         d="m 163.47024,33.869738 54.4785,-0.611127 18.80395,29.572339 -41.93391,58.00957 L 150.16604,75.305088 149.20003,45.3416 Z"
         id="path64" />
      <g
         id="g46"
         transform="translate(-135.30441,-5.3024541)">
        <path
           style="fill:#ecc8b3;stroke-width:0.264583"
           d="m 323.96862,133.94982 c -0.63049,-0.2799 -1.82111,-0.97308 -2.64583,-1.54039 -0.82473,-0.56732 -7.03591,-4.70295 -13.80263,-9.19029 -16.42837,-10.89446 -16.7435,-11.21563 -19.43821,-19.81157 -0.68428,-2.18281 -2.06078,-6.528595 -3.05888,-9.657293 -0.99809,-3.128698 -3.14029,-9.855729 -4.76043,-14.948958 -1.62014,-5.09323 -3.39644,-10.629636 -3.94734,-12.303125 -1.36264,-4.139322 -1.47672,-5.036053 -0.82742,-6.503901 0.44802,-1.012825 2.29094,-4.199609 6.93185,-11.986564 l 1.00687,-1.68942 -0.14965,-2.808496 -0.14966,-2.808494 3.70801,-3.678904 c 4.1703,-4.137562 3.58708,-3.89315 7.69064,-3.222957 1.36615,0.223119 2.57904,0.346878 2.6953,0.275021 0.20205,-0.124873 3.0407,-3.46187 7.45732,-8.766524 1.67087,-2.006824 2.18817,-2.466577 2.77812,-2.469051 22.19461,-0.09306 38.27239,0.02863 38.58984,0.292087 0.2051,0.170223 2.34226,2.664722 4.74924,5.543331 2.40697,2.878609 4.53945,5.296435 4.73883,5.372945 0.19939,0.07651 1.63302,-0.09 3.18585,-0.370032 1.83603,-0.331098 2.97675,-0.423973 3.26205,-0.265589 0.24129,0.133954 2.03447,1.848742 3.98484,3.810641 l 3.54613,3.567089 -0.17508,2.734097 -0.17507,2.734096 3.6064,6.085416 c 4.63253,7.816887 4.90947,8.399947 4.71271,9.921875 -0.0847,0.654844 -0.91344,3.512344 -1.84173,6.35 -0.92829,2.837657 -2.83782,8.790782 -4.24341,13.229167 -1.40558,4.438385 -3.50242,11.046354 -4.65965,14.684375 -1.15722,3.638018 -2.38102,7.516708 -2.71955,8.619308 -1.17524,3.82778 -2.8979,6.53433 -5.72434,8.99377 -1.89123,1.64566 -27.8855,19.02134 -29.66332,19.82823 -1.42361,0.64612 -3.17845,0.63864 -4.6618,-0.0199 z m 3.52968,-21.63686 c 0.43772,-0.26694 2.51801,-1.95064 4.62287,-3.74156 2.10487,-1.79092 5.11572,-4.20839 6.69079,-5.37215 1.87396,-1.3846 2.83669,-2.26295 2.78546,-2.5413 -0.0866,-0.47052 -2.34787,-1.672236 -7.35434,-3.908367 -6.39047,-2.854291 -7.72489,-3.143491 -10.34507,-2.242016 -3.33983,1.14907 -12.06777,5.259507 -12.64521,5.955283 -0.4664,0.56197 -0.21549,0.86198 2.05423,2.45627 1.90175,1.33582 4.10455,3.08402 8.63292,6.8513 4.01335,3.33882 4.15007,3.40136 5.55835,2.54254 z M 312.22613,95.242067 c 4.08527,-1.869274 5.60898,-2.845607 8.83946,-5.663994 2.57677,-2.248056 3.38791,-3.166496 3.38791,-3.836064 0,-0.493855 -1.74813,-2.214795 -5.15938,-5.079132 -3.37457,-2.833537 -4.81084,-4.345371 -5.05594,-5.321922 -0.17963,-0.715722 0.2241,-2.026663 2.14639,-6.969406 1.38902,-3.571546 1.25903,-5.355658 -0.4729,-6.490462 -0.60443,-0.396038 -7.44495,-3.110973 -12.14685,-4.820964 -2.93888,-1.068817 -3.53829,-1.43138 -3.31753,-2.006675 0.20309,-0.529227 1.39785,-0.718052 6.1913,-0.978492 l 3.92428,-0.213215 3.96875,1.299851 c 2.18281,0.714917 4.445,1.567524 5.02709,1.894681 1.95871,1.100883 1.95887,1.114187 0.10471,9.191712 -1.4875,6.480217 -1.60431,7.198381 -1.23144,7.571251 0.58386,0.583864 4.14417,1.390195 6.94756,1.573471 3.51852,0.230032 9.12812,-0.97306 9.12812,-1.957707 0,-0.361297 -0.41433,-2.258814 -2.34236,-10.727174 -0.9666,-4.245563 -0.87493,-4.769393 1.00175,-5.724388 1.48315,-0.754742 8.05085,-2.880558 9.4599,-3.061956 0.70038,-0.09017 3.1114,0.02228 5.35782,0.249851 6.15654,0.623715 6.10137,0.96965 -0.55033,3.450926 -2.67134,0.996484 -5.61495,2.09459 -6.54135,2.440228 -6.38277,2.381412 -6.6996,3.171595 -4.00418,9.986365 0.87313,2.207498 1.5875,4.391117 1.5875,4.852487 0,1.097161 -0.80248,1.991765 -5.14193,5.732203 -3.66265,3.157056 -5.17682,4.702652 -5.17682,5.284269 0,0.403575 3.66655,3.9888 5.82084,5.691728 1.66387,1.315267 8.99004,4.997611 10.39727,5.225975 1.87849,0.304835 5.42982,-2.502453 6.83329,-5.401635 1.03998,-2.148311 0.97877,-3.729286 -0.27153,-7.012657 -0.59622,-1.565719 -1.08403,-3.29492 -1.08403,-3.842665 0,-1.147318 0.68217,-1.869036 8.62551,-9.125585 5.25747,-4.8029 6.02172,-5.624079 6.45442,-6.935179 0.63647,-1.928498 -0.32847,-3.958596 -5.303,-11.156863 -3.06408,-4.4338 -6.06256,-8.47303 -7.16965,-9.65817 -0.87001,-0.931344 -0.82999,-0.935053 -5.5177,0.511535 -4.65218,1.435624 -6.39317,1.879063 -7.44282,1.895729 -0.5283,0.0084 -3.26673,-0.656376 -6.08542,-1.477254 -6.71257,-1.954884 -7.51939,-1.970431 -13.19468,-0.254275 -6.44196,1.94799 -6.94951,2.005156 -10.15141,1.143323 -1.47448,-0.396878 -3.69291,-1.029134 -4.92984,-1.405017 -1.23692,-0.37588 -2.84233,-0.702823 -3.56755,-0.726535 l -1.3186,-0.04311 -3.04703,4.283983 c -7.44818,10.471808 -9.36475,13.516588 -9.65688,15.341523 -0.2977,1.859661 0.44825,2.828533 6.31241,8.198802 2.3464,2.148793 5.30799,4.914937 6.5813,6.146988 2.20977,2.138172 2.3151,2.292265 2.3151,3.386873 0,0.716542 -0.39705,2.148454 -1.05833,3.816678 -0.67185,1.694911 -1.05833,3.096549 -1.05833,3.838231 0,2.512171 2.26538,5.895994 5.21455,7.78904 1.65322,1.061186 2.25642,0.975286 6.37058,-0.907203 z"
           id="path60" />
        <path
           style="fill:#e6ae94;stroke-width:0.264583"
           d="m 325.64412,132.98764 c -1.52517,-0.31945 -3.61922,-1.61173 -16.58771,-10.23662 -17.76169,-11.81266 -18.3749,-12.378 -20.42525,-18.83053 -0.50581,-1.59179 -3.06071,-9.621203 -5.67756,-17.84313 -2.61685,-8.221927 -5.36318,-16.857345 -6.10296,-19.189816 -0.73978,-2.332472 -1.34506,-4.720185 -1.34506,-5.306031 0,-1.122558 0.31199,-1.716614 5.783,-11.011307 l 2.44512,-4.15403 -0.18473,-2.682214 -0.18474,-2.682214 3.6739,-3.680944 c 2.28738,-2.291764 3.87495,-3.681266 4.20661,-3.681798 0.29299,-4.76e-4 1.7583,0.198445 3.25623,0.442034 2.36165,0.384041 2.77379,0.392616 3.10187,0.06453 0.2081,-0.208094 2.38295,-2.758494 4.83301,-5.667555 l 4.45465,-5.289201 19.26948,-0.06788 c 15.15766,-0.0534 19.35493,0.003 19.66994,0.264469 0.22026,0.182795 2.41577,2.743421 4.87891,5.69028 2.46314,2.94686 4.61593,5.357926 4.78397,5.357926 0.16804,0 1.6523,-0.20132 3.29836,-0.447379 l 2.99283,-0.44738 3.69691,3.688526 3.69692,3.688525 -0.071,2.910417 -0.071,2.910416 3.96399,6.614584 3.96399,6.614583 -0.002,1.719792 c -0.002,1.490517 -0.54098,3.395263 -4.04541,14.2875 -6.24283,19.403613 -7.87291,24.509627 -8.78461,27.516667 -2.02833,6.69001 -2.68095,7.30359 -20.14813,18.94275 -14.90331,9.93073 -16.55754,10.87829 -18.33956,10.50503 z m 1.79908,-20.35943 c 0.46572,-0.24015 2.57316,-1.90038 4.68321,-3.68938 2.11006,-1.78901 5.14615,-4.24373 6.74688,-5.45492 1.97131,-1.4916 2.93812,-2.39602 2.99627,-2.80292 0.0766,-0.5359 -0.35172,-0.810162 -3.96875,-2.541313 -6.26805,-2.999959 -9.93502,-4.3894 -11.58437,-4.3894 -1.73421,0 -5.00631,1.268082 -11.12336,4.310777 -3.43608,1.709147 -4.38299,2.293406 -4.44718,2.743976 -0.0654,0.4589 0.43322,0.93861 2.51354,2.41831 1.42731,1.01522 4.47637,3.41218 6.7757,5.32657 4.23118,3.52282 5.59388,4.51217 6.21743,4.51396 0.18913,5.3e-4 0.72491,-0.1955 1.19063,-0.43566 z M 312.40956,95.446568 c 4.26117,-1.919623 6.50178,-3.419506 9.76658,-6.537838 1.95451,-1.866823 2.54804,-2.595208 2.54539,-3.123718 -0.004,-0.7839 -0.90525,-1.688018 -6.08887,-6.107724 -1.81901,-1.550943 -3.52733,-3.194561 -3.79626,-3.652483 -0.6425,-1.093989 -0.49234,-1.820534 1.27543,-6.171065 1.80661,-4.44614 1.9256,-5.079407 1.244,-6.620288 -0.66586,-1.505288 -1.12114,-1.743628 -9.17421,-4.802756 -3.34698,-1.271421 -6.41673,-2.481744 -6.82167,-2.689606 -1.51552,-0.777941 -0.39636,-1.074187 5.32424,-1.40934 l 3.87868,-0.22724 3.96875,1.333637 c 6.80728,2.287482 6.84848,2.332779 5.85124,6.43273 -1.90478,7.831106 -2.64252,11.555855 -2.37455,11.988882 0.39186,0.633225 4.50231,1.622158 7.50352,1.805274 2.12435,0.129614 2.98286,0.04666 5.54457,-0.535763 1.66707,-0.379018 3.21251,-0.870596 3.43431,-1.092396 0.44554,-0.445537 0.32666,-1.130694 -1.81295,-10.449097 -1.14487,-4.986099 -1.10434,-5.531427 0.47004,-6.325693 1.53583,-0.774811 8.10129,-2.899373 9.48761,-3.070159 1.56265,-0.192508 9.02614,0.514734 9.40237,0.890972 0.34763,0.347625 -0.21076,0.600381 -6.28532,2.845072 -6.42025,2.372426 -9.43417,3.686789 -9.98144,4.352875 -0.74224,0.903396 -1.02649,2.336694 -0.70355,3.547549 0.15646,0.586671 0.92795,2.68881 1.71442,4.67142 0.78647,1.982607 1.42817,3.947139 1.426,4.365625 -0.005,1.022313 -0.92009,2.005761 -5.63189,6.054505 -4.28398,3.68113 -4.82273,4.29977 -4.58149,5.260946 0.17162,0.683789 4.53917,4.797314 6.59633,6.212681 1.7493,1.203548 8.6311,4.519285 9.75996,4.702474 1.28245,0.208114 2.57579,-0.455109 4.62415,-2.371259 1.16923,-1.093753 1.92661,-2.093169 2.50558,-3.306307 1.15943,-2.429365 1.11158,-3.681206 -0.2726,-7.132373 -1.04122,-2.59605 -1.27596,-3.765892 -0.93431,-4.656217 0.0856,-0.222935 2.07985,-2.165694 4.43177,-4.317246 7.22892,-6.613038 10.1819,-9.588757 10.51396,-10.594912 0.3826,-1.159274 0.14692,-2.670196 -0.66708,-4.276531 -1.45547,-2.872235 -10.4843,-15.659053 -12.13964,-17.192414 -0.8259,-0.76504 -1.30137,-0.703043 -5.86643,0.764948 -3.88922,1.250661 -6.19662,1.846961 -7.14687,1.846961 -0.39627,0 -3.05799,-0.67949 -5.91493,-1.509975 -6.96644,-2.025078 -7.40285,-2.024152 -14.44078,0.03057 -5.91037,1.725525 -6.06821,1.734534 -9.93596,0.567116 -4.8425,-1.461635 -7.1969,-2.02591 -8.12604,-1.947556 -0.93269,0.07865 -1.09777,0.265044 -4.39282,4.95998 -8.81283,12.556905 -9.78219,14.267497 -9.30815,16.425741 0.24641,1.121939 2.34367,3.304495 9.35467,9.735148 l 5.9162,5.426477 -0.12181,1.346356 c -0.067,0.740495 -0.55639,2.44512 -1.08755,3.788055 -1.27247,3.217199 -1.27704,4.405583 -0.0266,6.90516 0.97391,1.94673 3.22934,4.30345 4.96623,5.189254 1.23235,0.628494 2.28811,0.39927 6.12773,-1.330447 z"
           id="path58" />
        <path
           style="fill:#ec8c61;stroke-width:0.264583"
           d="m 323.65975,131.90289 c -0.80037,-0.42056 -7.58693,-4.84671 -15.08125,-9.83588 -11.19894,-7.45543 -13.95835,-9.4118 -15.49165,-10.98329 -2.06303,-2.1144 -3.42973,-4.46693 -4.30575,-7.41157 -0.56463,-1.89793 -4.25413,-13.565355 -7.86472,-24.870831 -5.01327,-15.69755 -5.39238,-17.001194 -5.16931,-17.775627 0.2264,-0.785987 1.94027,-3.860128 5.20948,-9.344165 3.06127,-5.135221 3.00403,-4.97223 2.82994,-8.058306 l -0.1499,-2.657319 3.63307,-3.505729 c 2.37226,-2.289101 3.83077,-3.505604 4.20273,-3.505368 0.31331,1.99e-4 1.58168,0.17863 2.81861,0.396514 3.02524,0.532894 3.11047,0.522949 3.96822,-0.463021 1.15048,-1.322455 5.50669,-6.507518 7.24487,-8.623357 l 1.55581,-1.893831 h 19.24732 19.24732 l 4.36993,5.225521 c 2.40346,2.874037 4.62069,5.45216 4.92718,5.729164 0.53911,0.487253 0.64297,0.489406 3.19155,0.06615 1.44886,-0.240624 2.88241,-0.437497 3.18565,-0.437497 0.35027,0 1.85431,1.272589 4.12403,3.489403 l 3.57269,3.489404 -0.0761,2.926743 -0.0761,2.926741 2.27301,3.836459 c 4.38476,7.40071 5.55786,9.493046 5.80443,10.352804 0.26953,0.939768 0.24144,1.039268 -4.28452,15.179487 -6.06959,18.962873 -7.71181,24.136451 -8.69249,27.384371 -1.03037,3.41253 -2.56908,5.99139 -4.83615,8.10535 -1.60676,1.49825 -27.22936,18.77647 -29.90338,20.16491 -1.93423,1.00431 -3.68335,1.03396 -5.47447,0.0928 z m 4.24768,-19.33186 c 0.64695,-0.41713 2.90519,-2.23322 5.01832,-4.03577 2.11312,-1.80254 4.7325,-3.91759 5.82083,-4.7001 3.8872,-2.79491 4.14048,-3.29855 2.22368,-4.421871 -1.73838,-1.018757 -9.59822,-4.506383 -11.88808,-5.275064 -2.26744,-0.761153 -2.98551,-0.797687 -4.84204,-0.246359 -2.80908,0.834208 -12.87047,5.527966 -13.51545,6.305124 -0.59741,0.71984 -0.0596,1.41438 2.50015,3.22887 1.37843,0.97709 4.49854,3.43975 6.93359,5.47258 4.02009,3.35604 5.49348,4.39093 6.29379,4.42065 0.15341,0.006 0.80825,-0.33093 1.45521,-0.74806 z M 312.36885,95.691244 c 1.77161,-0.806915 4.18506,-2.104892 5.36323,-2.884394 2.76228,-1.827586 7.25786,-6.115588 7.25366,-6.91872 -0.004,-0.839795 -1.07365,-1.95258 -5.49081,-5.714383 -3.95895,-3.371572 -4.83102,-4.372478 -4.83102,-5.544749 0,-0.358097 0.71325,-2.423321 1.58499,-4.589383 1.77529,-4.411136 1.99262,-5.920592 1.07024,-7.433352 -0.66984,-1.098585 -1.27247,-1.387351 -9.00523,-4.315063 -3.56526,-1.349852 -6.63864,-2.576624 -6.82974,-2.726161 -0.65735,-0.514403 0.41807,-0.746414 4.79509,-1.034497 l 4.28361,-0.281938 3.88825,1.349595 c 4.82234,1.673812 5.97702,2.247969 6.18466,3.075271 0.0877,0.34953 -0.14623,1.925658 -0.5199,3.502512 -1.04617,4.414702 -2.22546,9.640538 -2.41818,10.715744 -0.14876,0.830019 -0.0845,1.027057 0.44674,1.368933 0.90153,0.58022 3.41431,1.177975 6.44317,1.532736 2.41374,0.282713 2.90136,0.259051 5.51925,-0.267838 3.24685,-0.653478 4.60053,-1.142169 4.83157,-1.744239 0.0873,-0.227526 -0.5679,-3.596418 -1.45602,-7.486425 -0.93542,-4.097187 -1.54603,-7.328225 -1.45139,-7.680015 0.0958,-0.356206 0.61421,-0.837621 1.25386,-1.164426 1.69058,-0.863751 7.81252,-2.849184 9.34266,-3.029961 1.47506,-0.17427 8.16277,0.364966 8.80511,0.709962 0.4914,0.26393 -0.21648,0.592399 -5.15103,2.390148 -4.73953,1.726702 -9.21321,3.556119 -10.07165,4.118586 -1.87234,1.226804 -1.89255,3.190274 -0.0793,7.698946 2.06412,5.132338 2.16525,5.534933 1.62159,6.455281 -0.24907,0.421637 -1.93848,2.044811 -3.75424,3.607051 -4.90011,4.215932 -5.57939,4.857983 -5.99981,5.670984 -0.3364,0.650526 -0.33451,0.835787 0.0154,1.512504 0.57673,1.115282 5.52207,5.438449 7.65233,6.689595 2.34462,1.377045 7.50165,3.800509 8.60125,4.042021 1.90723,0.418899 5.9607,-2.764271 7.43317,-5.837245 1.09627,-2.28785 1.02386,-3.732467 -0.37356,-7.45335 -0.81654,-2.174168 -1.16438,-3.456479 -1.05539,-3.890708 0.0981,-0.390732 2.43548,-2.739308 5.89155,-5.919671 9.37753,-8.629463 9.8728,-9.260798 9.2949,-11.848582 -0.35442,-1.587116 -0.89932,-2.540357 -4.51951,-7.906361 -3.47637,-5.152813 -7.80523,-10.897425 -8.70368,-11.550205 -0.6103,-0.443416 -0.78426,-0.451565 -2.24896,-0.105326 -0.87313,0.206396 -3.13531,0.870442 -5.02709,1.475658 -4.9364,1.579258 -5.57362,1.597277 -10.10102,0.285628 -6.0846,-1.762794 -8.1619,-2.195081 -9.56052,-1.98955 -0.6823,0.100264 -3.43891,0.820838 -6.12581,1.601277 -2.6869,0.780436 -5.36581,1.418572 -5.95313,1.418079 -1.04551,-7.93e-4 -3.1709,-0.525131 -7.94702,-1.960218 -1.30968,-0.393526 -3.02571,-0.738341 -3.81339,-0.766255 l -1.43215,-0.05076 -1.42858,1.984375 c -2.74036,3.806484 -9.89808,14.284815 -10.52402,15.406325 -0.34692,0.621573 -0.75756,1.697384 -0.91255,2.390691 -0.54212,2.425144 -0.20854,2.842696 9.18305,11.494611 3.56396,3.283267 5.95331,5.681369 6.05186,6.074021 0.1022,0.407202 -0.10528,1.357347 -0.55715,2.551478 -1.68329,4.44831 -1.78038,4.80292 -1.66008,6.063498 0.36634,3.838895 5.27318,9.010814 8.08962,8.526645 0.48397,-0.0832 2.32944,-0.811472 4.10104,-1.618385 z"
           id="path56" />
        <path
           style="fill:#e17749;stroke-width:0.264583"
           d="m 324.0474,131.75395 c -0.73267,-0.34118 -7.4597,-4.69324 -14.94895,-9.67124 -11.83933,-7.86943 -13.89586,-9.33473 -15.75441,-11.22515 -2.36394,-2.40447 -3.39502,-4.19901 -4.43252,-7.71457 -0.34356,-1.16417 -1.78496,-5.748078 -3.20311,-10.186463 -3.16054,-9.89157 -9.38831,-29.500735 -9.68279,-30.487893 -0.22315,-0.748053 -0.0182,-1.260559 1.72148,-4.304815 0.4158,-0.727605 0.95986,-1.680104 1.20902,-2.116667 0.24916,-0.436563 1.37447,-2.341562 2.5007,-4.233333 2.50285,-4.204142 2.80717,-5.121582 2.59811,-7.832635 l -0.15816,-2.050923 3.2317,-3.128012 c 1.77743,-1.720408 3.4168,-3.231648 3.64305,-3.358313 0.24279,-0.135927 0.80423,-0.113125 1.3701,0.05564 0.52731,0.157268 1.91125,0.362934 3.07542,0.457036 l 2.11666,0.171093 1.45521,-1.697657 c 0.80037,-0.933711 2.34818,-2.809244 3.43959,-4.167851 1.0914,-1.358607 2.6024,-3.137475 3.35776,-3.953039 l 1.37339,-1.482844 19.31174,-0.07118 19.31173,-0.07118 3.20629,3.707589 c 1.76346,2.039173 3.7996,4.452456 4.52477,5.362849 0.72516,0.910394 1.49396,1.865728 1.70844,2.122966 0.24527,0.294157 0.61034,0.418034 0.98386,0.333843 0.32664,-0.07362 1.7714,-0.316742 3.21058,-0.540262 l 2.61668,-0.406401 1.74894,1.643865 c 0.96192,0.904126 2.50699,2.42263 3.43348,3.374454 l 1.68454,1.730587 -0.12579,1.960115 c -0.20422,3.182218 -0.2322,3.117038 5.38129,12.534585 2.39221,4.013312 2.61934,4.473602 2.6198,5.309151 2.3e-4,0.408681 -0.61027,2.670868 -1.35665,5.027083 -4.11864,13.001861 -5.67444,17.895202 -7.62919,23.995483 -1.18906,3.710782 -2.70121,8.532813 -3.36032,10.715629 -1.67307,5.54084 -2.94886,7.73876 -6.17426,10.63701 -1.67533,1.50541 -28.67312,19.35793 -29.96212,19.81272 -1.49339,0.5269 -2.51062,0.46372 -4.04606,-0.25127 z m 3.54048,-18.80038 c 0.39977,-0.20673 2.50722,-1.88332 4.68322,-3.72576 2.17599,-1.84245 5.14698,-4.23813 6.60219,-5.32373 3.54642,-2.6457 3.57187,-2.66872 3.57187,-3.23104 0,-0.902675 -0.86961,-1.408661 -7.64865,-4.450367 -5.31893,-2.386565 -7.52489,-3.095387 -9.06585,-2.913044 -2.12075,0.250952 -13.59677,5.298734 -14.96162,6.58095 -1.03126,0.968811 -0.77581,1.385621 2.10763,3.438851 1.49087,1.06162 4.61626,3.52189 6.94531,5.46727 5.79549,4.84077 6.11385,5.01118 7.7659,4.15687 z M 312.54725,95.735763 c 3.98251,-1.83625 5.542,-2.804424 8.36689,-5.194416 2.76374,-2.338247 4.33311,-4.048427 4.33311,-4.721897 0,-0.712682 -1.40707,-2.231134 -4.47744,-4.831874 -3.43621,-2.91062 -5.2801,-4.693954 -5.7239,-5.535919 -0.44796,-0.849845 -0.29708,-1.405615 1.70752,-6.289691 0.94842,-2.310776 1.34977,-3.648898 1.34908,-4.497917 -10e-4,-1.368734 -0.66421,-2.658562 -1.72359,-3.352697 -0.74158,-0.485899 -7.07823,-2.99389 -11.30827,-4.47571 -1.41999,-0.497435 -2.84874,-1.04788 -3.175,-1.223208 -0.58944,-0.31676 -0.58817,-0.320207 0.20055,-0.544209 0.43657,-0.123983 2.63922,-0.29446 4.8948,-0.378833 l 4.10104,-0.153408 3.84944,1.361136 c 4.67323,1.652421 5.54327,2.137156 5.54327,3.088394 0,0.383447 -0.29291,1.903246 -0.65091,3.377324 -1.66148,6.841265 -2.5383,11.082107 -2.38874,11.553349 0.18195,0.573244 1.62254,1.067615 4.98665,1.711277 3.61821,0.692277 7.12497,0.431028 11.22041,-0.835906 1.01751,-0.314767 1.43276,-0.58765 1.53913,-1.011433 0.13553,-0.540028 -0.31719,-2.703809 -2.28664,-10.929009 -0.42803,-1.78761 -0.77824,-3.541038 -0.77824,-3.896503 0,-0.873956 0.71747,-1.297329 4.57125,-2.69749 4.52059,-1.642425 6.21529,-1.930768 9.67563,-1.646246 4.0488,0.332907 5.16931,0.514464 4.89124,0.792531 -0.13216,0.132164 -2.08129,0.879297 -4.3314,1.660292 -5.03216,1.746628 -9.87715,3.723245 -10.88457,4.440594 -0.41532,0.295736 -0.93193,0.879589 -1.14801,1.297454 -0.71329,1.379352 -0.48015,2.647717 1.3269,7.218648 0.94589,2.392614 1.7198,4.583443 1.7198,4.86851 0,0.57072 -2.10421,2.671146 -6.21771,6.206535 -4.60521,3.957995 -4.84213,4.361522 -3.5022,5.965309 1.30112,1.557341 4.88386,4.754857 6.53968,5.836526 2.47083,1.614072 8.47933,4.371412 9.78895,4.492212 1.04104,0.09603 1.40302,-0.02397 2.78619,-0.923573 3.0226,-1.965896 5.42175,-5.557694 5.42175,-8.116974 0,-1.058014 -0.78327,-3.533458 -2.125,-6.7158 -0.67487,-1.600658 -0.71052,-1.558073 7.96349,-9.511231 2.55632,-2.34388 5.09797,-4.75982 5.64811,-5.368753 2.78507,-3.082748 2.26848,-4.786371 -4.28936,-14.145588 -3.97977,-5.67984 -7.18542,-9.896933 -7.7549,-10.201712 -0.5758,-0.308157 -2.56311,0.105365 -6.18921,1.28787 -3.89215,1.269267 -5.43475,1.671116 -6.46981,1.685401 -0.53869,0.0074 -2.9309,-0.547653 -5.31601,-1.233527 -2.38512,-0.685874 -5.09591,-1.405916 -6.02397,-1.600094 -2.28831,-0.478774 -3.18546,-0.31931 -11.16153,1.983941 -3.45128,0.996627 -4.48294,0.997402 -7.80577,0.0059 -4.42143,-1.31938 -7.55896,-2.114212 -8.34562,-2.114212 -0.56092,0 -0.97201,0.280197 -1.64978,1.12448 -1.41228,1.759246 -10.91463,15.552621 -11.53578,16.745053 -0.73027,1.401918 -1.05137,3.212811 -0.76466,4.31242 0.27163,1.041759 3.0469,3.885914 10.2573,10.511927 3.51799,3.232859 4.91694,4.685626 4.97351,5.164847 0.0433,0.366723 -0.46272,2.114185 -1.12448,3.883244 -0.6733,1.799924 -1.20319,3.671478 -1.20319,4.249621 0,1.248096 1.41351,4.20079 2.76921,5.784623 0.51905,0.606388 1.68589,1.598991 2.59298,2.205784 1.46601,0.980672 1.78156,1.089609 2.83989,0.980418 0.6717,-0.0693 2.6321,-0.787476 4.49792,-1.647764 z"
           id="path54" />
        <path
           style="fill:#f56d30;stroke-width:0.264583"
           d="m 323.13058,130.9016 c -1.23693,-0.66243 -2.54661,-1.48705 -2.91042,-1.83249 -0.3638,-0.34544 -0.89958,-0.7242 -1.19062,-0.84168 -0.29104,-0.11749 -2.12024,-1.28517 -4.06488,-2.59486 -1.94464,-1.30969 -3.86934,-2.58157 -4.27712,-2.8264 -0.40777,-0.24484 -1.31701,-0.87254 -2.02053,-1.3949 -0.70353,-0.52236 -1.61938,-1.15548 -2.03524,-1.40693 -0.41586,-0.25146 -2.36439,-1.52875 -4.33007,-2.83844 -1.96568,-1.30969 -3.77313,-2.50031 -4.01655,-2.64583 -2.79423,-1.67041 -6.1922,-4.82928 -7.07851,-6.58042 -0.23047,-0.45535 -0.56604,-1.00651 -0.74572,-1.22479 -0.30483,-0.37033 -0.8089,-1.78235 -1.4168,-3.96875 -0.1416,-0.50932 -0.93181,-3.009635 -1.75601,-5.55625 -0.8242,-2.546614 -1.97389,-6.237552 -2.55487,-8.202083 -0.58098,-1.964531 -1.17605,-3.862001 -1.32238,-4.216601 -0.14633,-0.3546 -0.62071,-1.78335 -1.05418,-3.175 -0.43348,-1.39165 -1.49931,-4.73293 -2.36852,-7.425066 -0.86922,-2.692135 -1.82736,-5.728229 -2.12921,-6.746875 -0.61946,-2.090441 -0.89744,-2.952011 -1.47048,-4.557519 -0.35131,-0.984303 -0.35271,-1.205696 -0.0117,-1.852083 0.47928,-0.908479 1.97283,-3.507402 2.75716,-4.797745 0.32211,-0.529919 0.73909,-1.261142 0.92664,-1.624944 0.18754,-0.363802 0.80607,-1.375834 1.3745,-2.248959 0.56844,-0.873125 1.44178,-2.444766 1.94075,-3.492537 0.75721,-1.590026 0.90501,-2.193171 0.89385,-3.647532 -0.007,-0.958371 -0.0781,-1.847287 -0.1573,-1.975364 -0.31123,-0.503584 0.48291,-1.751045 2.13724,-3.357225 0.95314,-0.925403 1.84523,-1.68255 1.98243,-1.68255 0.1372,0 0.38312,-0.293347 0.54648,-0.651883 0.16336,-0.358535 0.72635,-0.949223 1.25109,-1.312641 0.95115,-0.658723 0.9606,-0.659596 3.07075,-0.283389 1.16417,0.207552 2.67435,0.381522 3.35595,0.386599 1.14428,0.0085 1.2964,-0.07063 1.98438,-1.032574 0.4098,-0.572992 1.37846,-1.793383 2.15257,-2.711979 0.77412,-0.918596 1.96474,-2.360643 2.64584,-3.204548 2.34294,-2.903022 3.05253,-3.660224 3.78501,-4.039005 0.61793,-0.319542 3.7307,-0.379747 19.63422,-0.379747 h 18.89986 l 1.5125,1.785938 c 0.83188,0.982265 2.26154,2.619375 3.17703,3.638021 2.26853,2.524153 3.48157,4.065628 4.03219,5.123939 l 0.46337,0.890606 1.98688,-0.174167 c 1.09278,-0.09579 2.74015,-0.243126 3.66083,-0.327409 l 1.67396,-0.153244 2.75781,2.794806 c 1.5168,1.537143 2.75781,2.920814 2.75781,3.074825 0,0.154011 0.17859,0.280019 0.39688,0.280019 0.45643,0 0.43745,-0.1231 0.4895,3.175 0.0382,2.4214 0.0785,2.580155 1.09799,4.330729 0.58209,0.999453 1.46037,2.547265 1.95174,3.439583 0.49137,0.892318 1.55633,2.693959 2.36657,4.003646 0.81024,1.309687 1.75836,2.937777 2.10694,3.617976 l 0.63378,1.236726 -0.80652,2.467441 c -0.44358,1.357093 -1.21978,3.777128 -1.72488,5.377857 -0.5051,1.600729 -1.0384,3.267604 -1.18511,3.704167 -0.14671,0.436562 -0.64612,2.043906 -1.1098,3.571875 -0.74771,2.463945 -2.97402,9.363842 -3.71359,11.509375 -0.15049,0.436562 -0.44551,1.448593 -0.65562,2.248958 -0.2101,0.800365 -0.54185,1.871927 -0.73723,2.38125 -0.19537,0.509323 -0.68301,1.997604 -1.08365,3.307292 -0.40063,1.309687 -1.01231,3.274218 -1.35929,4.365621 -0.34697,1.09141 -0.87983,2.84096 -1.18413,3.88789 -0.30429,1.04693 -0.72227,2.04377 -0.92884,2.21521 -0.20657,0.17143 -0.37557,0.421 -0.37557,0.5546 0,0.9422 -4.80061,6.0423 -5.68748,6.0423 -0.11548,0 -0.46061,0.25082 -0.76697,0.55736 -0.51785,0.51817 -7.17198,4.99889 -7.42365,4.99889 -0.0624,0 -1.06958,0.65485 -2.23824,1.45521 -1.16866,0.80037 -2.29409,1.45521 -2.50095,1.45521 -0.20685,0 -0.43945,0.16508 -0.51687,0.36685 -0.0774,0.20177 -1.48915,1.25751 -3.13716,2.3461 -5.11326,3.37754 -8.46048,5.59573 -9.41366,6.23841 -1.17155,0.78991 -2.81412,1.36861 -3.8686,1.36297 -0.46839,-0.002 -1.80129,-0.52639 -3.07559,-1.20884 z m 4.65969,-17.81154 c 0.45278,-0.2761 2.41731,-1.85537 4.36563,-3.5095 4.06944,-3.45497 7.54525,-6.18467 9.15978,-7.19357 1.41411,-0.88365 1.70255,-1.79195 0.85541,-2.69369 -0.33185,-0.353242 -0.85243,-0.719375 -1.15684,-0.813628 -0.3044,-0.09425 -2.2655,-0.993635 -4.358,-1.998628 -2.0925,-1.004996 -4.47375,-2.073905 -5.29167,-2.375355 -0.81792,-0.30145 -1.90384,-0.708575 -2.41317,-0.904722 -1.07025,-0.41217 -3.9264,-0.492932 -4.81619,-0.136186 -0.33427,0.134017 -1.73886,0.684109 -3.12131,1.222425 -3.34587,1.302859 -9.76499,4.511532 -10.54521,5.271141 -0.84378,0.821503 -0.58196,1.514293 0.97172,2.571293 2.19219,1.4914 5.39179,3.97516 8.64745,6.71277 5.51194,4.63487 6.00637,4.88186 7.7024,3.84765 z m -17.6694,-16.070456 c 5.41037,-2.144086 9.19972,-4.544142 13.0296,-8.252548 3.04895,-2.952244 2.94609,-3.571917 -1.16388,-7.011527 -2.90472,-2.430944 -6.0953,-5.256792 -6.45437,-5.716529 -0.67909,-0.869487 -0.37238,-2.444406 1.16158,-5.9646 1.80432,-4.140618 2.06808,-5.846194 1.15526,-7.470331 -0.31857,-0.566824 -0.79934,-1.168056 -1.06837,-1.336069 -0.97134,-0.606615 -3.8411,-1.724358 -12.02572,-4.683905 -1.4481,-0.523629 -2.68833,-1.007481 -2.75608,-1.075227 -0.30263,-0.302633 0.40495,-0.41107 4.29642,-0.658442 l 4.148,-0.263676 3.76395,1.292037 c 6.47794,2.223662 6.50461,2.24372 5.88849,4.428503 -0.20103,0.712862 -0.48968,1.891425 -0.64144,2.619029 -0.15177,0.727604 -0.70367,3.255994 -1.22645,5.618644 -1.0478,4.735446 -1.10796,6.212715 -0.25666,6.302359 0.29105,0.03065 1.5412,0.306758 2.77813,0.613584 3.54674,0.879785 6.51903,0.981904 9.66137,0.331933 1.45744,-0.301463 3.12432,-0.711684 3.70416,-0.9116 0.96356,-0.332214 1.06067,-0.452382 1.12874,-1.396704 0.041,-0.568269 -0.35235,-2.878685 -0.87402,-5.134258 -0.52168,-2.255573 -1.16578,-5.113073 -1.43134,-6.35 -0.26557,-1.236927 -0.56208,-2.437696 -0.65891,-2.668373 -0.37013,-0.881716 0.71671,-1.569868 4.60958,-2.918645 5.2663,-1.824631 6.01646,-1.937486 10.24635,-1.541479 1.93159,0.180838 3.51199,0.423894 3.51199,0.540126 0,0.116231 -0.68461,0.413808 -1.52136,0.661281 -1.6694,0.493734 -3.58013,1.196062 -7.60677,2.796013 -6.42006,2.550962 -7.15745,3.162523 -7.12499,5.909202 0.0156,1.319514 0.29501,2.252977 1.65517,5.529657 1.92036,4.626245 1.91502,4.965602 -0.10713,6.805935 -0.69992,0.636987 -1.46773,1.346642 -1.70625,1.577012 -0.23852,0.23037 -1.38827,1.208609 -2.55499,2.173867 -1.16673,0.965255 -2.61536,2.306987 -3.21917,2.981626 -1.5603,1.743308 -1.49667,2.38273 0.42351,4.256051 2.58903,2.525855 4.97663,4.495879 6.58972,5.437211 2.36443,1.379789 7.94432,3.934291 8.95046,4.097565 2.50996,0.40731 7.56668,-4.279635 8.33994,-7.730088 0.37152,-1.657807 0.18192,-2.719241 -1.08745,-6.087737 -0.56688,-1.504323 -1.03069,-3.03327 -1.03069,-3.397665 0,-0.525433 1.32769,-1.892012 6.41614,-6.604029 9.59212,-8.88252 9.44492,-8.689838 8.78838,-11.504165 -0.35454,-1.519809 -1.38851,-3.380391 -4.42275,-7.958596 -0.69123,-1.042947 -1.25677,-1.968201 -1.25677,-2.056116 0,-0.08792 -0.26789,-0.422074 -0.59532,-0.742575 -0.32742,-0.320497 -1.07156,-1.27241 -1.65364,-2.115357 -0.58209,-0.842946 -1.44529,-2.004623 -1.91823,-2.5815 -0.47294,-0.576879 -0.8599,-1.141701 -0.8599,-1.255162 0,-0.208354 -0.86381,-1.280329 -2.16246,-2.683587 -0.98657,-1.066048 -2.01021,-1.002924 -6.31194,0.389226 -1.96027,0.634397 -4.40291,1.368849 -5.42808,1.632114 l -1.86393,0.478669 -2.63398,-0.732446 c -1.44869,-0.402847 -3.88414,-1.1005 -5.41211,-1.55034 -3.0244,-0.890399 -6.78024,-1.137446 -8.33437,-0.548208 -0.43656,0.165518 -1.56766,0.509479 -2.51354,0.764352 -0.94589,0.254876 -2.89573,0.82477 -4.33297,1.266431 -3.00892,0.924628 -3.42127,0.889389 -8.60299,-0.735254 -1.54789,-0.485314 -3.79532,-1.093189 -4.99428,-1.350835 -2.17302,-0.466958 -2.18182,-0.466662 -2.77433,0.09338 -0.58431,0.552291 -1.48105,1.800416 -6.98008,9.715148 -4.93013,7.095924 -5.67641,8.313502 -5.97863,9.754307 -0.52337,2.495203 -0.22189,3.155648 2.79397,6.120693 1.48015,1.455209 4.86407,4.645348 7.51983,7.089196 3.80949,3.505528 4.82864,4.584126 4.82864,5.110276 0,0.366803 -0.47625,1.930728 -1.05833,3.475392 -1.14788,3.046111 -1.35698,5.121085 -0.7009,6.955348 0.76888,2.149621 3.98055,5.55864 6.12486,6.50121 1.15727,0.508701 1.82119,0.450948 3.79133,-0.329803 z"
           id="path52" />
        <path
           style="fill:#f66d2d;stroke-width:0.264583"
           d="m 324.51476,131.19976 c -0.43951,-0.36982 -0.90799,-0.6724 -1.04108,-0.6724 -0.13308,0 -0.46477,-0.16292 -0.73709,-0.36204 -0.47715,-0.3489 -0.47327,-0.37375 0.10669,-0.68413 0.50688,-0.27128 0.69178,-0.243 1.17216,0.17926 0.31369,0.27574 0.90625,0.64443 1.31679,0.81933 0.46815,0.19943 0.71476,0.48135 0.66146,0.75617 -0.13555,0.6989 -0.61941,0.68706 -1.47893,-0.0362 z m 3.29982,-0.26721 c 0.47157,-0.64792 1.93058,-0.95927 1.93058,-0.41198 0,0.31394 -1.39893,1.06512 -1.98359,1.06512 -0.37244,0 -0.36618,-0.0772 0.053,-0.65314 z m -1.38562,-1.21336 c -0.10514,-0.17013 -0.0271,-0.41576 0.17345,-0.54584 0.53545,-0.34733 1.42296,-0.16291 1.42296,0.29568 0,0.48402 -1.32368,0.69145 -1.59641,0.25016 z m 4.10995,0.0456 c 0,-0.14552 0.11907,-0.33817 0.26459,-0.4281 0.14552,-0.0899 0.26458,-0.0445 0.26458,0.10106 0,0.14552 -0.11906,0.33816 -0.26458,0.4281 -0.14552,0.0899 -0.26459,0.0445 -0.26459,-0.10106 z m -9.32656,-0.32544 c -0.25466,-0.14369 -0.46302,-0.49346 -0.46302,-0.77727 0,-0.73632 0.95522,-0.6743 1.1511,0.0747 0.19542,0.74729 -0.0908,1.03954 -0.68808,0.70254 z m 9.85573,-1.27885 c 0,-0.30004 0.30213,-0.65954 0.72437,-0.86191 0.3984,-0.19095 0.76787,-0.57308 0.82104,-0.84917 0.0532,-0.2761 0.38502,-0.81097 0.73745,-1.18861 0.52543,-0.56304 0.68363,-0.61816 0.8789,-0.30625 0.16093,0.25706 0.0705,0.59342 -0.27878,1.03752 -0.33824,0.43 -0.42711,0.74693 -0.25712,0.91693 0.40682,0.40682 -0.13064,1.14555 -1.07226,1.4738 -1.19437,0.41637 -1.5536,0.36496 -1.5536,-0.22231 z m -9.12837,-0.27941 c -0.33767,-0.54637 0.11053,-1.58711 0.68351,-1.58711 0.45061,0 0.52705,0.14315 0.45798,0.85773 -0.0844,0.87307 -0.77855,1.31662 -1.14149,0.72938 z m -3.74484,-0.63269 c -0.43641,-0.24237 -0.51088,-0.42241 -0.31758,-0.76781 0.32722,-0.58472 0.82786,-0.57284 1.37582,0.0327 0.89099,0.98453 0.22449,1.44754 -1.05824,0.73515 z m 1.79707,-1.41564 c -0.39149,-0.73152 0.0136,-1.19024 0.86281,-0.97709 0.53843,0.13513 0.69671,0.31992 0.63636,0.74294 -0.10567,0.74079 -1.14145,0.90255 -1.49917,0.23415 z m 16.10322,0.23074 c 0,-0.39351 0.84494,-1.35702 1.19002,-1.35702 0.61284,0 0.74481,0.54234 0.22554,0.92689 -0.58305,0.43179 -1.41556,0.68475 -1.41556,0.43013 z m -19.05,-0.82786 c 0,-0.14552 0.11907,-0.26458 0.26459,-0.26458 0.14552,0 0.26458,0.11906 0.26458,0.26458 0,0.14552 -0.11906,0.26459 -0.26458,0.26459 -0.14552,0 -0.26459,-0.11907 -0.26459,-0.26459 z m 14.3254,0.029 c -0.25024,-0.15857 -0.27028,-0.28228 -0.0661,-0.40844 0.3356,-0.20742 0.82199,0.0263 0.82199,0.39503 0,0.30764 -0.28354,0.31267 -0.75585,0.0134 z m -16.83894,-0.29361 c -0.0899,-0.14552 0.0221,-0.26458 0.24897,-0.26458 0.22687,0 0.41249,0.11906 0.41249,0.26458 0,0.14552 -0.11204,0.26458 -0.24897,0.26458 -0.13693,0 -0.32255,-0.11906 -0.41249,-0.26458 z m 25.27302,-1.4616 c 0.18407,-0.2218 0.38917,-0.34878 0.45576,-0.28219 0.18349,0.18349 -0.18932,0.68546 -0.50908,0.68546 -0.17545,0 -0.15537,-0.15182 0.0533,-0.40327 z m -27.52198,-0.39048 c 0,-0.29104 0.17268,-0.52917 0.38373,-0.52917 0.21105,0 0.47894,-0.15781 0.59531,-0.35068 0.32569,-0.53979 1.06654,-0.71524 1.38743,-0.32859 0.39139,0.4716 0.07,1.20844 -0.52708,1.20844 -0.26688,0 -0.55882,0.11906 -0.64876,0.26458 -0.30496,0.49343 -1.19063,0.29661 -1.19063,-0.26458 z m 28.7356,-0.6831 c -0.22521,-0.58688 -0.208,-0.63982 0.20797,-0.63982 0.39911,0 0.75263,0.6427 0.49515,0.90017 -0.2721,0.27211 -0.53634,0.17426 -0.70312,-0.26035 z m -30.45407,-0.10853 c -0.0979,-0.15848 -0.61457,-0.56452 -1.14804,-0.90232 -0.53347,-0.33779 -1.23117,-1.08146 -1.55044,-1.65259 l -0.5805,-1.03842 0.63019,-0.0521 c 0.44656,-0.037 0.68381,0.12005 0.81421,0.53883 0.10121,0.32504 0.49557,1.04091 0.87635,1.59082 0.52302,0.75533 0.83791,0.97459 1.28764,0.89659 0.67655,-0.11734 0.77243,0.14075 0.22199,0.59757 -0.26588,0.22066 -0.42456,0.2269 -0.5514,0.0217 z m 1.18931,-1.06898 c 0,-0.4098 1.15476,-0.77504 1.3716,-0.43382 0.0995,0.15663 0.12228,0.37977 0.0505,0.49586 -0.19209,0.31081 -1.42213,0.25716 -1.42213,-0.062 z m 30.60347,-0.16787 c -0.36108,-0.36108 -0.15808,-0.65147 0.3982,-0.56961 0.7271,0.10699 0.97149,0.746 0.28531,0.746 -0.27892,0 -0.5865,-0.0794 -0.68351,-0.17639 z m 1.88409,-1.50755 c -0.40988,-0.3114 -0.36309,-0.38712 0.49085,-0.79433 0.90936,-0.43365 1.94659,-0.38044 1.94659,0.0999 0,0.32909 -1.09871,1.05712 -1.58023,1.04709 -0.22228,-0.005 -0.60803,-0.1633 -0.85721,-0.35261 z m -39.30688,-1.27372 c 0.14341,-0.43024 0.93407,-0.89911 1.15077,-0.68241 0.0977,0.0977 0.10717,0.3614 0.021,0.58595 -0.18126,0.47235 -1.32855,0.56679 -1.17177,0.0965 z m 4.08151,-0.26112 c -0.30849,-1.15213 -0.22536,-1.26489 0.62114,-0.8426 1.01748,0.50759 1.07143,0.99437 0.0957,0.86379 -0.0929,-0.0124 -0.25495,0.11669 -0.36017,0.28694 -0.12262,0.1984 -0.2507,0.0878 -0.3567,-0.30813 z m 38.72114,0.0438 c 0,-0.14552 0.18562,-0.26458 0.41249,-0.26458 0.22687,0 0.33891,0.11906 0.24897,0.26458 -0.0899,0.14552 -0.27556,0.26459 -0.41249,0.26459 -0.13693,0 -0.24897,-0.11907 -0.24897,-0.26459 z m -44.18542,-0.52916 c 0,-0.14552 0.12609,-0.26459 0.2802,-0.26459 0.15411,0 0.20662,0.11907 0.11668,0.26459 -0.0899,0.14552 -0.21603,0.26458 -0.2802,0.26458 -0.0642,0 -0.11668,-0.11906 -0.11668,-0.26458 z m 45.50834,-0.22358 c 0,-0.31778 0.90829,-1.09934 1.2776,-1.09934 0.57051,0 0.31781,0.7052 -0.36401,1.01586 -0.80414,0.36639 -0.91359,0.37639 -0.91359,0.0835 z m -24.08239,-0.44428 c -0.44696,-0.53855 -0.21076,-0.71928 0.98857,-0.75638 0.84806,-0.0263 1.01403,0.06 1.08566,0.56434 0.0737,0.51858 -0.033,0.59531 -0.8275,0.59531 -0.50163,0 -1.06266,-0.18147 -1.24673,-0.40327 z m 18.93207,0.15334 c -0.0949,-0.15358 -0.1059,-0.38712 -0.0244,-0.51898 0.2078,-0.33622 1.24939,-0.0229 1.12873,0.33958 -0.134,0.40249 -0.89049,0.52539 -1.10432,0.1794 z m -42.05849,-0.41721 c -0.57836,-0.43755 -0.44793,-0.75287 0.2074,-0.5014 0.2391,0.0918 0.43474,0.33268 0.43474,0.53539 0,0.44758 -0.006,0.44726 -0.64214,-0.034 z m 2.22964,0.13798 c 0,-0.14552 0.17859,-0.26459 0.39688,-0.26459 0.21828,0 0.39687,0.11907 0.39687,0.26459 0,0.14552 -0.17859,0.26458 -0.39687,0.26458 -0.21829,0 -0.39688,-0.11906 -0.39688,-0.26458 z m 24.99838,-0.88082 c -0.4382,-0.62561 -0.2305,-1.23585 0.42062,-1.23585 0.4962,0 1.03933,0.72175 1.03933,1.38112 0,0.53576 -1.05658,0.43062 -1.45995,-0.14527 z m -6.21296,-0.4421 c 0,-0.14552 0.17859,-0.26458 0.39687,-0.26458 0.21828,0 0.39688,0.11906 0.39688,0.26458 0,0.14552 -0.1786,0.26458 -0.39688,0.26458 -0.21828,0 -0.39687,-0.11906 -0.39687,-0.26458 z m -23.44686,-0.5797 c -0.10756,-0.17404 -0.0405,-0.36652 0.14975,-0.42994 0.18948,-0.0632 0.57507,-0.3454 0.85687,-0.6272 0.53459,-0.5346 1.55783,-0.56394 1.72701,-0.0495 0.10605,0.32245 -1.57392,1.42178 -2.17274,1.42178 -0.20138,0 -0.45378,-0.1418 -0.56089,-0.31512 z m 25.75929,-0.0691 c -0.40164,-0.20952 -1.50975,-1.04222 -2.46245,-1.85045 -0.9527,-0.80824 -1.83197,-1.46952 -1.95394,-1.46952 -0.12196,0 -0.50214,0.2956 -0.84484,0.65689 -0.9685,1.02105 -2.34287,0.75987 -2.34287,-0.44522 0,-0.54618 0.11124,-0.57694 0.7841,-0.21683 0.38682,0.20702 0.57462,0.12222 0.92979,-0.41984 0.24478,-0.37358 0.40578,-0.71277 0.35777,-0.75373 -2.45114,-2.09177 -4.45291,-3.4828 -4.45291,-3.09434 0,0.15714 0.23454,0.41122 0.5212,0.56464 0.44487,0.23809 0.4774,0.37506 0.22211,0.93535 -0.16449,0.36103 -0.51107,0.65641 -0.77017,0.65641 -0.55924,0 -0.99677,-0.58483 -0.54915,-0.73404 0.56155,-0.18718 0.32602,-0.83971 -0.36578,-1.01334 -0.37246,-0.0935 -1.19907,-0.11115 -1.8369,-0.0392 -0.80177,0.0904 -1.20006,0.0255 -1.29047,-0.21006 -0.0719,-0.18742 0.0479,-0.40931 0.26618,-0.49308 0.21832,-0.0838 0.32283,-0.27222 0.23226,-0.41878 -0.0906,-0.14654 -0.0386,-0.26645 0.11552,-0.26645 0.15411,0 0.2802,0.0973 0.2802,0.21623 0,0.11892 0.50602,0.14869 1.12448,0.0661 0.61846,-0.0825 1.10015,-0.24779 1.07042,-0.36721 -0.0297,-0.11943 -0.76535,-0.67687 -1.63469,-1.23875 -1.68232,-1.08733 -2.38825,-1.98128 -1.92802,-2.44151 0.18189,-0.18189 0.55312,-0.0704 1.14899,0.34509 2.08769,1.4557 5.33583,3.9938 8.28861,6.47673 5.51194,4.63487 6.00637,4.88186 7.7024,3.84765 0.45278,-0.2761 2.46149,-1.89517 4.4638,-3.59793 4.775,-4.06066 9.02229,-7.27519 9.61257,-7.27519 0.25998,0 0.58884,-0.11615 0.73081,-0.25812 0.29449,-0.29449 1.96438,0.60345 1.96438,1.05629 0,0.47134 -0.79823,0.61177 -1.46106,0.25703 -0.53229,-0.28487 -0.73752,-0.26864 -1.30507,0.10324 -0.3704,0.24269 -0.67345,0.55452 -0.67345,0.69295 0,0.13843 -0.38384,0.45018 -0.85297,0.69278 -1.00596,0.5202 -5.58967,4.01701 -5.71752,4.36177 -0.0485,0.1308 0.0408,0.2527 0.19844,0.27089 0.68372,0.0789 0.78276,0.11028 0.98452,0.31204 0.36139,0.36138 -0.5057,0.70492 -1.78997,0.70917 -0.78951,0.003 -1.3477,0.15265 -1.57161,0.42244 -0.52719,0.63521 -4.21627,3.58187 -4.98957,3.98541 -0.86695,0.45241 -1.29853,0.44742 -2.20514,-0.0255 z m 27.3209,0.11961 c 0,-0.14552 0.18562,-0.26458 0.41249,-0.26458 0.22687,0 0.33891,0.11906 0.24897,0.26458 -0.0899,0.14552 -0.27556,0.26459 -0.41249,0.26459 -0.13693,0 -0.24897,-0.11907 -0.24897,-0.26459 z m 0.82571,-1.42222 c -0.45414,-0.46856 -0.82571,-0.93304 -0.82571,-1.03217 0,-0.30192 1.78143,0.70439 2.07844,1.17409 0.5344,0.84512 -0.39848,0.73943 -1.25273,-0.14192 z m -55.59446,0.2316 c -0.27918,-0.33638 -0.21868,-0.39688 0.39687,-0.39688 0.61556,0 0.67606,0.0605 0.39688,0.39688 -0.18116,0.21828 -0.35975,0.39687 -0.39688,0.39687 -0.0371,0 -0.21571,-0.17859 -0.39687,-0.39687 z m 1.32292,-1.07674 c 0,-0.27578 0.193,-0.38687 0.57458,-0.33073 0.84707,0.12464 0.93779,0.74601 0.10892,0.74601 -0.44463,0 -0.6835,-0.14513 -0.6835,-0.41528 z m 33.07291,-0.24201 c 0,-0.52108 1.13678,-0.78386 1.81673,-0.41997 0.2987,0.15986 0.63721,0.27495 0.75224,0.25575 0.5341,-0.0891 1.1352,0.0503 1.1352,0.26328 0,0.12953 -0.83344,0.2482 -1.85208,0.2637 -1.47017,0.0224 -1.85209,-0.0524 -1.85209,-0.36276 z m 22.88531,0.12626 c -0.19969,-0.3231 0.52619,-0.64284 0.91452,-0.40284 0.15249,0.0942 0.27726,0.28339 0.27726,0.42032 0,0.33368 -0.98367,0.31925 -1.19178,-0.0175 z m -39.53317,-0.41706 c 0.0127,-0.30823 0.0754,-0.37092 0.15985,-0.15985 0.0764,0.19099 0.067,0.4192 -0.0209,0.50712 -0.0879,0.0879 -0.15046,-0.0684 -0.13897,-0.34727 z m -18.27714,-0.59267 c 0,-0.55887 -0.30709,-1.08533 -1.08946,-1.86769 -1.18212,-1.18213 -2.10557,-1.3928 -2.9108,-0.66407 -0.43603,0.3946 -0.51894,0.37265 -1.14531,-0.30322 -0.69594,-0.75093 -0.87518,-1.55489 -0.41068,-1.84197 0.14552,-0.0899 0.26459,-0.38004 0.26459,-0.64467 0,-0.26464 0.17144,-0.62345 0.38099,-0.79735 0.20954,-0.17391 0.4179,-0.56612 0.46302,-0.87157 0.0451,-0.30546 0.21619,-0.5995 0.38016,-0.65343 0.50609,-0.16645 0.66195,0.759 0.23704,1.40749 -0.22158,0.33818 -0.40288,0.7792 -0.40288,0.98005 0,0.20085 -0.2377,0.5803 -0.52823,0.84322 -0.89738,0.81212 -0.2618,1.14083 1.95323,1.01017 1.81063,-0.10681 1.95482,-0.0758 2.09227,0.4498 0.0812,0.31049 0.39214,0.62846 0.691,0.70662 0.46059,0.12044 0.53892,0.34006 0.51411,1.4414 -0.031,1.3769 -0.48905,2.13105 -0.48905,0.80522 z m 59.66354,0.48243 c 0.0899,-0.14552 0.34212,-0.26459 0.5604,-0.26459 0.21828,0 0.32329,0.11907 0.23335,0.26459 -0.0899,0.14552 -0.34211,0.26458 -0.56039,0.26458 -0.21828,0 -0.32329,-0.11906 -0.23336,-0.26458 z m -62.45369,-0.64944 c -0.82483,-0.82482 -0.82397,-1.20265 0.003,-1.20265 0.65724,0 1.19993,0.65028 1.19993,1.43782 0,0.5991 -0.45793,0.50955 -1.20265,-0.23517 z m 20.20304,-0.0605 c 0.191,-0.0764 0.4192,-0.067 0.50712,0.0209 0.0879,0.0879 -0.0684,0.15045 -0.34726,0.13896 -0.30823,-0.0127 -0.37092,-0.0754 -0.15986,-0.15985 z m 43.44959,-0.41457 c 0.0123,-0.48941 1.31461,-1.39412 1.31461,-0.91326 0,0.36686 -0.80756,1.24399 -1.14532,1.24399 -0.0977,0 -0.17386,-0.14883 -0.16929,-0.33073 z m -1.684,-0.63941 c -0.25782,-0.25782 -0.21542,-1.09118 0.0643,-1.26407 0.46102,-0.28492 1.08221,0.17847 1.08221,0.80731 0,0.43757 -0.14983,0.63315 -0.48507,0.63315 -0.26679,0 -0.56444,-0.0794 -0.66145,-0.17639 z m 1.67569,-1.89618 c 0,-0.37234 0.29785,-0.54389 0.68581,-0.39502 0.20321,0.078 0.30361,0.24837 0.2231,0.37864 -0.18467,0.29881 -0.90891,0.31185 -0.90891,0.0164 z m -20.10833,-1.22542 c 0,-0.21316 0.23812,-0.515 0.52916,-0.67076 0.59568,-0.3188 0.65287,-0.19636 0.25528,0.54656 -0.32298,0.60348 -0.78444,0.67654 -0.78444,0.1242 z m -47.70257,-1.20339 c -0.0921,-0.35218 0.0319,-0.62425 0.36602,-0.80306 0.27791,-0.14874 0.5053,-0.52818 0.5053,-0.8432 0,-0.43675 0.0734,-0.49939 0.309,-0.26377 0.23563,0.23562 0.2331,0.56237 -0.0106,1.37583 -0.341,1.13819 -0.94019,1.41183 -1.1697,0.5342 z m 71.25048,-0.005 c 0,-0.5152 0.66261,-1.00478 0.95889,-0.7085 0.19882,0.19881 -0.39252,1.24597 -0.70361,1.24597 -0.1404,0 -0.25528,-0.24186 -0.25528,-0.53747 z m -51.40821,-0.42353 c -0.31676,-0.31675 -0.2036,-1.42048 0.14519,-1.4162 0.60394,0.007 1.04551,0.44972 0.94904,0.95065 -0.0981,0.50963 -0.76601,0.79378 -1.09423,0.46555 z m 50.61892,-1.75098 c -0.003,-1.16924 0.0862,-1.52136 0.38738,-1.52136 0.68111,0 0.77699,1.23146 0.1697,2.17976 l -0.55262,0.86295 -0.004,-1.52135 z m 1.9025,-1.39286 c -0.38808,-1.45101 -0.41426,-2.77433 -0.0549,-2.77433 0.14552,0 0.26458,0.290629 0.26458,0.64584 0,0.35522 0.11906,0.71943 0.26458,0.80937 0.3114,0.19245 0.36207,2.51354 0.0549,2.51354 -0.11534,0 -0.35346,-0.53749 -0.52917,-1.19442 z m 1.00346,-2.22955 c 0,-0.445148 0.11906,-0.809363 0.26458,-0.809363 0.14552,0 0.26459,0.290629 0.26459,0.645843 0,0.35521 -0.11907,0.71943 -0.26459,0.80937 -0.15436,0.0954 -0.26458,-0.17365 -0.26458,-0.64585 z m -74.87708,0.24897 c 0,-0.14552 0.11906,-0.26458 0.26458,-0.26458 0.14552,0 0.26458,0.11906 0.26458,0.26458 0,0.14552 -0.11906,0.26458 -0.26458,0.26458 -0.14552,0 -0.26458,-0.11906 -0.26458,-0.26458 z m 54.02281,-0.28428 c -0.19198,-0.308553 -0.28178,-0.628278 -0.19955,-0.710505 0.25954,-0.259541 1.52134,0.45784 1.40736,0.800145 -0.18344,0.55098 -0.8395,0.50228 -1.20781,-0.0896 z m -38.80927,0.0197 c -0.27502,-0.444992 0.12449,-0.793753 0.90926,-0.793753 0.75,0 1.48527,0.559985 1.16101,0.884243 -0.2738,0.2738 -1.88875,0.20321 -2.07027,-0.0905 z m -2.51354,-0.52917 c -0.24683,-0.461203 -0.20122,-0.529166 0.35517,-0.529166 0.66415,0 1.35669,0.581191 1.05364,0.88424 -0.35442,0.354426 -1.13429,0.157866 -1.40881,-0.355074 z m 7.52088,0.296522 c 0.0791,-0.127956 0.39057,-0.297183 0.6922,-0.376061 0.45028,-0.11775 0.49256,-0.07612 0.23631,0.232646 -0.33455,0.403103 -1.16862,0.531933 -0.92851,0.143415 z m 42.56932,-0.533229 c -0.12271,-0.469227 -0.34689,-0.557043 -1.42211,-0.557043 -0.70205,0 -1.34414,0.10953 -1.42688,0.243401 -0.0827,0.133871 -1.25062,0.209389 -2.5953,0.167817 -2.54045,-0.07854 -3.55195,-0.397602 -6.94279,-2.190006 -0.91879,-0.485672 -1.21199,-0.563266 -0.95979,-0.254003 0.43445,0.532755 0.086,0.578313 -0.9194,0.120214 -0.69906,-0.318511 -0.7015,-0.327901 -0.12104,-0.464929 0.51881,-0.122475 0.44301,-0.212444 -0.61007,-0.724072 -0.90415,-0.439266 -1.16559,-0.488026 -1.05373,-0.196527 0.0912,0.237633 -0.01,0.387689 -0.26079,0.387689 -0.53998,0 -0.85749,-0.536226 -0.46218,-0.78054 0.22544,-0.139332 0.19283,-0.290295 -0.11856,-0.548719 -0.31844,-0.264284 -0.47859,-0.277175 -0.61909,-0.04983 -0.14322,0.231727 -0.49868,0.227568 -1.45448,-0.01701 -1.33477,-0.341551 -1.63362,-0.764016 -0.69691,-0.985144 0.30822,-0.07276 0.5735,-0.244428 0.58952,-0.381485 0.016,-0.137056 -0.69693,-0.889164 -1.58433,-1.671349 -1.56594,-1.380273 -1.6224,-1.405442 -1.9172,-0.854612 -0.39543,0.738878 -0.15778,1.319946 0.53985,1.319946 0.77699,0 1.57841,0.474914 1.57841,0.935349 0,0.264779 -0.28653,0.387567 -0.9044,0.387567 -1.23735,0 -1.74143,-0.232796 -1.74143,-0.804227 0,-0.265666 -0.23657,-0.558112 -0.52571,-0.649883 -0.70715,-0.224441 -2.87362,0.117991 -3.11631,0.492564 -0.10694,0.16505 -0.446,0.43973 -0.75347,0.610402 -0.45343,0.251693 -0.6409,0.228444 -0.99241,-0.123063 -0.40145,-0.401444 -0.49008,-0.399878 -1.20303,0.02127 -0.42332,0.250058 -0.95099,0.385064 -1.17263,0.300017 -0.23613,-0.09061 -0.9854,0.274693 -1.80981,0.88238 -0.77376,0.570354 -1.68242,1.183637 -2.01924,1.36285 -0.46402,0.246899 -0.5428,0.409694 -0.32515,0.671949 0.21769,0.262297 0.16083,0.379164 -0.23482,0.482627 -0.28713,0.07509 -0.56249,0.01521 -0.61191,-0.133059 -0.0503,-0.150741 -0.66818,0.03615 -1.40175,0.423955 -1.01644,0.537342 -1.13313,0.655584 -0.51814,0.525028 1.00418,-0.213174 0.82026,-0.0127 -0.75833,0.826654 -1.43622,0.763648 -1.87646,0.835226 -1.65949,0.269811 0.1328,-0.346072 0.0262,-0.343119 -0.83159,0.02302 -1.87032,0.798375 -2.21201,0.903108 -2.94639,0.903108 -0.40557,0 -1.14196,-0.294616 -1.63643,-0.654704 -1.15101,-0.838216 -2.02473,-1.239491 -3.14798,-1.44577 -0.0728,-0.01336 0.0278,-0.125754 0.22346,-0.249759 0.27699,-0.175554 0.14268,-0.504606 -0.60674,-1.486395 -1.04995,-1.375516 -1.56176,-2.286135 -1.85875,-3.307122 -0.11647,-0.400389 0.28822,-0.01016 1.02532,0.988719 1.41593,1.918758 3.83042,3.918791 5.25161,4.350146 1.3071,0.396727 2.27607,0.10277 6.79931,-2.06272 3.75218,-1.796347 6.04759,-3.368855 9.21801,-6.314948 1.06055,-0.985504 2.00071,-1.719385 2.08924,-1.630847 0.25399,0.253989 -1.21857,2.332141 -2.34035,3.302812 -0.5607,0.485167 -0.94979,0.994836 -0.86464,1.132599 0.2629,0.425382 2.02242,-0.05652 3.6455,-0.99845 1.25253,-0.726884 1.71914,-0.865931 2.44739,-0.729308 0.85011,0.159483 1.25161,-0.170598 0.65558,-0.538964 -0.13432,-0.08302 -0.31727,-0.483518 -0.40655,-0.890003 -0.13351,-0.607856 -0.28978,-0.729091 -0.88025,-0.682892 -0.39486,0.0309 -0.91092,0.133556 -1.14681,0.228137 -0.60597,0.24297 -0.77232,-0.383574 -0.5221,-1.966457 0.24108,-1.525061 0.36591,-1.724991 0.93957,-1.504855 0.4531,0.173868 0.55882,1.371933 0.1437,1.628489 -0.49999,0.309012 -0.29917,0.97268 0.24232,0.800817 0.2788,-0.08849 0.58468,-0.03504 0.67974,0.118777 0.0951,0.153815 0.28799,0.208497 0.42873,0.121515 0.14074,-0.08698 0.75759,0.345845 1.37078,0.961837 1.99791,2.007039 4.60485,4.141483 6.18326,5.06258 2.36443,1.379789 7.94432,3.934291 8.95046,4.097565 1.73265,0.281167 4.53331,-1.611815 6.66118,-4.50233 1.1759,-1.597334 1.4557,-1.561018 0.66346,0.08611 -0.8155,1.695484 -1.43985,2.502271 -2.96894,3.836458 -1.42535,1.243664 -1.47625,1.328127 -0.84971,1.409886 0.47846,0.06243 0.94002,-0.180142 1.63615,-0.859896 0.53332,-0.520774 1.04917,-0.946865 1.14634,-0.946865 0.0972,0 0.31643,0.46653 0.48727,1.036736 0.19371,0.646546 0.50694,1.088072 0.83225,1.173144 0.55048,0.143954 0.53066,0.72304 -0.0312,0.910315 -0.18242,0.06081 -0.39722,-0.140113 -0.47734,-0.446485 z m -63.46643,-1.426172 c -0.24878,-0.648306 0.1598,-1.158997 0.47567,-0.594556 0.16904,0.302053 0.1596,0.552145 -0.0279,0.739677 -0.20138,0.201382 -0.33088,0.159409 -0.44773,-0.145121 z m 50.95472,-0.178869 c -0.21406,-0.13538 -0.32444,-0.31092 -0.24527,-0.390089 0.0792,-0.07917 0.37338,0.02963 0.6538,0.241782 0.55784,0.422031 0.21887,0.545086 -0.40853,0.148307 z m 25.65692,-1.575787 c 0,-0.324996 0.17084,-0.551215 0.41628,-0.551215 0.24639,0 0.38136,0.180015 0.33073,0.441095 -0.12874,0.663779 -0.74701,0.754923 -0.74701,0.11012 z M 297.3778,95.690554 c -0.26526,-0.265266 -0.21194,-1.357905 0.0749,-1.535197 0.33115,-0.204661 0.88842,0.853276 0.70341,1.335386 -0.15417,0.40177 -0.49012,0.488014 -0.77833,0.199811 z m -8.71646,-0.249796 c -0.31732,-0.31732 -0.19844,-2.055625 0.17413,-2.546265 0.46241,-0.608947 0.69303,-0.326319 0.69303,0.849312 0,0.995569 -0.53047,2.033646 -0.86716,1.696953 z m 10.91893,-0.830585 c -0.2053,-0.545703 -0.39645,-1.734915 -0.42477,-2.642696 -0.0283,-0.90778 -0.20366,-2.244214 -0.38963,-2.969852 -0.27929,-1.089724 -0.2759,-1.435635 0.0195,-1.987513 0.55635,-1.039564 0.82699,-0.794957 0.79759,0.720894 -0.0613,3.163181 0.20898,4.683342 1.03178,5.802175 0.65898,0.896078 0.73645,1.151882 0.47543,1.569847 -0.49375,0.790625 -1.10164,0.592193 -1.50986,-0.492855 z m -12.80395,0.393628 c -0.11954,-0.256447 -0.15011,-0.792228 -0.0679,-1.190625 0.0822,-0.398396 0.24474,-1.190828 0.36124,-1.76096 0.25597,-1.252707 0.87136,-1.605492 0.87136,-0.499526 0,0.416311 -0.17011,0.999794 -0.37802,1.296628 -0.20792,0.296836 -0.42107,1.007938 -0.47367,1.580226 -0.0722,0.785916 -0.14883,0.926434 -0.31299,0.574257 z m 31.85634,-0.19164 c 0,-0.257111 1.46735,-0.971542 2.29777,-1.118754 0.234,-0.04148 0.47521,0.06653 0.53601,0.240023 0.0665,0.189801 -0.44226,0.47961 -1.27734,0.727604 -1.64208,0.487645 -1.55644,0.479329 -1.55644,0.151127 z m 46.1411,-0.90896 c -0.0877,-0.228441 -0.0876,-0.921851 1.3e-4,-1.540907 0.0877,-0.619059 0.16721,-1.333918 0.17663,-1.588579 0.009,-0.254662 0.14366,-0.463021 0.29833,-0.463021 0.17297,0 0.21847,0.313687 0.11821,0.815012 -0.11166,0.558302 -0.0342,0.943795 0.24587,1.223888 0.53244,0.532437 0.39082,1.765922 -0.21596,1.880997 -0.2551,0.04838 -0.53555,-0.09895 -0.62321,-0.32739 z m -38.51779,-1.127414 c 0.191,-0.07643 0.4192,-0.06703 0.50712,0.02088 0.0879,0.08792 -0.0683,0.150453 -0.34727,0.138965 -0.30822,-0.0127 -0.37092,-0.07539 -0.15985,-0.159851 z m -40.42759,-1.208323 c 0.003,-0.481393 0.0531,-0.519366 0.26053,-0.198437 0.33151,0.512964 0.33151,0.79375 0,0.79375 -0.14552,0 -0.26276,-0.267891 -0.26053,-0.595313 z m 80.42928,0.361958 c 0,-0.14552 0.11907,-0.338166 0.26459,-0.428103 0.14552,-0.08994 0.26458,-0.04446 0.26458,0.101063 0,0.14552 -0.11906,0.338166 -0.26458,0.428103 -0.14552,0.08994 -0.26459,0.04446 -0.26459,-0.101063 z m -69.1969,-0.891124 c -0.0682,-0.181901 -0.0286,-0.866511 0.088,-1.521354 0.20494,-1.15043 0.22362,-1.169588 0.55345,-0.567452 0.2073,0.378447 0.27518,0.975894 0.17285,1.521354 -0.16884,0.89998 -0.58171,1.187677 -0.81434,0.567452 z m 69.72484,-0.264584 c -7.9e-4,-0.03638 -0.28911,-0.7729 -0.64097,-1.636712 l -0.63976,-1.570564 0.64098,-1.264909 c 0.35254,-0.695701 0.64098,-1.506993 0.64098,-1.802874 0,-0.452168 0.17056,-0.537961 1.06949,-0.537961 h 1.06948 l -0.7075,1.207259 c -0.60343,1.029676 -0.66295,1.305028 -0.40466,1.871911 0.38255,0.839626 0.10598,1.351039 -0.38234,0.706975 -0.42827,-0.564859 -0.46083,-0.432657 -0.38714,1.571667 0.0308,0.836745 -0.0145,1.521354 -0.10069,1.521354 -0.0861,0 -0.15719,-0.02976 -0.15787,-0.06615 z m -82.18364,-2.963891 c -0.1824,-0.475321 0.11325,-1.001332 0.4469,-0.795121 0.33527,0.207206 0.31336,1.179325 -0.0266,1.179325 -0.15009,0 -0.33924,-0.172892 -0.42032,-0.384204 z m 12.47037,-1.401733 c 0.24483,-0.590082 0.24692,-0.766178 0.0243,-2.050521 -0.13301,-0.767419 -0.0725,-1.203791 0.22022,-1.5875 0.34841,-0.456743 0.43996,-0.474851 0.66889,-0.132292 0.14589,0.218281 0.20503,0.754063 0.13144,1.190625 -0.0736,0.436562 -0.1686,1.156322 -0.21111,1.599467 -0.0895,0.932659 -0.35432,1.443241 -0.7486,1.443241 -0.16087,0 -0.19662,-0.194386 -0.0852,-0.46302 z m -12.92164,-1.231911 c -0.0785,-0.20461 0.0873,-0.58025 0.36857,-0.834758 0.49511,-0.448069 0.51132,-0.436271 0.51132,0.372015 0,0.864648 -0.60381,1.182195 -0.87989,0.462743 z m 15.27619,-0.818018 c -0.20781,-0.827976 0.0202,-1.455801 0.52874,-1.455801 0.59212,0 0.70848,0.383929 0.39174,1.292524 -0.34682,0.994895 -0.6962,1.056868 -0.92048,0.163277 z m 27.77167,-0.343955 c 0.0718,-0.116089 0.0385,-0.35976 -0.0738,-0.541489 -0.15802,-0.25568 -0.38961,-0.22402 -1.0238,0.139957 -0.96747,0.555252 -1.22752,0.405088 -0.88025,-0.508296 0.26802,-0.704964 1.69363,-1.174105 2.64768,-0.871305 0.34145,0.108373 0.68807,-0.118229 1.19252,-0.77959 0.53029,-0.695243 0.9096,-0.932373 1.49144,-0.932373 0.51115,0 0.78028,-0.134543 0.78028,-0.39008 0,-0.214546 0.35719,-0.574789 0.79375,-0.800545 0.94868,-0.49058 0.99491,-0.751826 0.19844,-1.121444 l -0.59531,-0.276267 0.66146,-0.256302 c 0.3638,-0.140965 1.10794,-0.337889 1.65364,-0.437611 0.77032,-0.140766 0.99219,-0.09629 0.99219,0.198869 0,0.2091 -0.29766,0.454888 -0.66146,0.546195 -0.3638,0.09131 -0.66146,0.313243 -0.66146,0.493186 0,0.179946 -0.43797,0.683692 -0.97326,1.119439 -0.5353,0.435748 -1.16808,0.970862 -1.40619,1.189144 -1.26872,1.1631 -2.6835,2.125728 -2.91443,1.983007 -0.45418,-0.280705 -0.85296,0.137718 -0.51702,0.542499 0.35513,0.427908 0.12216,0.914077 -0.43803,0.914077 -0.21829,0 -0.33818,-0.09498 -0.26643,-0.211071 z m 38.17717,-0.229902 c -0.38765,-0.387654 -0.16449,-1.146527 0.33716,-1.146527 0.62341,0 0.86635,0.337389 0.64963,0.902166 -0.16578,0.431998 -0.67344,0.557712 -0.98679,0.244361 z m -81.09115,-1.477256 c 0.0465,-0.327422 0.26315,-0.595313 0.48143,-0.595313 0.21828,0 0.43492,0.267891 0.48142,0.595313 0.0651,0.458176 -0.0458,0.595312 -0.48142,0.595312 -0.4356,0 -0.5465,-0.137136 -0.48143,-0.595312 z m -1.56636,-0.79375 c -0.14327,-0.181901 -0.33594,-0.647089 -0.42814,-1.033754 -0.0922,-0.386662 -0.23877,-0.922443 -0.3257,-1.190625 -0.11758,-0.362762 -0.0249,-0.324612 0.36189,0.149011 0.33114,0.405447 0.67635,0.576593 0.95067,0.471326 0.54524,-0.209227 0.55763,-1.070118 0.0218,-1.514806 -0.22491,-0.186653 -0.34825,-0.497459 -0.27411,-0.690681 0.0742,-0.19322 0.0319,-0.322974 -0.0938,-0.288338 -0.20263,0.05582 -0.38431,-0.263861 -0.21537,-0.378978 0.0364,-0.02479 0.57948,0.278976 1.20688,0.675042 0.94157,0.594386 1.12636,0.842962 1.05834,1.423675 -0.0579,0.493953 -0.27512,0.748609 -0.72925,0.854787 -0.45003,0.105219 -0.71396,0.410284 -0.86746,1.002651 -0.2467,0.952045 -0.29579,0.990436 -0.66578,0.52069 z m 16.0707,-0.992188 c 0,-0.582083 0.0893,-1.048255 0.19844,-1.035936 0.10914,0.0123 0.5992,0.488566 1.08902,1.058333 l 0.89059,1.035937 h -1.08902 -1.08903 z m 27.94296,0.419868 c -0.1007,-0.401199 -0.11075,-0.957363 -0.0223,-1.235919 0.12965,-0.408488 0.25968,-0.45352 0.67215,-0.232773 0.64181,0.34349 0.6485,0.820883 0.0223,1.594173 l -0.48907,0.60397 z m 42.44314,-0.0048 c -0.33945,-0.89281 -0.0864,-1.604192 0.42084,-1.183201 0.42402,0.351901 0.48965,1.454193 0.1009,1.694455 -0.14579,0.0901 -0.38058,-0.139959 -0.52174,-0.511254 z m -47.48849,0.132109 c -0.0961,-0.15545 -0.0571,-0.28263 0.0866,-0.28263 0.14371,0 0.44748,-0.186185 0.67504,-0.413745 0.22756,-0.227558 0.53372,-0.339596 0.68036,-0.248968 0.37703,0.233021 0.33159,0.836629 -0.0641,0.851683 -0.1819,0.0069 -0.52704,0.09441 -0.76698,0.194427 -0.23995,0.100015 -0.51486,0.05466 -0.61093,-0.100777 z m -21.96261,-1.905283 c -1.01373,-0.999318 -1.98797,-1.816931 -2.16499,-1.816931 -0.17702,0 -0.39752,-0.208359 -0.49002,-0.46302 -0.0925,-0.254662 -1.14232,-1.32759 -2.33294,-2.384285 -3.82907,-3.398372 -5.92579,-5.459206 -6.76709,-6.651247 -1.54634,-2.191041 -0.82193,-1.977879 1.76492,0.51934 1.4226,1.373307 4.75635,4.496435 7.40833,6.940283 3.73789,3.444526 4.82179,4.589449 4.82179,5.093229 0,0.357428 -0.0893,0.634042 -0.19843,0.614704 -0.10914,-0.01934 -1.02785,-0.852779 -2.04157,-1.852083 z m 50.92334,1.263981 c 0,-0.51063 1.09041,-1.658157 4.96093,-5.220793 2.72852,-2.511467 6.06227,-5.644671 7.40834,-6.962674 2.42209,-2.371588 3.14315,-2.587594 1.75424,-0.525513 -0.7388,1.096888 -1.77437,2.123535 -6.18601,6.132719 -1.80498,1.640319 -2.78295,2.720186 -2.79188,3.0828 -0.0211,0.854533 -0.30938,1.147014 -1.00048,1.014902 -0.452,-0.0864 -0.78225,0.07313 -1.16887,0.56465 -0.29639,0.376793 -0.65331,0.685081 -0.79317,0.685081 -0.13985,0 -0.53943,0.336245 -0.88796,0.747209 -0.95052,1.120802 -1.29514,1.248958 -1.29514,0.481619 z m -30.42709,-0.586269 c 0,-0.08315 0.18391,-0.3351 0.40869,-0.559877 0.22478,-0.224777 0.36428,-0.543695 0.31,-0.708705 -0.14133,-0.429694 -1.20847,-0.529791 -1.65929,-0.155641 -0.31294,0.259715 -0.38231,0.215389 -0.38231,-0.244274 0,-0.515284 0.14301,-0.561562 1.7354,-0.561562 1.3261,0 1.68492,0.078 1.52136,0.330729 -0.11773,0.181901 -0.21406,0.568854 -0.21406,0.859896 0,0.347326 -0.20457,0.55822 -0.59531,0.613714 -0.32742,0.0465 -0.59531,0.195329 -0.59531,0.330729 0,0.135401 -0.11906,0.246182 -0.26458,0.246182 -0.14552,0 -0.26459,-0.06804 -0.26459,-0.151191 z m 8.7403,-0.76395 c -0.26399,-0.318088 -0.19928,-0.416354 0.36792,-0.558713 0.71608,-0.179723 1.58596,0.2867 1.3243,0.710084 -0.22987,0.371924 -1.34036,0.272592 -1.69222,-0.151371 z m -5.5653,-0.275484 c 0,-0.246944 0.24989,-0.396875 0.66146,-0.396875 0.73897,0 0.88707,0.385976 0.24294,0.63315 -0.66207,0.254061 -0.9044,0.190752 -0.9044,-0.236275 z M 293.06247,78.53333 c -0.18146,-0.472871 0.34243,-1.187257 0.87066,-1.187257 0.2041,0 0.44078,-0.348414 0.52595,-0.77425 0.10314,-0.515736 0.27711,-0.727334 0.52103,-0.633735 0.2014,0.07729 0.30031,0.247105 0.21979,0.377375 -0.0805,0.130273 -0.033,0.23686 0.10551,0.23686 0.50986,0 0.54619,0.820648 0.058,1.308891 -1.04666,1.04666 -2.04523,1.338353 -2.30089,0.672116 z m 63.87412,0.08598 c -0.13735,-0.412052 0.36238,-1.8024 0.64783,-1.8024 0.35893,0 0.2233,1.508828 -0.16457,1.830728 -0.28471,0.236289 -0.39726,0.229691 -0.48326,-0.02833 z m 12.24627,-0.677921 c 0.0268,-0.839814 0.97289,-2.844271 1.34246,-2.844271 0.23622,0 0.39054,0.384495 0.44288,1.103418 0.0726,0.996897 0.0283,1.089822 -0.4583,0.962562 -0.4044,-0.105754 -0.60412,0.03137 -0.80139,0.550228 -0.30232,0.795163 -0.54715,0.901385 -0.52565,0.228063 z m -39.50698,0.04095 c -0.10041,-0.100407 -1.58442,-0.208227 -3.29779,-0.239602 -3.1171,-0.05707 -6.36489,-0.623242 -7.81157,-1.361744 -0.50991,-0.260297 -0.72761,-0.57577 -0.72761,-1.054399 0,-0.542459 0.0953,-0.64603 0.46302,-0.503423 0.25467,0.09875 1.47506,0.429488 2.71198,0.734971 3.33328,0.823216 7.77024,0.774334 11.1125,-0.122423 1.38245,-0.370922 2.60284,-0.621588 2.71198,-0.557038 0.82852,0.49004 -0.71934,1.778563 -2.49739,2.078963 -0.75056,0.126805 -1.0013,0.288412 -0.94822,0.611138 0.0519,0.315179 -0.15405,0.460909 -0.73108,0.517432 -0.4418,0.04328 -0.88542,-0.0035 -0.98582,-0.103875 z M 316.6575,76.789535 c -0.95971,-0.842637 -1.29449,-2.089258 -0.56107,-2.089258 0.30888,0 2.00707,2.35394 2.00707,2.782099 0,0.33795 -0.59873,0.05107 -1.446,-0.692841 z m -35.22645,-0.453069 c -0.32994,-0.223666 -1.01499,-1.872361 -0.84756,-2.039795 0.0671,-0.06713 0.43209,0.351483 0.81102,0.930249 0.64004,0.977585 0.65827,1.531011 0.0365,1.109546 z m 54.78494,-1.231501 c 0.0449,-1.328714 0.30623,-1.770401 0.70464,-1.190776 0.33949,0.493909 0.17166,-0.142695 -0.5075,-1.924968 -0.3501,-0.918728 -0.55725,-1.177165 -0.77168,-0.962731 -0.21443,0.214431 -0.28815,-0.03498 -0.27464,-0.929124 0.0102,-0.672232 0.059,-1.181685 0.1086,-1.132121 0.16154,0.161542 2.20725,5.286653 2.20725,5.529819 0,0.130045 -0.11906,0.162859 -0.26458,0.07292 -0.14783,-0.09136 -0.26458,0.111906 -0.26458,0.460635 0,0.588946 -0.42913,1.259157 -0.80623,1.259157 -0.0942,0 -0.15325,-0.532265 -0.13128,-1.182812 z m -52.35714,0.237871 c -0.57656,-0.576561 -0.39842,-1.039434 0.40003,-1.039434 0.49977,0 0.63941,0.139642 0.63941,0.639411 0,0.798451 -0.46287,0.976585 -1.03944,0.400023 z m 75.43145,-0.02519 c -0.097,-0.09702 -0.17639,-0.45421 -0.17639,-0.793761 0,-0.44097 0.15119,-0.61736 0.52917,-0.61736 0.2988,0 0.52917,0.17639 0.52917,0.405178 0,0.22285 0.17791,0.47345 0.39535,0.556892 0.21745,0.08344 0.32948,0.258299 0.24897,0.38857 -0.17034,0.275611 -1.26765,0.319085 -1.52627,0.06047 z m 12.43658,-0.546899 c -0.13681,-0.22446 -0.27719,-1.830171 -0.21434,-2.451722 0.0418,-0.413573 1.62429,-1.464146 1.62429,-1.078338 0,0.12098 -0.17859,0.647398 -0.39688,1.16982 -0.21828,0.52242 -0.39687,1.244309 -0.39687,1.604196 0,0.658698 -0.38648,1.132882 -0.6162,0.756033 z m -80.04915,-0.766112 c -0.17433,-0.382606 -0.25585,-0.756761 -0.18116,-0.831453 0.24346,-0.243462 0.94234,0.520679 0.94234,1.030332 0,0.713989 -0.39191,0.611593 -0.76118,-0.198879 z m 72.35508,0.470075 c -0.39845,-0.644718 0.70872,-1.660978 1.23558,-1.134118 0.40985,0.40985 0.0933,1.222317 -0.50982,1.308679 -0.3122,0.0447 -0.63879,-0.03385 -0.72576,-0.174561 z m -48.82179,-0.435893 c -0.0127,-0.401969 1.9125,-5.307497 2.20306,-5.613578 0.0299,-0.03153 0.0709,0.385191 0.0911,0.926042 0.0468,1.25466 -0.45678,4.076906 -0.78922,4.422952 -0.24711,0.257234 -0.19364,-0.514016 0.19263,-2.778125 0.0936,-0.548478 -0.21689,-0.0091 -0.76145,1.322917 -0.50569,1.236927 -0.92695,2.010833 -0.93613,1.719792 z m 53.87025,-0.564748 c -0.17697,-1.090499 0.004,-1.684211 0.51199,-1.684211 0.50953,0 0.5123,2.26948 0.003,2.464912 -0.25379,0.09739 -0.41125,-0.141293 -0.51501,-0.780701 z m -88.95115,-0.430766 c -0.12724,-0.678238 -0.0748,-1.129387 0.16487,-1.418164 0.31271,-0.376793 0.37303,-0.342921 0.54687,0.307073 0.12327,0.460955 0.0624,0.984335 -0.16488,1.418164 l -0.36026,0.687589 z m 80.76973,0.680837 c -0.72837,-0.190341 -0.5653,-1.057495 0.23671,-1.258787 0.73681,-0.184928 1.60235,0.332491 0.95392,0.570251 -0.18191,0.0667 -0.33073,0.289941 -0.33073,0.496094 0,0.385074 -0.0661,0.399875 -0.8599,0.192442 z m -71.87018,-1.909935 c -0.24128,-0.152805 -0.30798,-0.465476 -0.19517,-0.914942 0.12661,-0.50446 0.0801,-0.647782 -0.17808,-0.548709 -0.1922,0.07375 -0.60469,-0.07825 -0.91665,-0.337778 -0.31195,-0.259532 -0.83048,-0.67638 -1.15228,-0.926332 -0.495,-0.384482 -0.60417,-0.783905 -0.70895,-2.59406 -0.12305,-2.125504 -0.12843,-2.139072 -0.81664,-2.059085 -0.65065,0.07562 -0.69334,0.01175 -0.70198,-1.050417 -0.007,-0.915578 0.0681,-1.098799 0.39688,-0.962171 0.96418,0.400717 1.41296,0.453602 1.22159,0.143952 -0.21791,-0.352581 0.0542,-1.887305 0.33457,-1.887305 0.27037,0 0.13516,1.813947 -0.1632,2.18948 -0.33334,0.419553 -0.21419,1.108962 0.33707,1.950286 0.27306,0.41674 0.37879,0.919184 0.27797,1.320896 -0.19124,0.761976 0.52744,2.138637 1.23344,2.362716 0.25956,0.08238 0.47192,0.357608 0.47192,0.611618 0,0.254008 0.35719,0.804043 0.79375,1.222296 1.15437,1.105956 0.97407,2.244791 -0.23424,1.479555 z m 74.3111,-0.693608 c -0.32074,-0.386471 -0.18669,-1.182822 0.19911,-1.182822 0.11509,0 0.34059,0.210325 0.50113,0.467389 0.40509,0.648639 -0.22305,1.290405 -0.70024,0.715433 z m 6.68721,0.206973 c 0.10914,-0.06104 0.19843,-0.33918 0.19843,-0.618093 0,-0.278916 0.1786,-0.507119 0.39688,-0.507119 0.22048,0 0.39687,0.235186 0.39687,0.529167 0,0.291042 -0.10932,0.529167 -0.24294,0.529167 -0.13362,0 -0.40151,0.04002 -0.59531,0.08893 -0.19381,0.04891 -0.26307,0.03899 -0.15393,-0.02204 z m -89.74503,-1.362011 c -0.19923,-0.372266 -0.16756,-0.58502 0.12298,-0.826148 0.33116,-0.274834 0.39132,-0.197753 0.39132,0.501385 0,0.949701 -0.13442,1.034579 -0.5143,0.324763 z m 4.21846,-0.160076 c 0,-0.788056 0.65136,-0.89273 1.03972,-0.167079 0.30554,0.570913 0.13308,0.828538 -0.55465,0.828538 -0.34102,0 -0.48507,-0.196432 -0.48507,-0.661459 z m 88.81615,-0.49835 c -0.36964,-0.963261 -0.19163,-2.53346 0.34844,-3.073525 0.60879,-0.608795 0.64767,-0.875757 0.22587,-1.551156 -0.44598,-0.714135 -0.0847,-1.675895 0.88043,-2.343838 0.46706,-0.323237 0.90009,-0.536806 0.9623,-0.474602 0.15399,0.153998 -0.77371,3.645366 -1.0521,3.959492 -0.12251,0.138245 -0.23158,0.614495 -0.24237,1.058334 -0.0108,0.443838 -0.22713,1.277067 -0.48074,1.85162 -0.37128,0.841147 -0.49631,0.952899 -0.64183,0.573675 z m -8.808,-0.581623 c 0.0883,-0.230182 0.1606,-0.468307 0.1606,-0.529167 0,-0.06086 0.24186,-0.110651 0.53747,-0.110651 0.29561,0 0.60601,-0.178594 0.68977,-0.396875 0.21546,-0.561481 0.9488,-0.503669 0.83906,0.06615 -0.049,0.254662 -0.26613,0.463021 -0.48242,0.463021 -0.21629,0 -0.47871,0.20836 -0.58316,0.463021 -0.24637,0.600655 -1.39157,0.644544 -1.16132,0.04451 z m -85.5644,-0.993005 c 0,-0.93426 0.25984,-1.498897 0.68977,-1.498897 0.27095,0 0.36857,-0.39057 0.36857,-1.474607 0,-1.261428 0.0669,-1.461924 0.46302,-1.386864 0.68443,0.129707 0.80189,2.056056 0.15425,2.529626 -0.2638,0.192894 -0.60104,0.783412 -0.74942,1.312262 -0.32171,1.146624 -0.92619,1.485011 -0.92619,0.51848 z m -1.05833,-1.617726 c 0,-0.259385 -0.20442,-1.047155 -0.45426,-1.750603 -0.51293,-1.444193 -0.40329,-1.709936 0.60145,-1.457761 0.64947,0.163004 0.68676,0.247999 0.50736,1.156253 -0.10651,0.539173 -0.22849,1.258721 -0.27107,1.598991 -0.0952,0.760589 -0.38348,1.101235 -0.38348,0.45312 z m 88.20766,-0.295294 c 0.35671,-0.766318 0.96922,-1.052377 1.25693,-0.587026 0.25379,0.410475 -0.252,0.971333 -1.00708,1.116748 -0.48911,0.09419 -0.51486,0.0396 -0.24985,-0.529722 z m 3.07359,-0.115043 c 0,-0.145521 0.11906,-0.264584 0.26458,-0.264584 0.14552,0 0.26459,0.119063 0.26459,0.264584 0,0.14552 -0.11907,0.264583 -0.26459,0.264583 -0.14552,0 -0.26458,-0.119063 -0.26458,-0.264583 z M 333.49111,63.05861 c 0,-0.363802 0.06,-0.51263 0.13345,-0.330729 0.0734,0.181901 0.0734,0.479557 0,0.661458 -0.0734,0.181902 -0.13345,0.03307 -0.13345,-0.330729 z m -54.90975,-0.211071 c -0.18415,-0.297961 0.2807,-0.979554 0.66806,-0.979554 0.17796,0 0.42383,-0.386953 0.54639,-0.859896 0.28772,-1.110368 1.00144,-1.157509 1.00144,-0.06614 0,0.620596 -0.11687,0.79375 -0.53572,0.79375 -0.32798,0 -0.63323,0.256497 -0.7872,0.661458 -0.24971,0.656778 -0.64286,0.855072 -0.89297,0.450387 z m 39.66128,-0.384241 c -0.38871,-0.550924 -0.38302,-0.625592 0.0763,-1.001369 0.27296,-0.223332 0.55903,-0.580519 0.63571,-0.79375 0.0781,-0.217109 0.22535,0.04799 0.3347,0.602502 0.33192,1.683228 -0.24039,2.335352 -1.04666,1.192617 z m 48.27961,0.08779 c 0,-0.13362 -0.0723,-0.431276 -0.1606,-0.661458 -0.11346,-0.295659 -0.005,-0.418516 0.36856,-0.418516 0.48327,0 0.85037,0.466217 0.85037,1.079974 0,0.133617 -0.23812,0.242943 -0.52917,0.242943 -0.29104,0 -0.52916,-0.109326 -0.52916,-0.242943 z m -32.37886,-0.693555 c -0.24168,-0.629788 -0.19386,-1.782995 0.0927,-2.23629 0.42254,-0.668327 0.84301,0.07597 0.75154,1.330341 -0.0853,1.170514 -0.551,1.670185 -0.84426,0.905949 z m 39.16983,-0.298225 c -0.38177,-0.381773 -0.16535,-1.146527 0.32447,-1.146527 0.27547,0 0.56939,-0.178594 0.65315,-0.396875 0.20034,-0.522076 0.86316,-0.50863 1.06664,0.02164 0.23559,0.613931 0.21617,0.639471 -0.43386,0.570553 -0.43883,-0.04653 -0.61681,0.09282 -0.67986,0.532286 -0.082,0.571899 -0.56165,0.787815 -0.93054,0.418923 z m -96.22014,-0.613185 c 0,-0.288748 0.3537,-0.913826 0.78599,-1.389063 l 0.786,-0.864071 0.008,0.801024 c 0.009,0.916326 -0.63382,1.977101 -1.19787,1.977101 -0.21003,0 -0.38187,-0.236246 -0.38187,-0.524991 z m 38.8707,-0.513104 c -0.66751,-0.256048 -1.85814,-0.77021 -2.64583,-1.142585 -0.78769,-0.372372 -1.75958,-0.805407 -2.15977,-0.9623 -0.80479,-0.315521 -0.99362,-1.091837 -0.26458,-1.087768 0.69366,0.0039 3.15431,1.212144 3.41417,1.676482 0.1504,0.268753 0.7162,0.433184 1.67811,0.487677 1.16597,0.06606 1.46957,0.178745 1.54464,0.573339 0.15513,0.815401 -0.29026,0.94479 -1.56674,0.455155 z m 20.17523,-0.43988 c -0.40543,-0.28579 -0.52808,-0.524873 -0.35701,-0.695942 0.3289,-0.328906 2.21247,0.310737 2.08224,0.707112 -0.15046,0.457978 -1.06809,0.452036 -1.72523,-0.01117 z M 319.29078,59.36301 c -1.24458,-0.779376 -7.55159,-2.837974 -9.32564,-3.043876 -0.94073,-0.109183 -2.19703,-0.0639 -3.03114,0.109265 -1.23489,0.256363 -1.66053,0.222838 -3.19731,-0.251825 -0.97503,-0.301154 -1.77278,-0.661834 -1.77278,-0.801507 0,-0.139674 0.0298,-0.254373 0.0661,-0.254889 0.0364,-5.29e-4 1.94424,-0.120748 4.2397,-0.267182 l 4.17355,-0.266242 3.76395,1.292037 c 2.07017,0.710621 4.20085,1.475616 4.73484,1.69999 1.07108,0.450051 1.68235,1.308436 1.35205,1.898645 -0.18058,0.322686 -0.33315,0.305287 -1.00337,-0.114416 z m 12.99845,0.107865 c -0.26174,-0.682075 0.32796,-1.441913 1.50944,-1.944936 1.81449,-0.772531 7.63586,-2.620479 8.83998,-2.806176 1.26731,-0.195445 8.0086,0.37947 8.0086,0.682998 0,0.278151 -2.33163,1.04127 -3.18149,1.04127 -0.38828,0 -1.08783,0.1905 -1.55456,0.423333 -0.46672,0.232834 -1.25892,0.423334 -1.76044,0.423334 -0.50151,0 -0.91185,0.107156 -0.91185,0.238125 0,0.130968 -0.18039,0.238125 -0.40088,0.238125 -0.22049,0 -1.04949,0.366048 -1.84223,0.813443 -1.44915,0.817851 -2.51364,0.934931 -2.72299,0.299495 -0.0803,-0.243684 0.0724,-0.295794 0.5301,-0.18092 0.44641,0.112043 1.01678,-0.06636 1.86646,-0.583771 1.33131,-0.81071 1.71449,-1.345184 1.12623,-1.570919 -0.39665,-0.152212 -6.65537,1.875171 -7.22179,2.339351 -0.1819,0.149066 -0.33073,0.187211 -0.33073,0.08476 0,-0.102449 -0.40341,0.06305 -0.89647,0.367779 -0.78998,0.488236 -0.91558,0.504238 -1.05738,0.134705 z M 345.091,56.444027 c 0.28402,-0.183549 0.0207,-0.252344 -0.92604,-0.241935 -0.98055,0.01077 -1.18597,0.07339 -0.79375,0.241935 0.7149,0.307208 1.24442,0.307208 1.71979,0 z m 19.68781,2.513542 c -0.0913,-0.363802 -0.26911,-0.661459 -0.39512,-0.661459 -0.12601,0 -0.41145,-0.352626 -0.63432,-0.783611 -0.37969,-0.734221 -0.37178,-0.801513 0.12549,-1.067641 0.37588,-0.201163 0.53072,-0.553921 0.53072,-1.209069 0,-0.998358 0.66398,-1.539404 1.08098,-0.880838 0.44542,0.70344 0.27975,1.864146 -0.28723,2.012413 -0.39496,0.103285 -0.52917,0.360897 -0.52917,1.015733 0,0.644982 0.14016,0.921837 0.52917,1.045305 0.60948,0.19344 0.7245,1.190625 0.13733,1.190625 -0.21551,0 -0.46654,-0.297656 -0.55785,-0.661458 z m -80.12498,-0.27858 c -0.17865,-0.711819 -0.022,-1.176629 0.39657,-1.176629 0.27968,0 0.23528,1.562132 -0.0494,1.738077 -0.0982,0.06069 -0.25442,-0.19196 -0.34716,-0.561448 z m 2.28902,0.2433 c -0.25514,-0.49213 -0.23114,-1.337175 0.0459,-1.614167 0.0802,-0.08016 0.30841,-0.01074 0.50722,0.154239 0.1988,0.164996 0.4546,0.211727 0.56843,0.103849 0.34647,-0.328364 -0.15552,1.100783 -0.52281,1.488371 -0.28812,0.304054 -0.38339,0.282998 -0.5987,-0.132292 z m -6.49246,-0.280657 c -0.0965,-0.156075 -0.24381,-0.714385 -0.32746,-1.240689 -0.11946,-0.751679 -0.0645,-0.956916 0.25608,-0.956916 0.22449,0 0.48477,0.305239 0.5784,0.67831 0.18837,0.750533 -0.22205,1.980379 -0.50702,1.519295 z m 27.47795,-1.120989 c -0.0837,-0.135467 -0.0302,-0.321744 0.11904,-0.413954 0.3772,-0.233119 1.36645,0.114329 1.1808,0.414721 -0.19671,0.318294 -1.10298,0.31776 -1.29984,-7.93e-4 z m 61.41613,0.06991 c -0.27223,-0.272225 -0.20855,-1.360006 0.0904,-1.544786 0.14675,-0.0907 0.36923,0.110636 0.4944,0.447408 0.33501,0.901345 -0.0529,1.629278 -0.58483,1.097378 z m 2.08132,-1.287867 c -0.23412,-0.805344 -0.35782,-1.574049 -0.27488,-1.708238 0.2832,-0.45824 0.90272,0.04364 1.4504,1.174996 0.5947,1.228487 0.49162,1.997499 -0.26776,1.997499 -0.35704,0 -0.5925,-0.379804 -0.90776,-1.464257 z m -81.70276,-0.546069 c -0.10699,-0.106995 -0.19453,-0.363966 -0.19453,-0.571047 0,-0.207084 -0.26789,-0.596739 -0.59532,-0.865902 -0.56062,-0.460873 -0.5717,-0.532723 -0.19009,-1.233038 0.28182,-0.517181 0.6444,-0.765614 1.19063,-0.815782 0.6741,-0.06191 0.726,-0.02442 0.36621,0.264584 -0.23056,0.185195 -0.50072,0.664141 -0.60036,1.064323 -0.16162,0.649134 -0.10927,0.727604 0.48534,0.727604 0.36658,0 0.6665,0.105873 0.6665,0.235273 0,0.414914 -0.92678,1.395582 -1.12838,1.193985 z m 72.6188,-0.423841 c -0.44684,-0.446839 -0.39539,-1.27 0.0794,-1.27 0.21829,0 0.39688,-0.110559 0.39688,-0.245684 0,-0.449776 0.8035,-1.056884 1.19828,-0.905391 0.58884,0.225959 0.46618,0.991833 -0.20609,1.286772 -0.32742,0.143647 -0.63336,0.529069 -0.67986,0.85649 -0.0948,0.667296 -0.31982,0.746578 -0.78858,0.277813 z M 291.116,53.549226 c 0,-0.29963 0.11906,-0.544782 0.26458,-0.544782 0.14552,0 0.26458,0.171566 0.26458,0.381259 0,0.209693 -0.11906,0.454845 -0.26458,0.544782 -0.14552,0.08994 -0.26458,-0.08163 -0.26458,-0.381259 z m 70.26882,0.0199 c -0.11398,-0.184415 -0.13577,-0.406752 -0.0484,-0.494086 0.23679,-0.236791 0.49497,0.111469 0.36708,0.495155 -0.0896,0.268861 -0.15195,0.268652 -0.31864,-0.0011 z m -79.38219,-0.27622 c -0.17953,-0.290481 0.0939,-1.082209 0.37373,-1.082209 0.10978,0 0.14269,0.297656 0.0731,0.661458 -0.13688,0.716066 -0.21747,0.791938 -0.44687,0.420751 z m 2.12426,0.0123 c -0.21646,-0.350253 0.29279,-1.623679 0.64932,-1.623679 0.38318,0 0.21225,1.649476 -0.1844,1.779527 -0.16857,0.05527 -0.37778,-0.01487 -0.46492,-0.155858 z m 76.49869,-1.35591 c -0.0756,-0.28929 -0.44672,-0.64353 -0.8246,-0.787202 -0.72436,-0.275396 -0.95375,-1.068067 -0.30909,-1.068067 0.20789,0 0.55938,-0.181404 0.7811,-0.403122 0.3611,-0.361106 0.42881,-0.354213 0.64963,0.06615 0.13558,0.258098 0.33033,0.975283 0.43278,1.593747 0.14872,0.897792 0.1078,1.124479 -0.203,1.124479 -0.2141,0 -0.45117,-0.236691 -0.52682,-0.525981 z m 9.33625,-0.283385 c 0,-0.154109 0.11906,-0.206613 0.26458,-0.116676 0.14552,0.08994 0.26459,0.216027 0.26459,0.280199 0,0.06417 -0.11907,0.116676 -0.26459,0.116676 -0.14552,0 -0.26458,-0.12609 -0.26458,-0.280199 z M 292.61221,50.93309 c -0.54526,-0.60251 -0.56387,-1.463458 -0.041,-1.897396 0.33228,-0.275773 0.39687,-0.234826 0.39687,0.251587 0,0.412265 0.13445,0.554013 0.46302,0.488151 0.30406,-0.06095 0.45997,-0.333325 0.45413,-0.793383 -0.005,-0.385312 0.0977,-0.634679 0.22801,-0.554148 0.13031,0.08053 0.34085,-0.01765 0.46787,-0.218205 0.17232,-0.272058 0.23198,-0.21686 0.235,0.217422 0.003,0.47009 -1.42394,2.989826 -1.69348,2.989826 -0.0399,0 -0.26958,-0.217734 -0.51042,-0.483854 z m 65.44337,-1.919444 c 0,-0.644803 0.61827,-0.553659 0.747,0.11012 0.0506,0.26108 -0.0843,0.441094 -0.33073,0.441094 -0.24543,0 -0.41627,-0.226218 -0.41627,-0.551214 z m 7.68714,0.04862 c -0.19165,-0.358103 -0.20533,-0.894625 -0.0414,-1.624179 0.44584,-1.984301 0.87578,-1.780534 0.92193,0.436944 0.0333,1.597186 -0.37008,2.141003 -0.88052,1.187235 z m 2.24561,-0.09272 c -0.1786,-0.563605 -0.52251,-3.483925 -0.45958,-3.902604 0.0328,-0.218282 0.10047,-0.754063 0.15035,-1.190625 0.14222,-1.244542 0.15582,-1.289066 0.33803,-1.106856 0.0946,0.09458 0.19583,1.334815 0.225,2.756078 0.0292,1.421262 0.14426,2.852002 0.25577,3.179423 0.1326,0.389388 0.0977,0.595313 -0.10101,0.595313 -0.16706,0 -0.35091,-0.148828 -0.40856,-0.330729 z M 284.379,47.646631 c 0.10378,-0.618463 0.3171,-1.422135 0.47404,-1.785937 0.2826,-0.655098 0.2863,-0.652725 0.38411,0.246808 0.14826,1.363538 -0.16348,2.663608 -0.63869,2.663608 -0.33338,0 -0.37358,-0.205988 -0.21946,-1.124479 z m 73.26909,0.0327 c -0.20527,-0.646752 -0.0211,-0.87988 0.52837,-0.669007 0.51561,0.197858 0.53131,0.863206 0.0249,1.057514 -0.23461,0.09003 -0.44928,-0.0607 -0.55332,-0.388507 z m -63.1807,-0.142949 c -0.355,-0.354997 -0.16248,-1.341691 0.35277,-1.807985 0.29104,-0.26339 0.52917,-0.698561 0.52917,-0.967049 0,-0.642631 0.70091,-0.626854 1.04903,0.0236 0.42034,0.785419 0.33428,1.227942 -0.41109,2.113759 -0.66593,0.791411 -1.15919,0.998358 -1.51988,0.637662 z m 61.66884,-1.119362 c -0.42773,-0.433644 -0.43178,-0.535408 -0.0516,-1.297453 0.30822,-0.617847 0.34195,-0.95875 0.13341,-1.348412 -0.15351,-0.286832 -0.27911,-0.899266 -0.27911,-1.360964 0,-0.656767 0.0911,-0.804501 0.41852,-0.678852 0.23018,0.08833 0.52283,0.1606 0.65032,0.1606 0.35939,0 0.17318,3.411995 -0.19397,3.553968 -0.17922,0.0693 -0.26279,0.414184 -0.19326,0.797607 0.14289,0.78798 0.12731,0.79356 -0.48429,0.173506 z m -63.33705,-0.953206 c -0.0838,-0.218282 -0.0838,-0.575469 0,-0.79375 0.18394,-0.479359 0.95443,-0.53121 0.98289,-0.06615 0.0111,0.181901 0.0601,0.539088 0.10888,0.79375 0.11168,0.583382 -0.87046,0.642887 -1.09177,0.06615 z m 19.54963,-0.572104 c -0.1819,-0.0734 -0.33073,-0.242593 -0.33073,-0.375986 0,-0.311533 2.3028,-0.318947 2.49495,-0.008 0.24921,0.403222 -1.39403,0.694796 -2.16422,0.384019 z m 26.03941,-0.0011 c -0.44378,-0.443783 -0.0618,-0.616725 1.34496,-0.608946 1.3953,0.0077 1.4788,0.0406 1.00777,0.396875 -0.52325,0.395766 -2.03295,0.531849 -2.35273,0.212071 z m 26.73552,-0.146304 c -0.35403,-0.258874 -0.42499,-0.547854 -0.2946,-1.199782 0.22345,-1.117267 0.56667,-1.09397 0.78186,0.05307 0.23365,1.245481 0.0948,1.572308 -0.48726,1.146715 z m -49.66608,-1.637014 c 0,-1.011489 0.066,-1.148601 0.49826,-1.035558 0.27405,0.07166 0.88516,-0.06977 1.35803,-0.314304 0.70782,-0.366025 0.89961,-0.381741 1.08519,-0.08892 0.35095,0.553749 0.28627,0.708393 -0.49408,1.181259 -0.40018,0.242496 -1.05021,0.661961 -1.4445,0.93214 -0.39429,0.270182 -0.78124,0.491239 -0.85989,0.491239 -0.0786,0 -0.14301,-0.524635 -0.14301,-1.165856 z m 38.67261,0.49407 c -0.16835,-0.369483 -0.90734,-1.045544 -1.6422,-1.502357 -1.00235,-0.623097 -1.31653,-0.967499 -1.25773,-1.378735 0.1289,-0.901607 1.29582,-0.736509 1.93045,0.273122 0.29104,0.463021 0.72513,1.122493 0.96463,1.465494 0.55358,0.792771 0.86374,1.814261 0.55088,1.814261 -0.13197,0 -0.37769,-0.302305 -0.54603,-0.671785 z m -20.01948,-0.121965 c -0.20958,-0.339112 0.93047,-0.339112 1.45521,0 0.30198,0.195159 0.19502,0.25745 -0.44741,0.260532 -0.46435,0.0022 -0.91786,-0.115011 -1.0078,-0.260532 z m -28.33122,-0.381649 c -0.73904,-0.184279 -1.57248,-0.467828 -1.85208,-0.630113 -0.47467,-0.275505 -0.46452,-0.297674 0.15309,-0.334441 0.3638,-0.02167 0.78052,-0.01045 0.92604,0.0249 0.14552,0.03535 1.03849,0.07943 1.98438,0.09795 1.53166,0.02998 1.71979,0.0915 1.71979,0.562362 0,0.662217 -1.00977,0.758446 -2.93122,0.279342 z m 37.98851,0.169982 c 0,-0.485862 0.69906,-0.846667 1.64042,-0.846667 1.22142,0 1.30505,0.372946 0.17218,0.767866 -0.97942,0.341429 -1.8126,0.377651 -1.8126,0.0788 z m -45.8518,-0.219996 c -0.34095,-0.340947 0.37044,-1.121693 1.5363,-1.686073 0.96596,-0.467612 1.27837,-0.518235 1.59199,-0.25796 0.57487,0.477104 0.47581,0.788196 -0.25098,0.788196 -0.35264,0 -0.9949,0.297656 -1.42726,0.661458 -0.8002,0.673322 -1.15138,0.793054 -1.45005,0.494379 z M 366.4561,42.69292 c -0.57008,-0.80545 -0.61043,-1.859357 -0.0712,-1.859357 0.44118,0 0.75499,0.953789 0.62229,1.891319 l -0.0881,0.622223 z M 330.60506,42.775 c -0.36583,-0.147617 -0.4547,-0.618522 -0.11672,-0.618522 0.11771,0 0.44513,0.174808 0.72761,0.388461 0.38272,0.289473 0.41246,0.385281 0.11671,0.375986 -0.21828,-0.0069 -0.5457,-0.07253 -0.7276,-0.145925 z m -9.9318,-0.383704 c 0.20888,-0.208881 0.51234,-0.214948 1.04511,-0.0209 0.74241,0.270425 0.73915,0.273693 -0.29435,0.294349 -0.7672,0.01535 -0.96683,-0.05738 -0.75076,-0.273461 z m 2.00353,-0.437857 c -0.093,-0.252129 -0.29337,-0.541242 -0.44529,-0.642471 -0.15192,-0.101228 -0.19325,-0.267022 -0.0918,-0.368432 0.10141,-0.10141 0.33609,-0.06007 0.5215,0.09188 0.18542,0.151942 1.17057,0.369226 2.18921,0.482853 l 1.85208,0.206595 -1.19062,0.20518 c -0.65484,0.11285 -1.52258,0.267649 -1.9283,0.344 -0.54232,0.102058 -0.78245,0.01741 -0.90674,-0.319601 z m 10.50796,-0.146237 c -0.65485,-0.129212 -1.38546,-0.248061 -1.62359,-0.264108 -0.2515,-0.01695 -0.37482,-0.180678 -0.29424,-0.390671 0.0865,-0.225548 0.34888,-0.301972 0.69754,-0.203218 0.30736,0.08705 1.30297,0.232924 2.21247,0.32416 0.90951,0.09124 1.65365,0.254215 1.65365,0.362178 0,0.329747 -1.3882,0.419814 -2.64583,0.171659 z m 14.74,-0.179891 c -0.12197,-0.466429 -0.36089,-0.529166 -2.01523,-0.529166 -1.42361,0 -1.87686,-0.08859 -1.87686,-0.366833 0,-0.594953 2.18976,-0.804117 3.16089,-0.301926 0.44432,0.22977 0.80786,0.508444 0.80786,0.619274 0,0.110831 0.38072,0.23052 0.84604,0.265976 1.02554,0.07814 1.25227,0.259702 0.7338,0.587593 -0.67673,0.427977 -1.5088,0.289883 -1.6565,-0.274918 z m -33.54778,-0.159232 c -0.23508,-0.28326 -0.24541,-0.472583 -0.0371,-0.680863 0.36535,-0.365349 1.11782,-0.09164 1.11782,0.406609 0,0.551337 -0.70272,0.729672 -1.08069,0.274254 z m -16.91642,-0.373303 c -0.30258,-0.187002 -0.31723,-0.308954 -0.0672,-0.559024 0.25007,-0.250069 0.35772,-0.221124 0.4935,0.132686 0.22107,0.576107 0.0663,0.730834 -0.42634,0.426338 z m 57.30982,-0.166792 c -0.0918,-0.23911 -0.10963,-0.491944 -0.0397,-0.561853 0.2461,-0.246101 0.94368,0.191082 0.94368,0.591418 0,0.541683 -0.69346,0.519003 -0.90396,-0.02956 z m -36.40229,-0.08511 c 0,-0.439721 0.89236,-0.716719 1.71979,-0.53384 l 0.79375,0.175433 -0.74483,0.306841 c -0.90578,0.373148 -1.76871,0.398307 -1.76871,0.05157 z m 8.7635,0.01622 c -0.54401,-0.34457 -0.10627,-0.819281 0.75548,-0.819281 1.02419,0 1.59352,0.246437 1.59352,0.689766 0,0.419052 -1.74038,0.515009 -2.349,0.129515 z m -23.66117,-0.194726 c -0.65872,-0.658717 1.76189,-0.877668 2.61012,-0.236094 0.47161,0.356708 0.39284,0.389148 -0.96366,0.396875 -0.8125,0.0046 -1.5534,-0.06772 -1.64646,-0.160781 z M 362.5535,38.14368 c 0,-0.766627 0.16333,-0.987065 0.26139,-0.352778 0.0225,0.145521 0.22946,0.472943 0.45993,0.727604 0.38675,0.427363 0.37512,0.463021 -0.15115,0.463021 -0.46381,0 -0.57017,-0.156303 -0.57017,-0.837847 z m -10.02879,-1.527717 c -0.39986,-0.247127 -0.21569,-1.074019 0.2392,-1.074019 0.3874,0 0.65244,0.776309 0.36365,1.0651 -0.13269,0.132689 -0.39628,0.136588 -0.60285,0.0089 z m 7.11837,-0.01569 c 0.51767,-0.334542 1.05833,-0.334542 1.05833,0 0,0.145521 -0.32742,0.26276 -0.7276,0.260532 -0.56699,-0.0032 -0.63999,-0.06067 -0.33073,-0.260532 z m -68.2625,-0.264583 c 0,-0.310545 0.20336,-0.310545 0.92604,0 0.46891,0.201496 0.44631,0.229508 -0.19844,0.245987 -0.40018,0.01023 -0.7276,-0.100467 -0.7276,-0.245987 z m 7.40833,-0.49677 c 0,-0.533237 0.70358,-1.269101 0.96421,-1.008464 0.0867,0.08672 0.0816,0.460875 -0.0114,0.831454 -0.19505,0.777158 -0.95278,0.917931 -0.95278,0.17701 z m 2.16104,-0.702124 c -0.22527,-0.494415 -0.23292,-0.830046 -0.0277,-1.213554 0.43183,-0.806892 0.90934,-0.443169 0.90934,0.692656 0,1.209239 -0.44756,1.473662 -0.88167,0.520898 z m 1.98808,-2.677686 c -0.39413,-0.394133 -0.14566,-1.690489 0.45858,-2.39252 0.75747,-0.88006 1.20931,-0.650565 0.58752,0.298408 -0.23799,0.363224 -0.43454,0.872956 -0.43677,1.132737 -0.005,0.608668 -0.3764,1.194304 -0.60933,0.961375 z m 2.46547,-0.749483 c 0,-0.497909 -0.13657,-1.205021 -0.30349,-1.571361 -0.33305,-0.730982 0.0367,-1.475493 0.73276,-1.475493 0.54786,0 0.51726,3.588922 -0.0324,3.799847 -0.30512,0.117087 -0.39687,-0.057 -0.39687,-0.752993 z m 43.48052,-0.81568 c -0.0875,-0.228063 -0.0163,-0.555485 0.15841,-0.727604 0.24498,-0.241447 0.40413,-0.195605 0.69659,0.200646 0.20848,0.282474 0.37906,0.609896 0.37906,0.727604 0,0.393919 -1.07284,0.219486 -1.23406,-0.200646 z m -40.76854,-3.991298 c -0.32743,-0.07082 -0.59532,-0.291053 -0.59532,-0.489407 0,-0.601268 0.9574,-0.71136 2.41694,-0.277925 1.18318,0.351368 3.67644,0.410789 17.23641,0.410789 13.92164,0 15.96082,-0.0511 16.73691,-0.419377 1.0981,-0.521083 1.84204,-0.403675 1.84204,0.290709 0,0.398317 -0.16014,0.51272 -0.66146,0.472572 -1.26635,-0.101414 -33.74358,-0.06754 -35.05729,0.03657 -0.72761,0.05766 -1.59081,0.04689 -1.91823,-0.02393 z"
           id="path50" />
        <path
           style="fill:#c95927;stroke-width:0.264583"
           d="m 325.21349,114.81552 c -0.38237,-0.19952 -1.7994,-1.30011 -3.14896,-2.44577 -1.34956,-1.14566 -3.23936,-2.70621 -4.19957,-3.46788 -0.96021,-0.76168 -2.21928,-1.7733 -2.79792,-2.24804 -0.57865,-0.47474 -1.73098,-1.30196 -2.56073,-1.83826 -1.61705,-1.04515 -2.31075,-1.94027 -1.85604,-2.39498 0.18189,-0.18189 0.55312,-0.0704 1.14899,0.34509 2.08769,1.4557 5.33583,3.9938 8.28861,6.47673 5.51194,4.63487 6.00637,4.88186 7.7024,3.84765 0.45278,-0.2761 2.46149,-1.89517 4.4638,-3.59793 4.53661,-3.85793 9.01448,-7.27519 9.53319,-7.27519 0.61692,0 0.46229,0.63125 -0.33428,1.36466 -0.40019,0.36846 -2.27542,1.84544 -4.16719,3.2822 -1.89177,1.43675 -4.09443,3.21324 -4.89479,3.94774 -3.20186,2.93841 -5.19235,4.36673 -6.08542,4.36673 -0.21828,0 -0.70972,-0.16324 -1.09209,-0.36275 z M 306.32954,98.991686 c -1.27317,-0.718786 -4.03849,-3.454186 -4.80366,-4.751692 -1.3552,-2.298012 -1.3464,-2.933462 0.0151,-1.088498 1.41593,1.918758 3.83042,3.918791 5.2516,4.350147 1.30711,0.396727 2.27608,0.102769 6.79932,-2.062721 3.75217,-1.796346 6.04758,-3.368855 9.21801,-6.314948 1.06054,-0.985504 1.99964,-1.720451 2.08687,-1.633215 0.34348,0.343474 -1.4825,2.581815 -3.62012,4.437674 -3.49988,3.038557 -6.22935,4.674306 -10.93219,6.551586 -2.19278,0.875313 -3.15384,0.997794 -4.01491,0.511667 z m 35.85104,-0.56814 c -5.63685,-2.434113 -8.53461,-4.323929 -12.63258,-8.238508 -1.08199,-1.033574 -1.65492,-1.789258 -1.65492,-2.182813 0,-0.824915 0.16089,-0.768667 1.42019,0.496496 1.9771,1.986312 4.58943,4.123516 6.16172,5.04104 2.36443,1.379789 7.94432,3.934291 8.95046,4.097565 1.73265,0.281168 4.53331,-1.611815 6.66118,-4.50233 1.26449,-1.717677 1.42669,-1.669256 0.60801,0.181502 -1.1045,2.496926 -5.13412,6.002187 -6.86823,5.974506 -0.3638,-0.0058 -1.55442,-0.396163 -2.64583,-0.867458 z M 297.466,77.035802 c -6.78655,-6.193409 -8.53145,-7.885518 -9.45886,-9.172697 -1.59782,-2.217666 -0.87359,-2.006354 1.72665,0.503793 1.4226,1.373307 4.75635,4.496435 7.40833,6.940283 3.73789,3.444526 4.82179,4.589449 4.82179,5.093229 0,0.357428 -0.0298,0.643028 -0.0661,0.634667 -0.0364,-0.0084 -2.03068,-1.808033 -4.43177,-3.999275 z m 53.18125,3.416612 c 0,-0.543581 0.99451,-1.595279 4.96093,-5.246185 2.72852,-2.511467 6.06227,-5.644671 7.40834,-6.962674 2.42209,-2.371588 3.14315,-2.587594 1.75424,-0.525513 -0.77171,1.145749 -1.68791,2.042242 -7.23468,7.07911 -2.10473,1.911249 -4.27723,3.902678 -4.82778,4.425397 -2.17516,2.065223 -2.06105,1.997133 -2.06105,1.229865 z m -26.59063,-2.755479 c -1.66613,-0.207921 -4.79295,-0.956295 -5.4901,-1.314001 -0.50942,-0.261376 -0.72761,-0.578135 -0.72761,-1.056301 0,-0.542459 0.0953,-0.64603 0.46302,-0.503423 0.25467,0.09875 1.47506,0.429488 2.71198,0.734971 3.33999,0.824875 7.77301,0.774697 11.1125,-0.125783 2.5449,-0.686221 3.06765,-0.655961 2.75474,0.159464 -0.26742,0.696886 -1.38482,1.151565 -4.27998,1.741562 -2.44789,0.498848 -4.53232,0.614627 -6.54455,0.363511 z m 13.19577,-3.421809 c -0.098,-0.275489 -0.58746,-1.552104 -1.08774,-2.836918 -0.50027,-1.284817 -0.85466,-2.390958 -0.78752,-2.45809 0.0671,-0.06714 0.62837,1.137719 1.2472,2.677451 0.61883,1.539732 1.05338,2.871274 0.96567,2.958981 -0.0877,0.08771 -0.23963,-0.06594 -0.33761,-0.341424 z m -22.04212,-0.217157 c -0.0179,-0.532183 2.11891,-5.776452 2.28572,-5.609637 0.0525,0.05248 -0.43646,1.450877 -1.08655,3.107539 -0.65009,1.656662 -1.18971,2.782607 -1.19917,2.502098 z m 4.28474,-14.631892 c -0.32607,-0.218625 -2.2906,-0.997257 -4.36562,-1.73029 l -3.77277,-1.332791 -3.43958,0.02933 c -3.387,0.02889 -5.95313,-0.414195 -5.95313,-1.027901 0,-0.133826 0.0298,-0.243739 0.0661,-0.244255 0.0364,-5.29e-4 1.94424,-0.120748 4.2397,-0.267182 l 4.17355,-0.266242 3.76395,1.292037 c 2.07017,0.710621 4.20085,1.475616 4.73484,1.69999 1.06182,0.446162 1.68465,1.31072 1.35539,1.881447 -0.17594,0.30498 -0.30486,0.299495 -0.80248,-0.03415 z m 12.78493,0.02061 c -0.25288,-0.659014 0.35198,-1.423987 1.51873,-1.92074 1.81449,-0.77253 7.63586,-2.620478 8.83998,-2.806176 1.27592,-0.196773 8.0086,0.380444 8.0086,0.686607 0,0.110762 -0.56555,0.384995 -1.25677,0.609409 -0.90817,0.294847 -2.17415,0.392481 -4.56407,0.351991 l -3.30729,-0.05604 -3.70417,1.282793 c -2.03729,0.705535 -4.08198,1.499804 -4.54377,1.765043 -0.72505,0.416452 -0.86029,0.428337 -0.99124,0.0871 z"
           id="path48" />
      </g>
    </g>
  </g>
</svg>
