<?xml version="1.0" encoding="UTF-8" standalone="no"?>
<svg
   xmlns:dc="http://purl.org/dc/elements/1.1/"
   xmlns:cc="http://creativecommons.org/ns#"
   xmlns:rdf="http://www.w3.org/1999/02/22-rdf-syntax-ns#"
   xmlns:svg="http://www.w3.org/2000/svg"
   xmlns="http://www.w3.org/2000/svg"
   xmlns:sodipodi="http://sodipodi.sourceforge.net/DTD/sodipodi-0.dtd"
   xmlns:inkscape="http://www.inkscape.org/namespaces/inkscape"
   version="1.1"
   id="svg2"
   xml:space="preserve"
   width="320.29501"
   height="238.99899"
   viewBox="0 0 320.29501 238.99899"
   sodipodi:docname="gimp.svg"
   inkscape:version="1.0.2 (e86c870879, 2021-01-15)"><metadata
     id="metadata8"><rdf:RDF><cc:Work
         rdf:about=""><dc:format>image/svg+xml</dc:format><dc:type
           rdf:resource="http://purl.org/dc/dcmitype/StillImage" /><dc:title></dc:title></cc:Work></rdf:RDF></metadata><defs
     id="defs6"><radialGradient
       fx="0"
       fy="0"
       cx="0"
       cy="0"
       r="1"
       gradientUnits="userSpaceOnUse"
       gradientTransform="matrix(109.62282,0,0,-109.6228,262.04736,450.5)"
       spreadMethod="pad"
       id="radialGradient28"><stop
         style="stop-opacity:1;stop-color:#897f67"
         offset="0"
         id="stop24" /><stop
         style="stop-opacity:1;stop-color:#474234"
         offset="1"
         id="stop26" /></radialGradient><linearGradient
       x1="0"
       y1="0"
       x2="1"
       y2="0"
       gradientUnits="userSpaceOnUse"
       gradientTransform="matrix(161.59473,0,0,-161.59473,221.25,440.8335)"
       spreadMethod="pad"
       id="linearGradient48"><stop
         style="stop-opacity:1;stop-color:#847e6e"
         offset="0"
         id="stop44" /><stop
         style="stop-opacity:1;stop-color:#5d594c"
         offset="1"
         id="stop46" /></linearGradient><clipPath
       clipPathUnits="userSpaceOnUse"
       id="clipPath58"><path
         d="M 0,792 H 612 V 0 H 0 Z"
         id="path56" /></clipPath><radialGradient
       fx="0"
       fy="0"
       cx="0"
       cy="0"
       r="1"
       gradientUnits="userSpaceOnUse"
       gradientTransform="matrix(36.585022,0,0,-36.585022,252.18066,458.32129)"
       spreadMethod="pad"
       id="radialGradient88"><stop
         style="stop-opacity:1;stop-color:#f7f8f7"
         offset="0"
         id="stop84" /><stop
         style="stop-opacity:1;stop-color:#bab9b0"
         offset="1"
         id="stop86" /></radialGradient><clipPath
       clipPathUnits="userSpaceOnUse"
       id="clipPath98"><path
         d="M 0,792 H 612 V 0 H 0 Z"
         id="path96" /></clipPath><radialGradient
       fx="0"
       fy="0"
       cx="0"
       cy="0"
       r="1"
       gradientUnits="userSpaceOnUse"
       gradientTransform="matrix(44.106247,0,0,-44.106232,297.14746,453.32129)"
       spreadMethod="pad"
       id="radialGradient132"><stop
         style="stop-opacity:1;stop-color:#f7f8f7"
         offset="0"
         id="stop128" /><stop
         style="stop-opacity:1;stop-color:#bab9b0"
         offset="1"
         id="stop130" /></radialGradient><clipPath
       clipPathUnits="userSpaceOnUse"
       id="clipPath142"><path
         d="M 0,792 H 612 V 0 H 0 Z"
         id="path140" /></clipPath><linearGradient
       x1="0"
       y1="0"
       x2="1"
       y2="0"
       gradientUnits="userSpaceOnUse"
       gradientTransform="matrix(36.302383,-46.464935,-46.464935,-36.302383,196.97461,448.23242)"
       spreadMethod="pad"
       id="linearGradient180"><stop
         style="stop-opacity:1;stop-color:#6e7375"
         offset="0"
         id="stop172" /><stop
         style="stop-opacity:1;stop-color:#141718"
         offset="0.49719274"
         id="stop174" /><stop
         style="stop-opacity:1;stop-color:#141718"
         offset="0.800003"
         id="stop176" /><stop
         style="stop-opacity:1;stop-color:#141718"
         offset="1"
         id="stop178" /></linearGradient><radialGradient
       fx="-0.99951202"
       fy="-0.031387299"
       cx="0"
       cy="0"
       r="1"
       gradientUnits="userSpaceOnUse"
       gradientTransform="matrix(13.53212,-16.496918,-11.019959,-9.0394745,208.8291,431.64453)"
       spreadMethod="pad"
       id="radialGradient202"><stop
         style="stop-opacity:1;stop-color:#566064"
         offset="0"
         id="stop196" /><stop
         style="stop-opacity:1;stop-color:#566064"
         offset="0.38548138"
         id="stop198" /><stop
         style="stop-opacity:1;stop-color:#141718"
         offset="1"
         id="stop200" /></radialGradient><clipPath
       clipPathUnits="userSpaceOnUse"
       id="clipPath212"><path
         d="M 0,792 H 612 V 0 H 0 Z"
         id="path210" /></clipPath><radialGradient
       fx="0"
       fy="0"
       cx="0"
       cy="0"
       r="1"
       gradientUnits="userSpaceOnUse"
       gradientTransform="matrix(76.984482,0,0,-76.984482,277.0166,398.57861)"
       spreadMethod="pad"
       id="radialGradient234"><stop
         style="stop-opacity:1;stop-color:#554f3f"
         offset="0"
         id="stop230" /><stop
         style="stop-opacity:1;stop-color:#000000"
         offset="1"
         id="stop232" /></radialGradient><clipPath
       clipPathUnits="userSpaceOnUse"
       id="clipPath244"><path
         d="M 0,792 H 612 V 0 H 0 Z"
         id="path242" /></clipPath><linearGradient
       x1="0"
       y1="0"
       x2="1"
       y2="0"
       gradientUnits="userSpaceOnUse"
       gradientTransform="matrix(3.7040253,5.2899017,5.2899017,-3.7040253,347.41992,384.88867)"
       spreadMethod="pad"
       id="linearGradient266"><stop
         style="stop-opacity:1;stop-color:#a45d26"
         offset="0"
         id="stop262" /><stop
         style="stop-opacity:1;stop-color:#e37e25"
         offset="1"
         id="stop264" /></linearGradient><clipPath
       clipPathUnits="userSpaceOnUse"
       id="clipPath276"><path
         d="M 0,792 H 612 V 0 H 0 Z"
         id="path274" /></clipPath><radialGradient
       fx="0"
       fy="0"
       cx="0"
       cy="0"
       r="1"
       gradientUnits="userSpaceOnUse"
       gradientTransform="matrix(20.432144,0,0,-20.432144,401.07617,362.08301)"
       spreadMethod="pad"
       id="radialGradient306"><stop
         style="stop-opacity:1;stop-color:#566064"
         offset="0"
         id="stop302" /><stop
         style="stop-opacity:1;stop-color:#141718"
         offset="1"
         id="stop304" /></radialGradient><clipPath
       clipPathUnits="userSpaceOnUse"
       id="clipPath316"><path
         d="M 0,792 H 612 V 0 H 0 Z"
         id="path314" /></clipPath><radialGradient
       fx="0"
       fy="0"
       cx="0"
       cy="0"
       r="1"
       gradientUnits="userSpaceOnUse"
       gradientTransform="matrix(4.1896667,-6.9589386,-6.9589386,-4.1896667,412.50098,361.49805)"
       spreadMethod="pad"
       id="radialGradient338"><stop
         style="stop-opacity:1;stop-color:#aaaaaa"
         offset="0"
         id="stop334" /><stop
         style="stop-opacity:1;stop-color:#2e3436"
         offset="1"
         id="stop336" /></radialGradient></defs><sodipodi:namedview
     pagecolor="#ffffff"
     bordercolor="#666666"
     borderopacity="1"
     objecttolerance="10"
     gridtolerance="10"
     guidetolerance="10"
     inkscape:pageopacity="0"
     inkscape:pageshadow="2"
     inkscape:window-width="1680"
     inkscape:window-height="987"
     id="namedview4"
     showgrid="false"
     inkscape:zoom="0.51515152"
     inkscape:cx="464.36008"
     inkscape:cy="-128.97934"
     inkscape:window-x="0"
     inkscape:window-y="29"
     inkscape:window-maximized="1"
     inkscape:current-layer="g10"
     inkscape:document-rotation="0"
     borderlayer="true"
     inkscape:showpageshadow="false"
     inkscape:snap-page="true" /><g
     id="g10"
     inkscape:groupmode="layer"
     inkscape:label="gimp"
     transform="matrix(1.3333333,0,0,-1.3333333,0,1056)"><g
       id="g251"
       transform="translate(-186.02873,276.75077)"><g
         id="g12"><g
           id="g14"><g
             id="g20"><g
               id="g22"><path
                 d="m 296.5,460.75 c -42.097,-1.061 -59.503,30.273 -59.503,30.273 v 0 C 241,425.5 221.25,402.75 221.25,402.75 v 0 c 54.75,-48 109.983,-30.824 115.5,-28.25 v 0 c 15,7 38.5,21 43.75,65.5 v 0 c 6.153,52.151 -1.75,72.25 -1.75,72.25 v 0 c -16.5,-36.5 -52.5,-50.75 -82.25,-51.5"
                 style="fill:url(#radialGradient28);stroke:none"
                 id="path30" /></g></g></g></g><g
         id="g32"><g
           id="g34"><g
             id="g40"><g
               id="g42"><path
                 d="m 296.5,460.75 c -0.702,-0.018 -1.395,-0.026 -2.082,-0.026 v 0 c -40.589,0 -57.421,30.299 -57.421,30.299 v 0 C 241,425.5 221.25,402.75 221.25,402.75 v 0 c 30.69,-26.906 61.529,-33.333 83.681,-33.333 v 0 c 17.366,0 29.396,3.953 31.819,5.083 v 0 c 15,7 38.5,21 43.75,65.5 v 0 c 6.153,52.151 -1.75,72.25 -1.75,72.25 v 0 c -16.5,-36.5 -52.5,-50.75 -82.25,-51.5 m 0.202,-7.998 c 25.679,0.648 57.179,11.006 77.691,36.984 v 0 c 0.762,-10.999 0.737,-26.971 -1.838,-48.798 v 0 c -2.111,-17.903 -7.623,-32.231 -16.381,-42.584 v 0 c -7.343,-8.679 -15.65,-13.264 -22.804,-16.603 v 0 c -1.876,-0.86 -12.83,-4.334 -28.439,-4.334 v 0 c -18.304,0 -45.402,4.811 -73.154,26.952 v 0 c 1.955,3.596 4.288,8.691 6.467,15.51 v 0 c 4.518,14.131 6.947,30.78 7.261,49.692 v 0 c 10.404,-8.485 26.375,-16.848 48.913,-16.848 v 0 c 0.754,0 1.514,0.01 2.284,0.029"
                 style="fill:url(#linearGradient48);stroke:none"
                 id="path50" /></g></g></g></g><g
         id="g52"><g
           id="g54"
           clip-path="url(#clipPath58)"><g
             id="g60"
             transform="translate(377.5205,440.3516)"><path
               d="m 0,0 c -4.815,-40.815 -24.996,-55.18 -42.039,-63.133 -2.174,-1.014 -13.729,-4.802 -30.551,-4.802 -19.859,0 -49.607,5.402 -79.632,30.805 4.633,7.039 16.461,29.881 15.133,78.102 8.504,-9.683 26.356,-24.344 56.144,-23.573 27.76,0.7 62.643,13.274 81.186,45.939 C 2.017,53.484 3.938,33.375 0,0 M 4.021,72.996 C 3.58,74.119 2.51,74.867 1.305,74.897 0.05,74.926 -1.008,74.233 -1.504,73.134 -17.596,37.537 -53.17,24.102 -81.096,23.397 c -39.67,-1.022 -56.138,27.541 -56.805,28.731 l -6.424,11.563 0.806,-13.203 c 3.86,-63.161 -14.837,-85.912 -15.017,-86.123 -1.082,-1.247 -0.954,-3.134 0.288,-4.222 32.125,-28.165 64.313,-34.078 85.658,-34.078 17.625,0 30.106,3.973 33.088,5.365 17.016,7.94 40.24,23.615 45.461,67.867 6.17,52.298 -1.604,72.85 -1.938,73.699"
               style="fill:#2e3436;fill-opacity:1;fill-rule:nonzero;stroke:none"
               id="path62" /></g><g
             id="g64"
             transform="translate(218.9844,404.7168)"><path
               d="M 0,0 -1.957,-2.255 0.288,-4.223 C -0.954,-3.134 -1.082,-1.247 0,0"
               style="fill:#2e3436;fill-opacity:1;fill-rule:nonzero;stroke:none"
               id="path66" /></g><g
             id="g68"
             transform="translate(278.9307,446.0713)"><path
               d="m 0,0 c 0,-13.255 -10.746,-24 -24,-24 -13.254,0 -24,10.745 -24,24 0,13.254 10.746,24 24,24 C -10.746,24 0,13.254 0,0"
               style="fill:#878a86;fill-opacity:1;fill-rule:nonzero;stroke:none"
               id="path70" /></g></g></g><g
         id="g72"><g
           id="g74"><g
             id="g80"><g
               id="g82"><path
                 d="m 235.68,446.072 c 0,-10.632 8.62,-19.251 19.25,-19.251 v 0 c 10.631,0 19.25,8.619 19.25,19.251 v 0 c 0,10.63 -8.619,19.25 -19.25,19.25 v 0 c -10.63,0 -19.25,-8.62 -19.25,-19.25"
                 style="fill:url(#radialGradient88);stroke:none"
                 id="path90" /></g></g></g></g><g
         id="g92"><g
           id="g94"
           clip-path="url(#clipPath98)"><g
             id="g100"
             transform="translate(271.6401,442.7285)"><path
               d="m 0,0 c 0,-7.11 -5.765,-12.875 -12.875,-12.875 -7.11,0 -12.874,5.765 -12.874,12.875 0,7.11 5.764,12.875 12.874,12.875 C -5.765,12.875 0,7.11 0,0"
               style="fill:#000000;fill-opacity:1;fill-rule:nonzero;stroke:none"
               id="path102" /></g><g
             id="g104"
             transform="translate(266.2695,442.6284)"><path
               d="m 0,0 c 0,-4.11 -3.333,-7.442 -7.442,-7.442 -4.11,0 -7.442,3.332 -7.442,7.442 0,4.11 3.332,7.442 7.442,7.442 C -3.333,7.442 0,4.11 0,0"
               style="fill:#2e3436;fill-opacity:1;fill-rule:nonzero;stroke:none"
               id="path106" /></g><g
             id="g108"
             transform="translate(263.0195,448.1284)"><path
               d="m 0,0 c 0,-4.11 -3.333,-7.442 -7.442,-7.442 -4.11,0 -7.442,3.332 -7.442,7.442 0,4.11 3.332,7.442 7.442,7.442 C -3.333,7.442 0,4.11 0,0"
               style="fill:#ffffff;fill-opacity:1;fill-rule:nonzero;stroke:none"
               id="path110" /></g><g
             id="g112"
             transform="translate(325.1475,443.5713)"><path
               d="m 0,0 c 0,-15.05 -12.201,-27.25 -27.25,-27.25 -15.05,0 -27.25,12.2 -27.25,27.25 0,15.05 12.2,27.25 27.25,27.25 C -12.201,27.25 0,15.05 0,0"
               style="fill:#878a86;fill-opacity:1;fill-rule:nonzero;stroke:none"
               id="path114" /></g></g></g><g
         id="g116"><g
           id="g118"><g
             id="g124"><g
               id="g126"><path
                 d="m 275.397,443.571 c 0,-12.426 10.074,-22.5 22.5,-22.5 v 0 c 12.427,0 22.5,10.074 22.5,22.5 v 0 c 0,12.427 -10.073,22.5 -22.5,22.5 v 0 c -12.426,0 -22.5,-10.073 -22.5,-22.5"
                 style="fill:url(#radialGradient132);stroke:none"
                 id="path134" /></g></g></g></g><g
         id="g136"><g
           id="g138"
           clip-path="url(#clipPath142)"><g
             id="g144"
             transform="translate(318.7695,439.8784)"><path
               d="m 0,0 c 0,-8.252 -6.691,-14.942 -14.942,-14.942 -8.252,0 -14.942,6.69 -14.942,14.942 0,8.252 6.69,14.942 14.942,14.942 C -6.691,14.942 0,8.252 0,0"
               style="fill:#000000;fill-opacity:1;fill-rule:nonzero;stroke:none"
               id="path146" /></g><g
             id="g148"
             transform="translate(312.7695,439.8784)"><path
               d="m 0,0 c 0,-4.8 -3.893,-8.692 -8.692,-8.692 -4.801,0 -8.692,3.892 -8.692,8.692 0,4.8 3.891,8.692 8.692,8.692 C -3.893,8.692 0,4.8 0,0"
               style="fill:#2e3436;fill-opacity:1;fill-rule:nonzero;stroke:none"
               id="path150" /></g><g
             id="g152"
             transform="translate(307.5195,445.6284)"><path
               d="m 0,0 c 0,-4.662 -3.78,-8.442 -8.442,-8.442 -4.662,0 -8.442,3.78 -8.442,8.442 0,4.662 3.78,8.442 8.442,8.442 C -3.78,8.442 0,4.662 0,0"
               style="fill:#ffffff;fill-opacity:1;fill-rule:nonzero;stroke:none"
               id="path154" /></g><g
             id="g156"
             transform="translate(235.1914,440.2598)"><path
               d="m 0,0 c 11.637,-15.302 12.086,-34.54 1.003,-42.968 -11.081,-8.427 -29.499,-2.853 -41.135,12.45 -11.637,15.301 -12.087,34.539 -1.004,42.966 C -30.055,20.875 -11.638,15.302 0,0"
               style="fill:#000000;fill-opacity:1;fill-rule:nonzero;stroke:none"
               id="path158" /></g></g></g><g
         id="g160"><g
           id="g162"><g
             id="g168"><g
               id="g170"><path
                 d="m 197.279,448.469 c -9.388,-7.138 -9.006,-23.432 0.85,-36.393 v 0 c 9.857,-12.962 25.456,-17.683 34.842,-10.545 v 0 c 9.387,7.138 9.007,23.434 -0.849,36.395 v 0 c -6.741,8.863 -16.165,13.872 -24.453,13.872 v 0 c -3.832,-10e-4 -7.422,-1.072 -10.39,-3.329"
                 style="fill:url(#linearGradient180);stroke:none"
                 id="path182" /></g></g></g></g><g
         id="g184"><g
           id="g186"><g
             id="g192"><g
               id="g194"><path
                 d="m 201.456,441.324 c -6.333,-4.814 -5.701,-16.297 1.409,-25.646 v 0 c 7.11,-9.351 18.007,-13.028 24.338,-8.213 v 0 c 6.333,4.815 5.702,16.299 -1.409,25.648 v 0 c -4.99,6.561 -11.844,10.328 -17.676,10.328 v 0 c -2.479,0 -4.774,-0.681 -6.662,-2.117"
                 style="fill:url(#radialGradient202);stroke:none"
                 id="path204" /></g></g></g></g><g
         id="g206"><g
           id="g208"
           clip-path="url(#clipPath212)"><g
             id="g214"
             transform="translate(213.9854,436.001)"><path
               d="m 0,0 c -0.363,-6.17 -4.891,-10.923 -10.113,-10.617 -5.223,0.308 -9.162,5.559 -8.799,11.73 0.363,6.17 4.891,10.924 10.114,10.616 C -3.576,11.422 0.363,6.171 0,0"
               style="fill:#ffffff;fill-opacity:1;fill-rule:nonzero;stroke:none"
               id="path216" /></g></g></g><g
         id="g218"><g
           id="g220"><g
             id="g226"><g
               id="g228"><path
                 d="M 328.25,408.25 C 308.75,393.5 275,399.75 275,399.75 v 0 c 37.25,-18.5 58.25,2.25 58.25,2.25 v 0 c 1.5,-0.5 4.5,-9.75 4.5,-9.75 v 0 c 11,16.25 -16.25,23.5 -16.25,23.5 v 0 c 2.75,-1.25 6.75,-7.5 6.75,-7.5"
                 style="fill:url(#radialGradient234);stroke:none"
                 id="path236" /></g></g></g></g><g
         id="g238"><g
           id="g240"
           clip-path="url(#clipPath244)"><g
             id="g246"
             transform="translate(377,382.5)"><path
               d="m 0,0 c 0,0 -4.167,5.166 -35,17.166 -7.024,2.733 -12.001,4.833 -15.167,3 -3.166,-1.833 -6.333,-6.5 -3,-10 2.267,-2.381 15.211,-9.418 18.667,-11.333 13.833,-7.667 24.501,-12.667 27.667,-13.667 z"
               style="fill:#663c16;fill-opacity:1;fill-rule:nonzero;stroke:none"
               id="path248" /></g></g></g><g
         id="g250"><g
           id="g252"><g
             id="g258"><g
               id="g260"><path
                 d="m 325.322,397.929 c 0,0 9.178,-7.679 29.011,-18.096 v 0 c 10.558,-5.545 15.5,-6.5 17.167,-6.833 v 0 l 2.833,5.666 c 0,0 -10.537,7.732 -27.166,14 v 0 c -8.135,3.067 -14.315,5.123 -20.666,6.459 v 0 c -0.372,0.078 -0.67,0.112 -0.904,0.112 v 0 c -1.179,0 -0.752,-0.867 -0.275,-1.308"
                 style="fill:url(#linearGradient266);stroke:none"
                 id="path268" /></g></g></g></g><g
         id="g270"><g
           id="g272"
           clip-path="url(#clipPath276)"><g
             id="g278"
             transform="translate(378.5,385.666)"><path
               d="m 0,0 c 0,0 -3.167,-1.333 -7,-7.666 -2.334,-3.855 -4,-8 -2.333,-12.667 0,0 1.5,0.499 3.333,1.833 0,0 15.834,-7 20.167,-6.5 l 5.5,8.667 c 0,0 -10.5,7.833 -18.834,12 C 0.833,-4.333 0.5,-1.5 0,0"
               style="fill:#878a86;fill-opacity:1;fill-rule:nonzero;stroke:none"
               id="path280" /></g><g
             id="g282"
             transform="translate(381.5,372.167)"><path
               d="M 0,0 C -0.459,-0.625 -1.566,-1.259 -3.833,-0.167 -5.706,0.735 -6.035,2.612 -5.947,4.146 -6.608,2.663 -7.525,0.142 -5,-1.667 -2.818,-3.229 -1.042,-2.25 -0.167,-2 c 0,0 0.017,-0.013 0.049,-0.035 C -0.369,-0.896 0,0 0,0"
               style="fill:#d6d6d6;fill-opacity:1;fill-rule:nonzero;stroke:none"
               id="path284" /></g><g
             id="g286"
             transform="translate(395.875,368)"><path
               d="m 0,0 c 0,0 -3.625,3.209 -12.708,6 0,0 0.708,2.75 -1.917,4.375 -2.625,1.625 -4.875,-0.25 -5.5,-1.625 -0.06,-0.132 -0.128,-0.28 -0.197,-0.437 -0.088,-1.534 0.241,-3.411 2.114,-4.313 2.267,-1.092 3.374,-0.458 3.833,0.167 0,0 -0.369,-0.896 -0.118,-2.035 0.469,-0.34 4.406,-3.087 12.326,-5.507 z"
               style="fill:#ffffff;fill-opacity:1;fill-rule:nonzero;stroke:none"
               id="path288" /></g></g></g><g
         id="g290"><g
           id="g292"><g
             id="g298"><g
               id="g300"><path
                 d="M 402.25,373 C 393,371.25 390.315,363.68 391.5,357.75 v 0 c 1.25,-6.25 5,-9.75 18.5,-14.5 v 0 c 12.446,-4.379 7.25,-2.25 16.25,-7.25 v 0 c 0,0 -5.5,14.75 -6.5,20.5 v 0 c -0.935,5.379 -7.342,16.665 -15.737,16.666 v 0 c -0.579,0 -1.167,-0.053 -1.763,-0.166"
                 style="fill:url(#radialGradient306);stroke:none"
                 id="path308" /></g></g></g></g><g
         id="g310"><g
           id="g312"
           clip-path="url(#clipPath316)"><g
             id="g318"
             transform="translate(409.5,365.5)"><path
               d="m 0,0 c 0,-3.037 -2.463,-5.5 -5.5,-5.5 -3.037,0 -5.5,2.463 -5.5,5.5 0,3.037 2.463,5.5 5.5,5.5 C -2.463,5.5 0,3.037 0,0"
               style="fill:#aaaaaa;fill-opacity:1;fill-rule:nonzero;stroke:none"
               id="path320" /></g></g></g><g
         id="g322"><g
           id="g324"><g
             id="g330"><g
               id="g332"><path
                 d="m 411.25,362.25 c -0.666,-0.807 0.878,-2.128 1.25,-2.5 v 0 c 1.75,-1.75 3.25,-2.75 4.25,-7.75 v 0 c 0,0 -0.5,6.75 -2,8.75 v 0 c -1,1.333 -1.927,1.914 -2.631,1.914 v 0 c -0.352,0 -0.648,-0.145 -0.869,-0.414"
                 style="fill:url(#radialGradient338);stroke:none"
                 id="path340" /></g></g></g></g></g></g></svg>
