<?xml version="1.0" encoding="UTF-8" standalone="no"?>
<svg
   xmlns:dc="http://purl.org/dc/elements/1.1/"
   xmlns:cc="http://creativecommons.org/ns#"
   xmlns:rdf="http://www.w3.org/1999/02/22-rdf-syntax-ns#"
   xmlns:svg="http://www.w3.org/2000/svg"
   xmlns="http://www.w3.org/2000/svg"
   xmlns:sodipodi="http://sodipodi.sourceforge.net/DTD/sodipodi-0.dtd"
   xmlns:inkscape="http://www.inkscape.org/namespaces/inkscape"
   version="1.1"
   id="svg2"
   xml:space="preserve"
   width="171.174"
   height="91.32"
   viewBox="0 0 171.174 91.32"
   sodipodi:docname="libre-office-seeklogo.com.svg"
   inkscape:version="1.0.2 (e86c870879, 2021-01-15)"><metadata
     id="metadata8"><rdf:RDF><cc:Work
         rdf:about=""><dc:format>image/svg+xml</dc:format><dc:type
           rdf:resource="http://purl.org/dc/dcmitype/StillImage" /><dc:title></dc:title></cc:Work></rdf:RDF></metadata><defs
     id="defs6" /><sodipodi:namedview
     pagecolor="#ffffff"
     bordercolor="#666666"
     borderopacity="1"
     objecttolerance="10"
     gridtolerance="10"
     guidetolerance="10"
     inkscape:pageopacity="0"
     inkscape:pageshadow="2"
     inkscape:window-width="1680"
     inkscape:window-height="987"
     id="namedview4"
     showgrid="false"
     inkscape:zoom="2.8177134"
     inkscape:cx="58.510327"
     inkscape:cy="13.589658"
     inkscape:window-x="0"
     inkscape:window-y="29"
     inkscape:window-maximized="1"
     inkscape:current-layer="g10"
     inkscape:document-rotation="0"
     inkscape:snap-global="true"
     inkscape:snap-bbox="true"
     inkscape:bbox-paths="true"
     inkscape:bbox-nodes="true"
     inkscape:snap-bbox-edge-midpoints="true"
     inkscape:snap-bbox-midpoints="true"
     inkscape:object-paths="true"
     inkscape:snap-page="true"
     inkscape:snap-center="true"
     inkscape:snap-object-midpoints="true"
     borderlayer="true"
     inkscape:showpageshadow="false" /><g
     id="g10"
     inkscape:groupmode="layer"
     inkscape:label="ink_ext_XXXXXX"
     transform="matrix(1.3333333,0,0,-1.3333333,0,1056)"><rect
       style="fill:#000000;stroke-width:0.640957;stroke-linejoin:round;stroke-dasharray:5.12766, 1.28192, 0.640957, 1.28192;paint-order:stroke fill markers"
       id="rect21"
       width="128.38052"
       height="68.490005"
       x="-1.1746684e-05"
       y="-792"
       transform="scale(1,-1)" /><g
       id="g12"
       transform="matrix(0.07132249,0,0,0.07132249,-154.05656,475.31801)"><path
         d="M 2508.41,4006.89 V 3791.98 H 2647 v 32.65 h -96.29 v 182.26 h -42.3"
         style="fill:#33a83f;fill-opacity:1;fill-rule:nonzero;stroke:none"
         id="path14" /><path
         d="m 2693.71,3959.97 c 13.26,0 24.31,10.78 24.31,24.41 0,13.32 -11.05,24.41 -24.31,24.41 -13.57,0 -24.3,-11.09 -24.3,-24.41 0,-13.63 10.73,-24.41 24.3,-24.41 z m -21.15,-167.99 h 42.3 v 154.68 h -42.3 v -154.68"
         style="fill:#33a83f;fill-opacity:1;fill-rule:nonzero;stroke:none"
         id="path16" /><path
         d="m 2787.89,3872.8 c 0,26.63 12,44.38 34.73,44.38 25.25,0 37.88,-18.07 37.88,-47.55 0,-29.16 -12.31,-48.17 -37.25,-48.17 -21.79,0 -35.36,17.11 -35.36,44.37 z m 0.64,55.8 h -0.64 v 91.6 h -42.3 v -228.22 h 41.36 l 0.94,18.06 h 0.64 c 13.26,-14.9 26.51,-21.24 48.29,-21.24 41.04,0 68.19,37.09 68.19,83.37 0,44.7 -24.31,77.66 -66.29,77.66 -22.42,0 -35.67,-6.65 -50.19,-21.23"
         style="fill:#33a83f;fill-opacity:1;fill-rule:nonzero;stroke:none"
         id="path18" /><path
         d="m 3018.51,3949.83 c -20.2,-1.26 -39.46,-13.63 -48.3,-30.75 h -0.63 l -0.94,27.58 h -41.35 v -154.68 h 42.29 v 58.32 c 0,31.06 5.69,42.16 15.47,49.13 8.52,6.02 18.63,8.56 32.52,9.19 l 0.94,41.21"
         style="fill:#33a83f;fill-opacity:1;fill-rule:nonzero;stroke:none"
         id="path20" /><path
         d="m 3105.97,3917.18 c 18.3,0 26.83,-14.89 27.46,-30.74 h -59.66 c 3.15,17.75 15.46,30.74 32.2,30.74 z m 68.18,-38.67 c 0,38.36 -23.36,71.32 -63.76,71.32 -48.62,0 -79.87,-33.6 -79.87,-84.63 0,-49.77 32.19,-76.4 79.87,-76.4 22.41,0 38.19,3.49 53.03,10.15 l -4.42,31.7 c -13.89,-5.71 -28.09,-9.19 -43.25,-9.19 -25.57,0 -41.98,11.72 -43.56,35.81 h 100.06 c 1.27,5.71 1.9,14.59 1.9,21.24 v 0"
         style="fill:#33a83f;fill-opacity:1;fill-rule:nonzero;stroke:none"
         id="path22" /><path
         d="m 3302.73,3988.5 c 42.3,0 74.5,-31.7 74.5,-89.07 0,-57.38 -32.2,-89.07 -74.5,-89.07 -42.3,0 -74.5,31.69 -74.5,89.07 0,57.37 32.2,89.07 74.5,89.07 z m 0,21.56 c -56.82,0 -103.54,-41.52 -103.54,-110.63 0,-69.1 46.72,-110.63 103.54,-110.63 56.82,0 103.54,41.53 103.54,110.63 0,69.11 -46.72,110.63 -103.54,110.63"
         style="fill:#2f2d2e;fill-opacity:1;fill-rule:nonzero;stroke:none"
         id="path24" /><path
         d="m 3446.7,3955.22 v -9.83 h -24.94 v -20.28 h 24.94 v -133.13 h 26.52 v 133.13 h 39.14 v 20.28 h -39.14 v 13.95 c 0,27.58 11.68,43.75 32.83,43.75 9.78,0 16.1,-1.59 22.09,-3.81 l 2.53,19.65 c -5.68,2.22 -16.42,4.44 -24.94,4.44 -37.56,0 -59.03,-24.41 -59.03,-68.15"
         style="fill:#2f2d2e;fill-opacity:1;fill-rule:nonzero;stroke:none"
         id="path26" /><path
         d="m 3534.86,3955.22 v -9.83 h -24.95 v -20.28 h 24.95 v -133.13 h 26.51 v 133.13 h 39.15 v 20.28 h -39.15 v 13.95 c 0,27.58 11.68,43.75 32.83,43.75 9.79,0 16.1,-1.59 22.1,-3.81 l 2.53,19.65 c -5.69,2.22 -16.42,4.44 -24.94,4.44 -37.57,0 -59.03,-24.41 -59.03,-68.15"
         style="fill:#2f2d2e;fill-opacity:1;fill-rule:nonzero;stroke:none"
         id="path28" /><path
         d="m 3644.49,3967.9 c 9.15,0 16.41,7.29 16.41,16.48 0,9.19 -7.26,16.48 -16.41,16.48 -9.15,0 -16.42,-7.29 -16.42,-16.48 0,-9.19 7.27,-16.48 16.42,-16.48 z m -13.26,-175.92 h 26.52 v 153.41 h -26.52 v -153.41"
         style="fill:#2f2d2e;fill-opacity:1;fill-rule:nonzero;stroke:none"
         id="path30" /><path
         d="m 3712.89,3869.32 c 0,38.67 23.04,58.96 53.03,58.96 15.78,0 29.67,-3.81 41.03,-9.2 l 2.53,20.29 c -9.47,4.76 -24.62,9.2 -41.35,9.2 -47.35,0 -83.03,-28.85 -83.03,-82.74 0,-50.71 32.2,-77.03 74.83,-77.03 18.93,0 32.51,2.23 47.97,8.88 l -2.52,20.29 c -13.26,-6.02 -27.46,-8.88 -40.72,-8.88 -30.62,0 -51.77,19.34 -51.77,60.23"
         style="fill:#2f2d2e;fill-opacity:1;fill-rule:nonzero;stroke:none"
         id="path32" /><path
         d="m 3897.81,3928.28 c 23.37,0 35.99,-19.34 35.99,-44.7 h -79.87 c 3.79,26.95 18.63,44.7 43.88,44.7 z m 61.24,-65.62 c 0.63,5.71 0.95,10.46 0.95,15.22 0,39.3 -20.52,70.69 -59.98,70.69 -42.62,0 -73.87,-35.51 -73.87,-82.74 0,-51.98 31.25,-77.03 73.87,-77.03 18.94,0 33.14,2.86 47.98,8.88 l -2.52,20.29 c -11.68,-5.71 -28.42,-8.88 -41.67,-8.88 -30.62,0 -50.51,18.71 -51.14,53.57 h 106.38"
         style="fill:#2f2d2e;fill-opacity:1;fill-rule:nonzero;stroke:none"
         id="path34" /><path
         d="m 2421.17,3997.82 v -191.89 h -245.19 v 309.15 h 130.93 l 1.33,-1.33 111.27,-111.94 1.66,-1.66 z m -102.37,127.32 c -4.05,3.91 -9.69,6.13 -15.32,5.99 h -127.49 c -11.06,0 -16.04,-9.28 -15.99,-15.98 v -309.07 c 0,-11.17 4.83,-15.99 15.99,-15.99 h 245.19 c 11.16,0 15.99,4.82 15.99,15.99 v 191.4 c 0.13,5.63 -2.08,11.28 -6,15.32 l -112.37,112.34"
         style="fill:#2f2d2e;fill-opacity:1;fill-rule:nonzero;stroke:none"
         id="path36" /><path
         d="m 2426.47,4131.07 h -64.22 c -1.1,0.17 -2.23,0.17 -3.34,0 -7.1,-2.28 -9.49,-13.08 -4.02,-18.16 l 64.22,-64.55 c 5.93,-5.66 17.75,-0.82 18.06,7.39 v 64.56 c 0,5.63 -5.1,10.76 -10.7,10.76"
         style="fill:#2f2d2e;fill-opacity:1;fill-rule:nonzero;stroke:none"
         id="path38" /></g></g></svg>
