<?xml version="1.0" encoding="UTF-8" standalone="no"?>
<svg
   xmlns:dc="http://purl.org/dc/elements/1.1/"
   xmlns:cc="http://creativecommons.org/ns#"
   xmlns:rdf="http://www.w3.org/1999/02/22-rdf-syntax-ns#"
   xmlns:svg="http://www.w3.org/2000/svg"
   xmlns="http://www.w3.org/2000/svg"
   xmlns:sodipodi="http://sodipodi.sourceforge.net/DTD/sodipodi-0.dtd"
   xmlns:inkscape="http://www.inkscape.org/namespaces/inkscape"
   width="644.995"
   height="210.201"
   viewBox="0 0 170.65492 55.615685"
   version="1.1"
   id="svg8"
   sodipodi:docname="oss-an.svg"
   inkscape:version="1.0.2 (e86c870879, 2021-01-15)">
  <defs
     id="defs2">
    <inkscape:path-effect
       effect="powerstroke"
       id="path-effect986"
       is_visible="true"
       lpeversion="1"
       offset_points="0,0.1322915"
       sort_points="true"
       interpolator_type="CubicBezierJohan"
       interpolator_beta="0.2"
       start_linecap_type="zerowidth"
       linejoin_type="extrp_arc"
       miter_limit="4"
       scale_width="1"
       end_linecap_type="zerowidth" />
  </defs>
  <sodipodi:namedview
     id="base"
     pagecolor="#ffffff"
     bordercolor="#666666"
     borderopacity="1.0"
     inkscape:pageopacity="0.0"
     inkscape:pageshadow="2"
     inkscape:zoom="0.98994949"
     inkscape:cx="463.40415"
     inkscape:cy="189.02952"
     inkscape:document-units="mm"
     inkscape:current-layer="layer1"
     inkscape:document-rotation="0"
     showgrid="false"
     inkscape:window-width="1680"
     inkscape:window-height="987"
     inkscape:window-x="0"
     inkscape:window-y="29"
     inkscape:window-maximized="1"
     inkscape:snap-page="true"
     inkscape:snap-bbox="true"
     borderlayer="true"
     inkscape:showpageshadow="false"
     units="px" />
  <metadata
     id="metadata5">
    <rdf:RDF>
      <cc:Work
         rdf:about="">
        <dc:format>image/svg+xml</dc:format>
        <dc:type
           rdf:resource="http://purl.org/dc/dcmitype/StillImage" />
        <dc:title></dc:title>
      </cc:Work>
    </rdf:RDF>
  </metadata>
  <g
     inkscape:label="Capa 1"
     inkscape:groupmode="layer"
     id="layer1">
    <g
       id="g1107"
       transform="matrix(0.99999869,0,0,1,-39.344801,2.150528e-5)">
      <g
         id="g1075"
         transform="translate(0,-120.69217)">
        <rect
           style="fill:#ffffff;fill-opacity:1;stroke:none;stroke-width:0;stroke-linejoin:round;stroke-opacity:1;paint-order:stroke fill markers"
           id="rect1033"
           width="170.65515"
           height="55.615662"
           x="39.344852"
           y="120.69217" />
        <g
           id="g1061">
          <path
             id="rect883-7"
             style="fill:#000000;stroke-width:0;stroke-linejoin:round;paint-order:stroke fill markers"
             d="m 83.658762,128.71024 c -1.15769,-0.0501 -3.32825,1.06364 -4.74752,2.64221 -1.81849,2.0226 -2.83785,4.63322 -2.43551,6.23631 0.15889,0.63302 0.26631,0.68355 1.18236,0.56069 2.21929,-0.29767 4.71604,-2.22956 5.81463,-4.49895 0.64393,-1.33016 1.15976,-3.78545 0.94051,-4.47621 -0.0453,-0.14267 -0.13142,-0.24928 -0.2496,-0.32504 l 5.3e-4,-0.0238 -0.0346,0.003 c -0.12631,-0.0708 -0.28509,-0.10979 -0.47077,-0.11782 z m -12.37289,8.99602 c -0.35542,-0.003 -0.76352,0.0116 -1.27331,0.0372 -2.68251,0.13495 -4.19249,0.72894 -5.93401,2.33422 -1.40838,1.29821 -2.88433,4.06498 -3.34036,6.26164 -0.409218,1.9712 -0.187759,7.39198 0.38654,9.4573 1.41934,5.10429 4.88684,10.65803 7.52409,12.05146 v 0 c 1.34776,0.7121 2.49581,0.65442 5.07721,-0.2558 2.81763,-0.99333 3.92206,-0.99452 6.77685,-0.005 1.0471,0.36279 2.27653,0.66749 3.0179,0.76117 0.0938,0.0159 0.17561,0.0269 0.22944,0.0274 0.014,1.1e-4 0.0288,-0.003 0.0429,-0.003 0.0394,0.003 0.0859,0.007 0.11989,0.007 1.47089,0 3.22742,-1.19745 5.07825,-3.46181 1.37815,-1.68606 3.77186,-6.06515 3.77186,-6.90036 0,-0.2399 -0.59345,-0.86228 -1.31878,-1.38337 -0.4852,-0.34859 -0.92165,-0.72094 -1.31104,-1.1152 l -0.0336,-0.0336 c -1.70398,-1.74315 -2.4764,-3.92591 -2.3027,-6.52054 0.15721,-2.34862 0.91004,-4.00108 2.62516,-5.76193 0.70545,-0.72425 1.28261,-1.47238 1.28261,-1.66243 0,-0.14457 -0.16417,-0.38995 -0.42272,-0.68006 -0.12818,-0.16511 -0.31093,-0.34325 -0.54415,-0.54364 -0.78908,-0.7305 -1.89162,-1.54641 -2.66909,-1.89032 -0.74744,-0.33063 -2.0402,-0.58908 -3.35741,-0.67128 -1.90954,-0.11913 -2.40354,-0.0439 -4.55115,0.6935 -1.32496,0.45493 -2.69256,0.82645 -3.03909,0.82579 -0.34653,-7.9e-4 -1.5808,-0.37116 -2.74298,-0.8232 -1.43467,-0.558 -2.02606,-0.73521 -3.09232,-0.7457 z"
             sodipodi:nodetypes="cssssscccccccssssscccscssssccsssccssscscc" />
          <g
             id="g1049"
             transform="translate(8.1312279,-115.32717)">
            <path
               style="fill:#ffffff;fill-opacity:1;stroke:none;stroke-width:0.264583px;stroke-linecap:butt;stroke-linejoin:miter;stroke-opacity:1"
               d="m 110.37571,249.12888 6.94302,-0.99194 2.03482,3.90147 6.04336,15.57249 1.8433,3.24358 -1.77756,1.49821 -6.60734,7.29371 -5.98254,1.19976 -4.40554,-2.32577 -4.32605,-9.67325 4.79797,-11.07403 0.73757,-7.75229 z"
               id="path1041" />
            <g
               id="g1039"
               transform="translate(-12.539171,-64.314164)">
              <path
                 style="fill:#f8c053;fill-opacity:1;stroke:none;stroke-width:0.264583px;stroke-linecap:butt;stroke-linejoin:miter;stroke-opacity:1"
                 d="m 124.54956,321.77095 c 0.35093,0.25287 0.99584,0.47328 1.42809,0.45739 1.93664,-0.0712 3.93759,-1.53891 4.75806,-3.06733 0,0 -2.37917,-2.39414 -4.64109,-2.34075 -1.64312,0.0388 -3.62026,1.9154 -3.80151,2.45762 0,0 1.34708,1.8378 2.25645,2.49307 z"
                 id="path988"
                 sodipodi:nodetypes="sssscs" />
              <path
                 style="fill:#f8c053;fill-opacity:1;stroke:none;stroke-width:0.264583px;stroke-linecap:butt;stroke-linejoin:miter;stroke-opacity:1"
                 d="m 133.96898,335.84703 c -1.2919,2.22725 -2.55902,6.26617 -2.10678,9.17379 0.15963,1.02632 0.66886,2.37701 1.67722,2.62607 3.24221,0.80081 5.77654,-4.07936 8.70394,-4.96187 -0.10462,-2.47961 -1.16212,-4.26442 -2.16702,-5.86332 -1.39196,-0.7784 -2.29092,0.19229 -3.43293,0.11091 -0.84867,-0.0605 -1.95731,-1.54344 -2.67443,-1.08558 z"
                 id="path990"
                 sodipodi:nodetypes="ccccccc" />
              <path
                 style="fill:#f8c053;fill-opacity:1;stroke:none;stroke-width:0.264583px;stroke-linecap:butt;stroke-linejoin:miter;stroke-opacity:1"
                 d="m 122.26286,344.73938 c 0.0542,-3.64485 -3.08214,-6.06767 -4.93064,-9.46616 -1.67748,0.36691 -4.85022,2.07845 -5.71208,3.57288 -0.55061,1.73424 -1.43408,3.81044 -0.65191,5.47278 2.62157,1.37353 6.4454,2.74573 8.6708,2.69576 1.33816,-0.0522 2.56709,-0.89321 2.62383,-2.27526 z"
                 id="path1011"
                 sodipodi:nodetypes="cccccc" />
              <path
                 id="rect883-5"
                 style="fill:#000000;stroke-width:0;stroke-linejoin:round;paint-order:stroke fill markers"
                 d="m 127.79008,307.92417 c -1.93736,0.0287 -4.0669,0.83449 -4.89376,2.02158 -0.93613,1.34397 -1.18173,2.54309 -1.27693,6.23425 -0.1099,4.2635 -0.32783,5.24426 -1.54822,6.97632 -4.12331,5.85208 -5.04072,7.69571 -5.35575,10.76317 -0.14643,1.4259 -0.62299,2.47317 -1.40146,3.1042 -0.0363,0.028 -0.0725,0.0562 -0.10956,0.0837 -0.25112,0.1846 -0.52985,0.33062 -0.8387,0.43254 -1.46023,0.48191 -1.98792,1.38604 -1.91152,3.27681 0.0358,0.88675 -0.03,2.03234 -0.14624,2.54558 -0.34468,1.52159 0.43031,2.252 2.80241,2.64118 1.05477,0.17303 2.6321,0.60571 3.50522,0.96168 0.87313,0.356 2.1828,0.70853 2.91041,0.78343 1.11773,0.11509 1.32112,0.12554 2.53525,-0.70488 0.15207,-0.0813 0.27771,-0.16645 0.36535,-0.25167 0.17259,-0.12086 0.34898,-0.24476 0.56069,-0.39428 0.65516,-0.46262 1.17504,-0.52917 4.1367,-0.52864 h 2.63033 c 0.45939,0.0835 0.7792,0.17534 1.03869,0.31369 l 0.70797,0.78857 c 0.54438,0.60618 1.16819,1.16228 1.38648,1.2356 1.47861,0.49633 3.55824,-0.24633 5.02708,-1.79525 0.50932,-0.53708 1.74058,-1.40547 2.73575,-1.92961 2.68757,-1.41546 3.0252,-2.23663 1.69602,-4.12324 -0.28936,-0.41074 -0.69129,-1.29513 -0.89296,-1.96527 -0.20169,-0.67011 -0.56139,-1.43349 -0.79944,-1.69653 -0.3386,-0.37412 -0.39917,-0.80354 -0.27853,-1.9725 0.33171,-3.21403 -0.74686,-6.14749 -3.74913,-10.19886 -2.59055,-3.49577 -2.73062,-3.89188 -2.94504,-8.30802 -0.15455,-3.18314 -0.2775,-3.93248 -0.85008,-5.18315 -0.71699,-1.56612 -1.57824,-2.3321 -3.22306,-2.86597 -0.54772,-0.17778 -1.17218,-0.2545 -1.81797,-0.24495 z m 0.97513,5.63015 c 0.22323,-0.007 0.44508,0.0403 0.65268,0.15141 0.77951,0.41718 1.0883,1.1278 1.0883,2.50321 0,0.9069 -0.12247,1.26406 -0.50281,1.46761 -0.6016,0.32197 -0.83179,-0.0698 -0.63769,-1.08521 0.14407,-0.75363 -0.5175,-1.6044 -1.08004,-1.38854 -0.19436,0.0746 -0.4894,0.43336 -0.65525,0.79736 -0.33094,0.72635 -0.82838,0.62739 -0.82838,-0.16484 0,-1.21389 0.99585,-2.25213 1.96319,-2.281 z m -4.92476,0.47626 c 0.39274,0.0164 0.76448,0.26698 1.01751,0.62529 0.14869,0.28315 0.25941,0.61186 0.32349,0.95343 0.002,0.0862 2.6e-4,0.17301 -0.0124,0.25942 -0.11556,0.78757 -0.65903,0.93155 -0.88056,0.23357 -0.28708,-0.90452 -1.06566,-0.54278 -1.01906,0.47336 0.0476,1.03714 -0.35031,1.11021 -0.72192,0.13281 -0.41189,-1.08337 0.21908,-2.56458 1.13843,-2.67219 0.0516,-0.006 0.10339,-0.008 0.15451,-0.006 z m 2.25516,2.86603 h 5.3e-4 c 0.51672,8e-5 1.00751,0.11062 1.09089,0.24546 0.0834,0.13491 0.5963,0.38823 1.13998,0.56276 1.81292,0.582 2.4164,1.63841 1.50843,2.6417 -0.37248,0.41154 -0.35404,0.43945 0.22014,0.32969 0.56841,-0.10866 0.68057,0.0473 1.21595,1.68827 0.32447,0.99455 1.2379,3.25432 2.02934,5.02192 0.79144,1.7676 1.43867,3.3919 1.43867,3.60908 0,0.66977 0.87388,1.4189 2.0314,1.74201 1.01046,0.28206 2.44184,1.53836 2.46444,2.15595 -2.5e-4,0.0156 -0.002,0.0276 -0.003,0.0424 -0.0273,0.29646 -0.4576,0.27371 -0.65836,-0.0512 -0.29782,-0.48189 -2.20748,-1.31931 -3.0086,-1.31931 -0.60912,0 -0.90956,0.20537 -1.35496,0.92606 -0.31478,0.50932 -0.67831,0.92604 -0.80822,0.92604 -0.49491,0 -1.00003,1.54755 -1.29397,3.96563 -0.35671,2.93452 -0.68686,3.42609 -2.84582,4.23386 -1.57002,0.58743 -3.73404,0.66601 -4.97386,0.18087 -0.9332,-0.36518 -1.57018,-0.71184 -1.94304,-1.07178 -0.0939,-0.10228 -0.17605,-0.20171 -0.24546,-0.29816 -0.26075,-0.42264 -0.18273,-0.87365 0.20826,-1.4025 0.77271,-1.04516 0.39727,-1.86521 -1.83503,-4.00907 -1.56073,-1.49887 -1.82541,-1.89077 -1.97456,-2.92177 -0.24531,-1.6958 0.31011,-3.52524 2.33009,-7.67293 0.95675,-1.96453 1.74208,-3.81 1.74408,-4.10104 0.002,-0.19157 0.0535,-0.43348 0.12661,-0.64079 0.0522,-0.11659 0.10495,-0.23043 0.15451,-0.32194 0.20294,-0.29874 0.36683,-0.27211 1.09296,0.14262 0.85238,0.48684 0.84658,0.47195 -0.25373,-0.67438 -0.58334,-0.60772 -1.06061,-1.22403 -1.11363,-1.42936 0.007,-0.0467 0.0167,-0.0942 0.03,-0.14211 0.13898,-0.24551 0.64713,-0.76791 1.25264,-1.27486 0.98102,-0.82137 1.52021,-1.08301 2.23294,-1.08314 z m 2.77502,2.18801 c -0.51892,0.004 -2.00208,1.16537 -2.96984,1.18287 -0.99221,0.0179 -2.57819,-1.27867 -2.84066,-0.8909 -0.22158,0.32737 1.76316,1.39226 2.80655,1.387 1.18181,-0.006 3.40334,-1.18109 3.1626,-1.60301 -0.0305,-0.0534 -0.0845,-0.0765 -0.15865,-0.076 z m -0.23409,2.15129 c -0.17214,-0.0181 -1.55704,0.62529 -1.8123,0.85369 -0.0606,0.0542 -0.0252,0.0987 0.0791,0.0987 0.28395,0 1.7508,-0.78707 1.7508,-0.93947 0,-0.007 -0.006,-0.0117 -0.0176,-0.0129 z m -12.38529,14.85497 c 0.21838,0.01 0.44612,0.0898 0.71313,0.22788 0.46574,0.24085 1.08321,1.02119 1.62832,2.05828 0.48295,0.91881 1.40457,2.41778 2.04794,3.33054 1.47033,2.08598 1.6862,3.14997 0.83096,4.09536 -0.87004,0.96176 -1.928,1.08696 -3.66541,0.43407 -0.80037,-0.30075 -2.41749,-0.75514 -3.59358,-1.00975 -1.17609,-0.25459 -2.27348,-0.54669 -2.43913,-0.64905 -0.32435,-0.20048 -0.2668,-4.8958 0.0667,-5.43534 0.0997,-0.16137 0.61965,-0.51789 1.15548,-0.79272 0.53583,-0.27479 1.27175,-0.81997 1.63556,-1.21129 0.70471,-0.75803 1.13962,-1.07045 1.62006,-1.04798 z m 17.87849,0.39841 c 0.17997,0.013 0.3703,0.22748 0.56379,0.65217 0.16674,0.36594 0.59577,0.79872 0.95343,0.96171 0.54568,0.2486 0.86917,0.18142 2.01176,-0.41601 1.26907,-0.66357 1.40429,-0.68389 1.98903,-0.30075 0.34507,0.22609 0.74972,0.85794 0.89917,1.40404 0.14946,0.5461 0.51127,1.38287 0.80409,1.85933 0.93346,1.51884 0.66207,2.11212 -1.45211,3.17653 -0.58208,0.29308 -1.61493,1.0237 -2.29547,1.62367 -0.68054,0.6 -1.65921,1.26728 -2.17454,1.4826 -1.05665,0.44151 -1.13123,0.44659 -1.91772,0.12919 -1.38317,-0.55819 -1.72491,-2.04639 -1.01699,-4.43021 0.22031,-0.74189 0.51743,-2.26824 0.65991,-3.39204 0.23213,-1.83086 0.57972,-2.77849 0.97565,-2.75023 z"
                 sodipodi:nodetypes="cssssccssssssccscccccsssssssssscccssssssscccccsssscccsssssssssccsssssssccsssscccssccsscsssssssssssssssssssssssssscssssssssssssc" />
            </g>
          </g>
          <path
             id="rect883-3"
             style="fill:#0d84d8;fill-opacity:1;stroke-width:0;stroke-linejoin:round;paint-order:stroke fill markers"
             d="m 190.49575,128.92418 c -1.27013,-0.0768 -16.10931,2.05914 -19.89646,2.82567 -0.43942,0.0711 -0.77683,0.12875 -0.89245,0.15606 -0.007,0.002 -0.0138,0.0417 -0.0202,0.0982 -0.23415,0.29346 -0.31058,2.21937 -0.31058,7.71064 0,4.10528 0.0797,7.54388 0.17674,7.64088 0.0163,0.0163 0.14468,0.0304 0.33434,0.0439 0.27772,0.0867 2.12404,0.10705 4.53047,0.091 5.8627,0.0415 15.0138,-0.0335 15.59595,-0.19534 l 0.66146,-0.18397 0.009,-1.10536 c 0.0687,-1.47424 0.11789,-4.60749 0.11937,-8.16901 0.002,-4.64492 -0.0336,-7.01948 -0.13746,-8.10338 -0.0247,-0.47916 -0.0536,-0.75895 -0.0863,-0.79168 -0.009,-0.009 -0.0373,-0.0148 -0.0837,-0.0176 z m -23.98872,3.43751 v 5.3e-4 c -0.97285,0.0256 -3.02337,0.27886 -7.15615,0.85111 -4.24564,0.58789 -7.8345,1.14032 -7.97522,1.22732 -0.2788,0.17235 -0.36743,12.22742 -0.0951,12.93719 0.0317,0.0827 0.10928,0.14892 0.27906,0.20258 0.008,0.0378 0.0152,0.0655 0.0233,0.0739 0.0562,0.0596 0.8005,0.0925 1.92288,0.0992 1.16908,0.0336 2.92642,0.0429 5.65909,0.0429 5.20023,0 7.4354,-0.0722 7.94267,-0.26458 h 0.15193 v -0.21239 c 0.32816,-1.56846 0.38418,-14.27032 0.0336,-14.82338 -0.008,-0.0122 -0.021,-0.0224 -0.0336,-0.0331 v -0.0124 h -0.0129 c -0.0659,-0.0453 -0.18555,-0.0753 -0.3855,-0.0863 -0.0979,-0.005 -0.21501,-0.006 -0.35399,-0.003 z m 18.12189,17.33422 c -1.30944,-0.002 -2.86728,0.003 -4.70048,0.0155 l -10.15546,0.0692 h -0.26458 l -0.0698,7.57112 c -0.0543,5.86336 -0.003,7.51655 0.25683,7.8326 0.002,0.039 0.005,0.0967 0.008,0.0977 0.002,0 0.54101,0.0751 0.57413,0.0801 1.34539,0.28292 5.10053,0.86556 9.43663,1.45211 5.30097,0.71705 9.93583,1.28516 10.29963,1.26296 l 0.66146,-0.0403 v -0.26458 l 0.0698,-8.76176 c 0.0375,-4.71329 0.0259,-7.01222 -0.0698,-8.12302 v -1.10691 h -1.42524 c -0.92579,-0.0521 -2.39752,-0.0806 -4.6209,-0.0847 z m -33.37677,0.0847 -0.0708,6.37997 c -0.0538,4.84606 0.006,6.408 0.25684,6.64715 0.003,0.0375 0.005,0.087 0.008,0.0878 0.003,0 0.50801,0.0695 0.54519,0.0749 1.07565,0.23593 3.63496,0.65088 6.53707,1.04852 3.641,0.4989 7.07418,0.88871 7.75249,0.88212 0.0943,0.0109 0.49322,0.0641 0.51987,0.0656 0.0854,0.005 0.15446,-0.0114 0.21084,-0.0904 l 0.38034,-0.0145 v -7.54063 -7.54064 h -8.06979 z"
             sodipodi:nodetypes="scccssccsccscsssccssscccsccccccccccssccccccssccscccsscscccscccccccc" />
        </g>
      </g>
    </g>
  </g>
</svg>
