<?xml version="1.0" encoding="UTF-8" standalone="no"?>
<svg
   xmlns:dc="http://purl.org/dc/elements/1.1/"
   xmlns:cc="http://creativecommons.org/ns#"
   xmlns:rdf="http://www.w3.org/1999/02/22-rdf-syntax-ns#"
   xmlns:svg="http://www.w3.org/2000/svg"
   xmlns="http://www.w3.org/2000/svg"
   xmlns:sodipodi="http://sodipodi.sourceforge.net/DTD/sodipodi-0.dtd"
   xmlns:inkscape="http://www.inkscape.org/namespaces/inkscape"
   width="200"
   height="199.983"
   viewBox="0 0 52.916665 52.912171"
   version="1.1"
   id="svg8"
   inkscape:version="1.0.2 (e86c870879, 2021-01-15)"
   sodipodi:docname="wps.svg">
  <defs
     id="defs2" />
  <sodipodi:namedview
     id="base"
     pagecolor="#ffffff"
     bordercolor="#666666"
     borderopacity="1.0"
     inkscape:pageopacity="0.0"
     inkscape:pageshadow="2"
     inkscape:zoom="0.98994949"
     inkscape:cx="182.58209"
     inkscape:cy="44.592023"
     inkscape:document-units="mm"
     inkscape:current-layer="layer1"
     inkscape:document-rotation="0"
     showgrid="false"
     borderlayer="true"
     inkscape:showpageshadow="false"
     units="px"
     inkscape:snap-page="false"
     inkscape:snap-global="true"
     inkscape:snap-bbox="true"
     inkscape:bbox-nodes="true"
     inkscape:bbox-paths="true"
     inkscape:snap-bbox-edge-midpoints="true"
     inkscape:snap-bbox-midpoints="true"
     inkscape:window-width="1680"
     inkscape:window-height="987"
     inkscape:window-x="0"
     inkscape:window-y="29"
     inkscape:window-maximized="1" />
  <metadata
     id="metadata5">
    <rdf:RDF>
      <cc:Work
         rdf:about="">
        <dc:format>image/svg+xml</dc:format>
        <dc:type
           rdf:resource="http://purl.org/dc/dcmitype/StillImage" />
        <dc:title></dc:title>
      </cc:Work>
    </rdf:RDF>
  </metadata>
  <g
     inkscape:label="Capa 1"
     inkscape:groupmode="layer"
     id="layer1">
    <g
       id="g211"
       transform="matrix(1.0833403,0,0,1.0833403,-127.71714,-80.084442)">
      <path
         style="fill:#fdd4d4;stroke-width:0.264583"
         d="m 126.77647,122.58614 c -3.96891,-0.81081 -7.43558,-4.08817 -8.48209,-8.01887 -0.54154,-2.03405 -0.53414,-30.375676 0.008,-32.414146 0.85643,-3.217426 3.39002,-6.047284 6.6764,-7.457095 l 1.54191,-0.661458 14.81667,-0.08305 c 15.99887,-0.08968 16.86003,-0.03341 19.43631,1.26999 2.30208,1.164672 4.28592,3.326069 5.34627,5.824795 l 0.61742,1.454928 v 15.875 15.874996 l -0.61746,1.45521 c -0.62856,1.48137 -2.4178,3.86737 -3.59379,4.79241 -0.35764,0.28132 -1.46142,0.89569 -2.45284,1.36527 l -1.80258,0.85378 -15.21354,0.0432 c -8.36745,0.0237 -15.69397,-0.055 -16.28114,-0.17493 z M 149.364,111.64552 c 0.27598,-0.21454 3.74778,-7.11336 3.74778,-7.44724 0,-0.0436 0.6411,-1.43094 1.42467,-3.08296 5.03437,-10.614116 5.79491,-12.334606 5.80929,-13.141806 0.009,-0.49357 -0.15229,-0.98394 -0.36802,-1.12043 -0.61878,-0.39145 -13.29518,-0.318 -13.79381,0.0799 -0.22794,0.18191 -1.01012,1.46183 -1.73819,2.84428 -2.12918,4.04287 -6.42365,11.964086 -6.99285,12.898426 -0.28811,0.47295 -0.61693,0.8599 -0.73071,0.8599 -0.11378,0 -0.53884,-0.74414 -0.94457,-1.65365 -0.40574,-0.9095 -1.43389,-3.115646 -2.28478,-4.902536 -2.02369,-4.24979 -2.36761,-5.09369 -2.19179,-5.37817 0.0804,-0.13006 1.07317,-0.23647 2.20619,-0.23647 2.41229,0 2.36715,-0.0343 4.00266,3.0427 0.61879,1.16417 1.21256,2.21514 1.31949,2.33549 0.10694,0.12035 0.75222,-0.80446 1.43396,-2.05513 0.90866,-1.66697 1.19027,-2.43162 1.055,-2.86465 -0.26292,-0.84162 -2.51313,-4.78616 -2.86284,-5.01843 -0.46436,-0.30842 -13.08497,-0.2425 -13.67152,0.0714 -0.67597,0.36177 -0.667,1.58507 0.0209,2.84869 0.54071,0.99325 3.96527,8.23521 3.96527,8.3854 0,0.045 0.75908,1.67113 1.68685,3.613516 0.92776,1.94239 2.30683,4.84131 3.0646,6.44204 1.63062,3.44458 1.94202,3.83646 3.04864,3.83646 1.10475,0 1.59217,-0.57195 3.38216,-3.96875 0.80518,-1.52797 2.20464,-4.14735 3.1099,-5.82084 0.90526,-1.67349 2.30462,-4.292856 3.1097,-5.820826 0.80507,-1.52797 1.77722,-3.25438 2.16033,-3.83646 l 0.69656,-1.05833 2.08251,-0.078 c 1.14539,-0.0429 2.19016,0.0296 2.32173,0.16121 0.14257,0.14256 -0.23871,1.24306 -0.94371,2.72384 -0.65061,1.36655 -1.89931,4.00268 -2.7749,5.858066 -0.87558,1.85539 -1.68977,3.37243 -1.80931,3.37121 -0.11954,-0.001 -0.62797,-0.77529 -1.12984,-1.72012 -0.50186,-0.94484 -0.99419,-1.62845 -1.09406,-1.51913 -0.0999,0.10933 -0.70087,1.18978 -1.33557,2.401 l -1.15399,2.20223 1.18972,2.27733 c 2.5758,4.9305 3.4185,5.68666 4.98257,4.47083 z"
         id="path194" />
      <path
         style="fill:#fdafad;stroke-width:0.264583"
         d="m 125.7274,122.21954 c -2.43759,-0.78021 -4.70769,-2.57244 -6.1959,-4.89161 -1.5307,-2.38539 -1.60109,-3.21286 -1.6054,-18.872526 -0.004,-14.74695 0.0672,-15.88973 1.13238,-18.170275 0.86739,-1.856999 3.16806,-4.137729 5.16616,-5.121395 l 1.75622,-0.86458 h 16.40973 16.40973 l 1.5875,0.772012 c 2.27676,1.107204 4.59743,3.547592 5.57637,5.864027 l 0.77363,1.830631 v 15.61041 15.610416 l -0.77363,1.83063 c -0.98907,2.34042 -3.34616,4.82262 -5.59299,5.88987 l -1.57088,0.74617 -16.00729,0.0525 c -12.39938,0.0407 -16.24584,-0.0239 -17.06563,-0.28626 z m 11.72095,-10.32915 c 0.51801,-0.27295 1.4056,-1.66642 3.22801,-5.06785 1.38245,-2.58026 3.7637,-7.024516 5.29167,-9.876126 l 2.77812,-5.18476 2.31511,-0.0765 c 1.33231,-0.044 2.3151,0.0298 2.3151,0.17378 0,0.27408 -0.84724,2.18148 -2.77734,6.25267 -0.6899,1.45521 -1.53515,3.279606 -1.87833,4.054226 -0.34319,0.77461 -0.73783,1.33802 -0.877,1.25201 -0.13916,-0.086 -0.64267,-0.92343 -1.11891,-1.86094 -0.47624,-0.93752 -0.88441,-1.679516 -0.90704,-1.648886 -0.0226,0.0306 -0.64851,1.164286 -1.39081,2.519276 l -1.34966,2.4636 1.77611,3.31653 c 1.99162,3.71896 2.67314,4.35479 4.05448,3.78262 0.55516,-0.22995 0.98152,-0.76886 1.53412,-1.93907 0.42091,-0.89134 1.68326,-3.58515 2.80521,-5.98624 1.12195,-2.4011 2.54567,-5.437186 3.16381,-6.746876 4.41385,-9.35188 4.55693,-9.75001 3.74581,-10.42318 -0.25622,-0.21264 -2.37589,-0.28068 -7.19153,-0.23083 l -6.82823,0.0707 -0.70976,1.20829 c -0.39037,0.66456 -2.40227,4.3555 -4.4709,8.20209 -2.06863,3.84658 -3.86798,7.104006 -3.99856,7.238736 -0.22548,0.23263 -1.26241,-1.80168 -4.50793,-8.843906 l -1.28034,-2.77813 2.29647,-0.0773 c 2.67353,-0.09 2.45501,-0.25686 4.28078,3.26941 0.75956,1.467 1.23984,2.1409 1.36586,1.91648 0.1069,-0.19036 0.72946,-1.29393 1.38346,-2.45236 l 1.1891,-2.10624 -0.93085,-1.84841 c -0.51196,-1.01663 -1.21794,-2.30321 -1.56885,-2.85908 l -0.63801,-1.01067 -6.92923,0.0705 -6.92923,0.0705 -0.37156,0.66225 c -0.35156,0.62659 -0.12282,1.18933 4.24813,10.45104 2.54083,5.383836 5.01642,10.659156 5.5013,11.722936 0.56853,1.2473 1.12347,2.06566 1.5627,2.30451 0.86353,0.46956 0.95476,0.47032 1.81872,0.0151 z"
         id="path192" />
      <path
         style="fill:#fd8c89;stroke-width:0.264583"
         d="m 126.28772,122.29631 c -4.05172,-0.9709 -7.41795,-4.65923 -8.11024,-8.88625 -0.33384,-2.03841 -0.32742,-28.067806 0.007,-30.115076 0.58158,-3.555728 2.88339,-6.538038 6.29278,-8.153137 l 1.77888,-0.842693 h 16.13959 16.13959 l 1.78349,0.84485 c 2.30834,1.093473 4.21568,3.000822 5.30916,5.30916 l 0.84485,1.78349 v 16.13958 16.139586 l -0.84485,1.78349 c -1.09348,2.30834 -3.00082,4.21569 -5.30916,5.30916 l -1.78349,0.84485 -15.61042,0.0446 c -8.8887,0.0254 -16.05272,-0.0614 -16.6376,-0.20157 z m 11.66535,-10.75706 c 0.36045,-0.40018 2.44165,-4.06135 4.6249,-8.13593 2.18324,-4.074586 4.50023,-8.390596 5.14886,-9.591146 l 1.17933,-2.18281 h 2.26596 c 2.03402,0 2.25189,0.0474 2.12852,0.46302 -0.32381,1.09091 -5.10894,11.010446 -5.34884,11.088116 -0.14519,0.047 -0.69433,-0.70213 -1.22031,-1.66472 l -0.95633,-1.750176 -1.3793,2.551026 c -0.75862,1.40306 -1.3403,2.63827 -1.29263,2.7449 0.0477,0.10663 0.84087,1.59315 1.76267,3.30338 1.69949,3.1531 2.3483,3.90195 3.38065,3.90195 1.2373,0 1.54288,-0.53853 6.98118,-12.303126 0.40361,-0.87312 1.76578,-3.77741 3.02705,-6.45396 2.49528,-5.29527 2.69234,-6.21103 1.47158,-6.83859 -0.49618,-0.25508 -2.22991,-0.3227 -6.93846,-0.27062 -5.88266,0.0651 -6.30876,0.10267 -6.7826,0.59859 -0.27808,0.29104 -1.49529,2.37464 -2.70492,4.63021 -5.00139,9.326026 -6.21029,11.481036 -6.48984,11.568876 -0.16166,0.0508 -0.53972,-0.4776 -0.84013,-1.1742 -0.30041,-0.69661 -1.22386,-2.695306 -2.05213,-4.441556 -1.83592,-3.87073 -2.50234,-5.39153 -2.50234,-5.71047 0,-0.13346 1.00278,-0.24265 2.2284,-0.24265 h 2.2284 l 1.49017,2.77812 c 0.81959,1.52797 1.53294,2.77813 1.58523,2.77813 0.0523,0 0.70335,-1.12839 1.44682,-2.50752 l 1.35177,-2.50753 -1.39756,-2.57913 c -0.87046,-1.60638 -1.6461,-2.70487 -2.05654,-2.91253 -0.4727,-0.23916 -2.3878,-0.33451 -6.77486,-0.33731 -5.78982,-0.004 -6.15305,0.0253 -6.81302,0.54447 -0.38343,0.30161 -0.69714,0.72146 -0.69714,0.93301 0,0.36422 1.56595,3.78484 8.04288,17.568616 1.53854,3.27422 3.05039,6.16149 3.35967,6.41615 0.82201,0.67685 1.78523,0.57663 2.54291,-0.26459 z"
         id="path190" />
      <path
         style="fill:#fd807e;stroke-width:0.264583"
         d="m 126.4828,122.31058 c -2.81946,-0.55802 -6.023,-3.11595 -7.30847,-5.83559 -0.38486,-0.81423 -0.81418,-2.24298 -0.95405,-3.175 -0.15647,-1.04263 -0.18484,-7.39499 -0.0738,-16.511256 l 0.18056,-14.81666 0.77349,-1.587503 c 1.04121,-2.136993 3.13434,-4.180453 5.36374,-5.236472 l 1.79225,-0.848945 15.08125,-0.08295 c 10.60211,-0.05831 15.55274,0.0075 16.66875,0.221723 3.23074,0.620042 6.16939,2.950748 7.64398,6.062598 l 0.82269,1.736129 v 16.13958 16.139586 l -0.81665,1.71979 c -1.4221,2.99483 -4.16507,5.27236 -7.21413,5.99003 -1.15598,0.27209 -4.81835,0.34608 -16.1786,0.32685 -8.07641,-0.0137 -15.17788,-0.12253 -15.78106,-0.24191 z m 11.19869,-10.43768 c 0.30935,-0.21668 1.12812,-1.43707 1.81949,-2.71198 2.65925,-4.90376 5.54255,-10.260276 7.90587,-14.687286 l 1.51838,-2.84427 h 2.22556 c 1.22407,0 2.22557,0.082 2.22557,0.18222 0,0.10022 -0.67336,1.61827 -1.49637,3.37344 -0.823,1.75517 -2.01328,4.29254 -2.64506,5.638606 -0.63178,1.34607 -1.24254,2.4474 -1.35726,2.4474 -0.11471,0 -0.59311,-0.77982 -1.06311,-1.73293 -0.47,-0.95311 -0.94204,-1.678106 -1.04898,-1.611106 -0.10693,0.067 -0.77223,1.233766 -1.47844,2.592826 l -1.28401,2.471 1.63169,3.04271 c 1.69499,3.16075 2.57722,4.23333 3.48202,4.23333 1.39993,0 1.45806,-0.0986 6.78911,-11.50938 1.0198,-2.182806 2.35771,-5.040306 2.97315,-6.349996 2.06918,-4.40333 2.90559,-6.28231 2.90559,-6.52735 0,-0.13396 -0.29224,-0.53582 -0.64943,-0.89301 l -0.64943,-0.64943 h -6.34727 c -6.21022,0 -6.36154,0.0129 -7.00794,0.59531 -0.36336,0.32743 -1.94268,2.97657 -3.5096,5.88698 -1.56692,2.91042 -3.44934,6.40883 -4.18316,7.774236 -0.73382,1.36541 -1.4474,2.4965 -1.58573,2.51354 -0.25771,0.0317 -5.40904,-10.550636 -5.42651,-11.147666 -0.007,-0.2373 0.57668,-0.33073 2.06598,-0.33073 2.43664,0 2.3346,-0.0802 4.12649,3.24114 0.68698,1.27331 1.29135,2.31511 1.34305,2.31511 0.0517,0 0.71549,-1.10133 1.47507,-2.4474 l 1.38105,-2.44739 -1.29805,-2.47639 c -1.93099,-3.68387 -1.39936,-3.47674 -8.92346,-3.47674 -6.16932,0 -6.38209,0.0175 -6.97578,0.57529 -0.3368,0.31641 -0.61236,0.7752 -0.61236,1.01954 0,0.24435 1.17269,2.93226 2.60597,5.97316 1.43329,3.04089 3.82829,8.148256 5.32224,11.349716 1.49395,3.20146 3.00681,6.08872 3.36191,6.41615 0.74814,0.68982 1.5854,0.76054 2.38376,0.20135 z"
         id="path188" />
      <path
         style="fill:#fd706d;stroke-width:0.264583"
         d="m 126.38886,122.21858 c -3.57427,-0.79255 -6.28991,-3.23031 -7.63394,-6.85279 -0.55718,-1.50173 -0.56815,-1.82957 -0.56815,-16.989556 0,-15.15998 0.011,-15.48782 0.56815,-16.98955 1.38943,-3.744848 4.2756,-6.238658 8.02165,-6.931153 2.04308,-0.377682 29.1374,-0.395174 31.12774,-0.0201 3.23711,0.61003 6.15673,2.890226 7.69086,6.006478 l 0.87807,1.783615 v 16.15071 16.150706 l -0.87807,1.78362 c -1.53413,3.11625 -4.45375,5.39645 -7.69086,6.00648 -2.12885,0.40118 -29.64994,0.3152 -31.51545,-0.0985 z m 11.31071,-10.35835 c 0.65154,-0.45635 0.76691,-0.65864 6.55832,-11.49962 2.29331,-4.292866 4.34909,-8.013566 4.56841,-8.268226 0.31669,-0.36774 0.82588,-0.46302 2.4744,-0.46302 1.14161,0 2.07566,0.0545 2.07566,0.12109 0,0.35041 -5.23577,11.304586 -5.42159,11.342966 -0.12069,0.0249 -0.63663,-0.71498 -1.14654,-1.64422 -1.0776,-1.963786 -0.97201,-2.017406 -2.7226,1.38268 l -1.07319,2.0844 1.25416,2.41852 c 2.20172,4.24577 2.76534,4.93206 4.05053,4.93206 0.92827,0 1.75628,-1.10247 3.27881,-4.36563 0.81477,-1.74625 1.95231,-4.18703 2.52786,-5.42395 1.0863,-2.33456 4.91359,-10.502686 6.02471,-12.857826 0.78064,-1.65463 0.78618,-1.89737 0.0609,-2.66939 -0.57129,-0.60811 -0.62079,-0.61237 -7.12449,-0.61237 h -6.5492 l -0.81301,0.98633 c -0.44716,0.54248 -0.81302,1.05897 -0.81302,1.14776 0,0.0888 -0.7739,1.5647 -1.71979,3.27981 -0.94588,1.71511 -1.71979,3.1584 -1.71979,3.20732 0,0.0489 -0.83344,1.59507 -1.85208,3.43589 -1.01865,1.840826 -1.85474,3.423146 -1.85797,3.516276 -0.003,0.0931 -0.23508,0.46698 -0.51521,0.83078 l -0.50933,0.66146 -1.43752,-3.04271 c -3.3085,-7.002876 -3.88206,-8.256966 -3.88206,-8.488146 0,-0.13371 0.93405,-0.2431 2.07566,-0.2431 2.41488,0 2.43205,0.0125 3.82646,2.77812 1.63484,3.24252 1.48532,3.22457 3.09448,0.37154 l 1.4034,-2.4882 -1.29739,-2.49783 c -0.71357,-1.3738 -1.52821,-2.71325 -1.81031,-2.97656 -0.46631,-0.43524 -1.10842,-0.47874 -7.0673,-0.47874 -6.4019,0 -6.56694,0.0135 -7.09386,0.57906 -0.29671,0.31848 -0.53947,0.78449 -0.53947,1.03558 0,0.25108 0.58033,1.68715 1.28963,3.19125 0.7093,1.50411 1.70761,3.62771 2.21848,4.71911 0.51086,1.09141 1.93846,4.1275 3.17244,6.746876 1.23398,2.61937 2.66992,5.67391 3.19099,6.78786 1.27625,2.72844 2.40361,3.45518 3.82042,2.4628 z"
         id="path186" />
      <path
         style="fill:#fd4d49;stroke-width:0.264583"
         d="m 126.44302,122.18187 c -3.47701,-0.75498 -6.43619,-3.39702 -7.69739,-6.87244 -0.57085,-1.57304 -0.57537,-1.7294 -0.5013,-17.330066 l 0.0747,-15.74271 0.86407,-1.766371 c 1.589,-3.248303 4.55204,-5.480705 7.99947,-6.026931 2.79182,-0.442349 28.34666,-0.362216 30.73454,0.09638 3.49312,0.670852 6.00741,2.647101 7.60442,5.977135 l 0.95167,1.984367 v 15.875 15.874996 l -0.95167,1.98438 c -1.56542,3.26415 -4.04734,5.25151 -7.45307,5.96793 -2.56357,0.53926 -29.12598,0.52106 -31.62548,-0.0217 z m 11.11507,-10.19331 c 0.33594,-0.15306 0.82997,-0.65908 1.09785,-1.12448 0.51286,-0.89103 3.91708,-7.22106 5.93323,-11.032636 0.65428,-1.23692 1.27626,-2.36802 1.38219,-2.51354 0.10592,-0.14552 0.76023,-1.36496 1.45403,-2.70987 0.6938,-1.3449 1.41234,-2.57051 1.59675,-2.72356 0.18958,-0.15733 1.20308,-0.24449 2.33191,-0.20055 l 1.9966,0.0777 -1.00894,2.24896 c -0.55492,1.23693 -1.68023,3.65489 -2.50069,5.37326 -0.82046,1.718356 -1.49174,3.229376 -1.49174,3.357816 0,0.12844 -0.11182,0.30262 -0.24847,0.38709 -0.13666,0.0845 -0.68817,-0.63268 -1.22557,-1.59365 -0.79698,-1.42513 -1.03787,-1.682226 -1.30682,-1.39472 -0.67502,0.72161 -2.73547,4.91745 -2.52615,5.14417 0.11953,0.12948 0.90153,1.54509 1.73778,3.14582 1.58492,3.03384 2.24761,3.8207 3.22605,3.83057 1.26696,0.0128 1.86074,-0.5518 2.87735,-2.73593 0.55116,-1.18413 1.69472,-3.61973 2.54126,-5.41243 0.84653,-1.7927 1.53915,-3.29956 1.53915,-3.34857 0,-0.049 0.70029,-1.558826 1.5562,-3.355126 3.82995,-8.03798 4.26463,-8.99706 4.26463,-9.40932 0,-0.24044 -0.25887,-0.71273 -0.57528,-1.04953 -0.57147,-0.6083 -0.61901,-0.61237 -7.16377,-0.61237 -6.49911,0 -6.59567,0.008 -7.11837,0.59531 -0.47967,0.53891 -1.26118,1.9373 -5.36016,9.59115 -3.17277,5.924376 -3.67218,6.774286 -3.85988,6.568816 -0.10994,-0.12035 -1.06099,-2.06429 -2.11344,-4.319856 -1.05246,-2.25557 -2.19802,-4.70784 -2.5457,-5.44949 -0.34768,-0.74165 -0.63215,-1.43107 -0.63215,-1.53205 0,-0.10099 0.98227,-0.14903 2.18281,-0.10677 l 2.18282,0.0769 1.57337,2.84517 c 0.86535,1.56484 1.654,2.75547 1.75255,2.64583 0.0985,-0.10963 0.75975,-1.30152 1.46933,-2.64864 l 1.29017,-2.44931 -0.4929,-0.85798 c -0.27109,-0.47189 -0.90437,-1.66186 -1.40728,-2.64436 -0.50291,-0.98251 -1.13648,-1.90525 -1.40794,-2.05053 -0.29007,-0.15523 -3.17333,-0.26414 -6.99324,-0.26414 -6.14691,0 -6.52841,0.0287 -7.02886,0.52917 -0.92199,0.92199 -0.99091,0.72891 4.10799,11.50937 0.4818,1.01865 2.01929,4.292866 3.41665,7.276046 3.01508,6.43679 3.65559,7.17514 5.49668,6.33628 z"
         id="path184" />
      <path
         style="fill:#fd423d;stroke-width:0.264583"
         d="m 136.24962,112.34809 c 0.25743,-0.0671 0.61462,-0.0627 0.79375,0.01 0.17913,0.0725 -0.0315,0.12737 -0.46805,0.12198 -0.43657,-0.005 -0.58313,-0.0647 -0.3257,-0.13178 z m 11.64167,0 c 0.25743,-0.0671 0.61462,-0.0627 0.79375,0.01 0.17913,0.0725 -0.0315,0.12737 -0.46805,0.12198 -0.43657,-0.005 -0.58313,-0.0647 -0.3257,-0.13178 z m -9.3316,-1.38853 c 0,-0.13693 0.1177,-0.32171 0.26156,-0.41062 0.14998,-0.0927 0.19434,0.0135 0.10398,0.24897 -0.17589,0.45837 -0.36554,0.54223 -0.36554,0.16165 z m 16.66875,-10.84792 c 0,-0.136926 0.1177,-0.321706 0.26156,-0.410616 0.14998,-0.0927 0.19433,0.0135 0.10398,0.24897 -0.17589,0.458366 -0.36554,0.542236 -0.36554,0.161646 z M 151.409,95.520554 c 0.0994,-0.26094 0.2473,-0.40778 0.32876,-0.32632 0.0815,0.0815 1.7e-4,0.29496 -0.18065,0.47443 -0.26131,0.25937 -0.2917,0.22898 -0.14811,-0.14811 z m -15.67588,-3.38401 c -0.17243,-0.17243 -1.08949,-0.25147 -2.30249,-0.19844 -1.10876,0.0485 -2.01564,-10e-4 -2.01531,-0.1103 3.4e-4,-0.10914 0.93854,-0.19844 2.08489,-0.19844 1.52991,0 2.17188,0.10556 2.41365,0.39687 0.37888,0.45653 0.24637,0.53741 -0.18074,0.11031 z m 13.38136,-0.32115 c 0.11666,-0.11597 1.09355,-0.1744 2.17085,-0.12986 l 1.95874,0.081 -2.17085,0.12985 c -1.19397,0.0714 -2.0754,0.035 -1.95874,-0.081 z m -25.32968,-3.8902 c 0,-0.3638 0.06,-0.51263 0.13345,-0.33073 0.0734,0.1819 0.0734,0.47956 0,0.66146 -0.0734,0.1819 -0.13345,0.0331 -0.13345,-0.33073 z m -5.31255,-5.71059 c 0.0127,-0.30822 0.0754,-0.37092 0.15985,-0.15985 0.0764,0.191 0.067,0.4192 -0.0209,0.50712 -0.0879,0.0879 -0.15045,-0.0683 -0.13897,-0.34727 z m 3.41869,-5.23722 c 0,-0.05494 0.20836,-0.263301 0.46302,-0.46302 0.41965,-0.329108 0.429,-0.31975 0.0999,0.09989 -0.34564,0.440729 -0.56291,0.580887 -0.56291,0.363126 z"
         id="path182" />
    </g>
  </g>
</svg>
